<svg xmlns="http://www.w3.org/2000/svg" height="336px" width="512px" version="1.1"><polyline points="230.0,45.0,226.0,53.0,224.0,61.0" stroke="black" stroke-width="1" fill="none" />
<polyline points="226.0,51.0,234.0,45.0,242.0,49.0,256.0,64.0,264.0,51.0,272.0,49.0,280.0,55.0" stroke="black" stroke-width="1" fill="none" />
<polyline points="275.0,50.0,281.0,58.0,281.0,66.0,278.0,76.0,275.0,84.0,271.0,92.0,268.0,100.0,265.0,108.0,262.0,116.0,259.0,124.0,257.0,132.0,256.0,140.0,247.0,138.0,249.0,137.0,254.0,141.0" stroke="black" stroke-width="1" fill="none" />
<polyline points="260.0,145.0,264.0,139.0,272.0,126.0,280.0,115.0,288.0,105.0,296.0,97.0,304.0,89.0,312.0,84.0,320.0,81.0,328.0,84.0,329.0,87.0,329.0,95.0,325.0,103.0,318.0,112.0,310.0,120.0,301.0,128.0,289.0,136.0,277.0,144.0,265.0,148.0,273.0,147.0,281.0,142.0,289.0,136.0,297.0,131.0,305.0,125.0,313.0,117.0,321.0,109.0" stroke="black" stroke-width="1" fill="none" />
<polyline points="326.0,105.0,334.0,103.0,342.0,102.0,350.0,106.0,351.0,109.0,350.0,117.0,343.0,126.0,351.0,114.0" stroke="black" stroke-width="1" fill="none" />
<polyline points="357.0,128.0,363.0,136.0,358.0,144.0,343.0,152.0,348.0,156.0,356.0,158.0,364.0,162.0" stroke="black" stroke-width="1" fill="none" />
<polyline points="352.0,157.0,367.0,165.0,368.0,173.0,354.0,181.0,358.0,192.0,361.0,200.0" stroke="black" stroke-width="1" fill="none" />
<polyline points="357.0,190.0,349.0,185.0" stroke="black" stroke-width="1" fill="none" />
<polyline points="348.0,182.0,356.0,181.0,364.0,177.0" stroke="black" stroke-width="1" fill="none" />
<polyline points="360.0,201.0,352.0,207.0,344.0,207.0,336.0,207.0,328.0,207.0" stroke="black" stroke-width="1" fill="none" />
<polyline points="329.0,206.0,335.0,214.0,340.0,222.0,339.0,230.0" stroke="black" stroke-width="1" fill="none" />
<polyline points="339.0,218.0,331.0,209.0" stroke="black" stroke-width="1" fill="none" />
<polyline points="307.0,265.0,299.0,263.0,291.0,257.0,283.0,251.0" stroke="black" stroke-width="1" fill="none" />
<polyline points="283.0,251.0,283.0,259.0,282.0,267.0" stroke="black" stroke-width="1" fill="none" />
<polyline points="293.0,260.0,285.0,252.0" stroke="black" stroke-width="1" fill="none" />
<polyline points="304.0,230.0,296.0,219.0,288.0,213.0,280.0,206.0,272.0,198.0,264.0,189.0" stroke="black" stroke-width="1" fill="none" />
<polyline points="261.0,186.0,269.0,191.0,277.0,199.0,285.0,207.0,293.0,214.0,301.0,220.0,309.0,225.0,317.0,229.0,325.0,232.0,333.0,233.0" stroke="black" stroke-width="1" fill="none" />
<polyline points="301.0,191.0,283.0,183.0,273.0,173.0" stroke="black" stroke-width="1" fill="none" />
<polyline points="263.0,174.0,271.0,173.0,279.0,170.0,287.0,171.0,295.0,171.0,303.0,172.0,311.0,173.0,319.0,175.0,327.0,177.0" stroke="black" stroke-width="1" fill="none" />
<polyline points="311.0,196.0,303.0,192.0,295.0,187.0,287.0,184.0,279.0,181.0,271.0,178.0,263.0,180.0" stroke="black" stroke-width="1" fill="none" />
<polyline points="253.0,180.0,265.0,187.0,272.0,195.0,280.0,203.0,289.0,211.0,299.0,219.0,312.0,227.0" stroke="black" stroke-width="1" fill="none" />
<polyline points="255.0,251.0,258.0,259.0,263.0,267.0" stroke="black" stroke-width="1" fill="none" />
<polyline points="246.0,274.0,250.0,266.0,252.0,258.0,255.0,250.0,252.0,242.0,250.0,234.0,249.0,226.0,248.0,218.0,247.0,210.0,247.0,202.0,246.0,194.0,250.0,191.0,247.0,182.0" stroke="black" stroke-width="1" fill="none" />
<polyline points="244.0,170.0,252.0,170.0" stroke="black" stroke-width="1" fill="none" />
<polyline points="238.0,164.0,246.0,161.0,250.0,154.0,256.0,155.0,254.0,163.0,267.0,167.0,277.0,163.0,285.0,162.0,293.0,162.0,301.0,161.0,309.0,160.0,317.0,159.0,325.0,158.0,333.0,156.0,341.0,153.0,349.0,149.0,357.0,145.0" stroke="black" stroke-width="1" fill="none" />
<polyline points="363.0,133.0,355.0,127.0,347.0,126.0,337.0,127.0,329.0,128.0,321.0,130.0,313.0,133.0,305.0,136.0,297.0,139.0,289.0,143.0,281.0,147.0,273.0,152.0,264.0,153.0" stroke="black" stroke-width="1" fill="none" />
<polyline points="259.0,124.0,267.0,101.0,275.0,82.0" stroke="black" stroke-width="1" fill="none" />
<polyline points="298.0,91.0,290.0,98.0,282.0,107.0,274.0,118.0,266.0,131.0,258.0,140.0,253.0,145.0,262.0,137.0,267.0,129.0,272.0,121.0,278.0,113.0,284.0,105.0,291.0,97.0,299.0,89.0,301.0,81.0,302.0,73.0,301.0,65.0,295.0,57.0" stroke="black" stroke-width="1" fill="none" />
<polyline points="294.0,56.0,285.0,64.0,284.0,65.0,292.0,57.0,300.0,60.0" stroke="black" stroke-width="1" fill="none" />
<polyline points="319.0,81.0,304.0,89.0,295.0,97.0,288.0,105.0,281.0,113.0,276.0,121.0,271.0,129.0,266.0,137.0,265.0,145.0,260.0,147.0,265.0,155.0,267.0,156.0,275.0,165.0,277.0,165.0,285.0,165.0" stroke="black" stroke-width="1" fill="none" />
<polyline points="257.0,190.0,261.0,198.0" stroke="black" stroke-width="1" fill="none" />
<polyline points="223.0,180.0,215.0,180.0,200.0,188.0" stroke="black" stroke-width="1" fill="none" />
<polyline points="197.0,199.0,188.0,207.0,180.0,215.0,175.0,223.0,172.0,234.0,174.0,242.0,178.0,244.0,186.0,243.0,194.0,238.0,202.0,231.0" stroke="black" stroke-width="1" fill="none" />
<polyline points="202.0,231.0,192.0,239.0" stroke="black" stroke-width="1" fill="none" />
<polyline points="204.0,231.0,202.0,239.0,200.0,247.0,200.0,255.0,202.0,263.0,204.0,265.0,212.0,268.0,220.0,261.0" stroke="black" stroke-width="1" fill="none" />
<polyline points="221.0,260.0,225.0,252.0" stroke="black" stroke-width="1" fill="none" />
<polyline points="227.0,253.0,227.0,261.0,228.0,269.0,231.0,277.0" stroke="black" stroke-width="1" fill="none" />
<polyline points="229.0,270.0,237.0,280.0,245.0,275.0" stroke="black" stroke-width="1" fill="none" />
<polyline points="193.0,202.0,185.0,210.0,177.0,220.0,168.0,229.0,160.0,230.0,152.0,224.0" stroke="black" stroke-width="1" fill="none" />
<polyline points="153.0,227.0,151.0,219.0,155.0,211.0,162.0,203.0,167.0,199.0,159.0,206.0,151.0,218.0" stroke="black" stroke-width="1" fill="none" />
<polyline points="136.0,187.0,144.0,177.0,152.0,172.0,160.0,169.0" stroke="black" stroke-width="1" fill="none" />
<polyline points="157.0,166.0,149.0,162.0,141.0,156.0" stroke="black" stroke-width="1" fill="none" />
<polyline points="140.0,148.0,148.0,143.0,156.0,142.0" stroke="black" stroke-width="1" fill="none" />
<polyline points="159.0,139.0,151.0,133.0,143.0,124.0" stroke="black" stroke-width="1" fill="none" />
<polyline points="142.0,117.0,150.0,112.0,158.0,112.0,166.0,117.0,174.0,125.0,182.0,131.0,190.0,136.0,198.0,141.0,206.0,145.0,214.0,149.0" stroke="black" stroke-width="1" fill="none" />
<polyline points="226.0,136.0,218.0,123.0,210.0,108.0,202.0,90.0" stroke="black" stroke-width="1" fill="none" />
<polyline points="191.0,100.0,183.0,94.0,175.0,86.0,164.0,87.0,156.0,91.0" stroke="black" stroke-width="1" fill="none" />
<polyline points="160.0,87.0,156.0,95.0,158.0,103.0,164.0,111.0,165.0,117.0,174.0,125.0,184.0,133.0,197.0,141.0,212.0,149.0,218.0,155.0,230.0,157.0,235.0,151.0,237.0,143.0" stroke="black" stroke-width="1" fill="none" />
<polyline points="242.0,141.0,247.0,136.0,255.0,130.0,257.0,122.0,260.0,114.0,263.0,106.0,266.0,98.0,269.0,90.0,272.0,82.0,273.0,80.0,265.0,99.0,257.0,122.0" stroke="black" stroke-width="1" fill="none" />
<polyline points="251.0,123.0,249.0,131.0,245.0,135.0" stroke="black" stroke-width="1" fill="none" />
<polyline points="242.0,137.0,234.0,120.0" stroke="black" stroke-width="1" fill="none" />
<polyline points="234.0,120.0,236.0,128.0,239.0,136.0" stroke="black" stroke-width="1" fill="none" />
<polyline points="233.0,139.0,225.0,129.0,217.0,116.0,209.0,100.0,201.0,79.0,194.0,73.0,186.0,68.0,178.0,66.0,170.0,71.0" stroke="black" stroke-width="1" fill="none" />
<polyline points="175.0,66.0,170.0,74.0,171.0,82.0,175.0,87.0,184.0,95.0" stroke="black" stroke-width="1" fill="none" />
<polyline points="168.0,116.0,177.0,124.0,188.0,132.0,201.0,140.0,216.0,148.0" stroke="black" stroke-width="1" fill="none" />
<polyline points="235.0,146.0,221.0,150.0,213.0,146.0,205.0,142.0,197.0,137.0,189.0,132.0,181.0,126.0,173.0,119.0,165.0,111.0,157.0,99.0" stroke="black" stroke-width="1" fill="none" />
<polyline points="148.0,112.0,142.0,120.0,145.0,128.0,153.0,136.0,142.0,146.0,140.0,154.0,147.0,162.0,155.0,171.0,141.0,179.0,136.0,187.0,141.0,195.0,144.0,196.0,152.0,197.0,160.0,197.0,168.0,196.0,177.0,194.0,185.0,192.0,193.0,189.0,201.0,185.0,209.0,181.0,217.0,177.0,224.0,175.0,232.0,183.0,241.0,188.0,254.0,187.0,257.0,190.0" stroke="black" stroke-width="1" fill="none" />
<polyline points="224.0,175.0,231.0,183.0,238.0,190.0,244.0,195.0,244.0,203.0,245.0,211.0,245.0,219.0,246.0,227.0,247.0,235.0,249.0,243.0,257.0,255.0,265.0,268.0,273.0,273.0,281.0,268.0" stroke="black" stroke-width="1" fill="none" />
<polyline points="308.0,264.0,313.0,256.0,311.0,248.0,309.0,240.0,305.0,232.0,300.0,224.0,290.0,216.0,281.0,208.0,274.0,200.0,266.0,192.0,254.0,187.0,264.0,179.0,265.0,167.0,272.0,153.0,285.0,145.0,301.0,137.0,323.0,129.0" stroke="black" stroke-width="1" fill="none" />
<polyline points="235.0,134.0,233.0,126.0,231.0,118.0" stroke="black" stroke-width="1" fill="none" />
<polyline points="221.0,64.0,213.0,55.0,205.0,51.0,197.0,60.0" stroke="black" stroke-width="1" fill="none" />
<polyline points="204.0,51.0,198.0,59.0,197.0,67.0,199.0,75.0,200.0,85.0,203.0,93.0,206.0,101.0,210.0,109.0,214.0,117.0,219.0,125.0,224.0,133.0,226.0,141.0,225.0,148.0,222.0,158.0,219.0,166.0,222.0,174.0,206.0,182.0,189.0,190.0,192.0,192.0,200.0,188.0,208.0,184.0,216.0,180.0,220.0,183.0" stroke="black" stroke-width="1" fill="none" />
<polyline points="232.0,175.0,226.0,166.0,229.0,154.0,235.0,146.0,235.0,143.0,227.0,133.0,222.0,125.0,217.0,117.0,213.0,109.0,209.0,101.0,205.0,93.0,203.0,85.0,196.0,75.0,184.0,67.0" stroke="black" stroke-width="1" fill="none" />
<polyline points="206.0,52.0,217.0,60.0" stroke="black" stroke-width="1" fill="none" />
<polyline points="237.0,46.0,244.0,54.0,248.0,62.0,250.0,70.0,251.0,78.0" stroke="black" stroke-width="1" fill="none" />
<polyline points="254.0,72.0,256.0,64.0,260.0,56.0,269.0,48.0" stroke="black" stroke-width="1" fill="none" />
<polyline points="0.0,2.0,384.0,2.0" stroke="black" stroke-width="1" fill="none" />
<polyline points="368.0,0.0,304.0,64.0" stroke="black" stroke-width="1" fill="none" />
<polyline points="304.0,62.0,328.0,62.0" stroke="black" stroke-width="1" fill="none" />
<polyline points="328.0,80.0,376.0,32.0" stroke="black" stroke-width="1" fill="none" />
<polyline points="376.0,24.0,320.0,80.0" stroke="black" stroke-width="1" fill="none" />
<polyline points="328.0,82.0,408.0,82.0" stroke="black" stroke-width="1" fill="none" />
<polyline points="400.0,88.0,360.0,128.0" stroke="black" stroke-width="1" fill="none" />
<polyline points="360.0,126.0,376.0,126.0" stroke="black" stroke-width="1" fill="none" />
<polyline points="368.0,128.0,400.0,96.0" stroke="black" stroke-width="1" fill="none" />
<polyline points="400.0,104.0,352.0,152.0" stroke="black" stroke-width="1" fill="none" />
<polyline points="352.0,154.0,456.0,154.0" stroke="black" stroke-width="1" fill="none" />
<polyline points="440.0,160.0,264.0,336.0" stroke="black" stroke-width="1" fill="none" />
<polyline points="320.0,336.0,456.0,200.0" stroke="black" stroke-width="1" fill="none" />
<polyline points="456.0,192.0,312.0,336.0" stroke="black" stroke-width="1" fill="none" />
<polyline points="376.0,336.0,488.0,224.0" stroke="black" stroke-width="1" fill="none" />
<polyline points="480.0,224.0,368.0,336.0" stroke="black" stroke-width="1" fill="none" />
<polyline points="456.0,336.0,512.0,280.0" stroke="black" stroke-width="1" fill="none" />
<polyline points="512.0,272.0,448.0,336.0" stroke="black" stroke-width="1" fill="none" />
<polyline points="440.0,336.0,512.0,264.0" stroke="black" stroke-width="1" fill="none" />
<polyline points="512.0,256.0,432.0,336.0" stroke="black" stroke-width="1" fill="none" />
<polyline points="424.0,336.0,512.0,248.0" stroke="black" stroke-width="1" fill="none" />
<polyline points="512.0,240.0,416.0,336.0" stroke="black" stroke-width="1" fill="none" />
<polyline points="408.0,336.0,504.0,240.0" stroke="black" stroke-width="1" fill="none" />
<polyline points="496.0,240.0,400.0,336.0" stroke="black" stroke-width="1" fill="none" />
<polyline points="392.0,336.0,496.0,232.0" stroke="black" stroke-width="1" fill="none" />
<polyline points="488.0,232.0,384.0,336.0" stroke="black" stroke-width="1" fill="none" />
<polyline points="464.0,336.0,480.0,320.0" stroke="black" stroke-width="1" fill="none" />
<polyline points="480.0,328.0,472.0,336.0" stroke="black" stroke-width="1" fill="none" />
<polyline points="504.0,296.0,512.0,288.0" stroke="black" stroke-width="1" fill="none" />
<polyline points="480.0,216.0,360.0,336.0" stroke="black" stroke-width="1" fill="none" />
<polyline points="352.0,336.0,472.0,216.0" stroke="black" stroke-width="1" fill="none" />
<polyline points="472.0,208.0,344.0,336.0" stroke="black" stroke-width="1" fill="none" />
<polyline points="336.0,336.0,464.0,208.0" stroke="black" stroke-width="1" fill="none" />
<polyline points="464.0,200.0,328.0,336.0" stroke="black" stroke-width="1" fill="none" />
<polyline points="304.0,336.0,456.0,184.0" stroke="black" stroke-width="1" fill="none" />
<polyline points="448.0,184.0,296.0,336.0" stroke="black" stroke-width="1" fill="none" />
<polyline points="288.0,336.0,448.0,176.0" stroke="black" stroke-width="1" fill="none" />
<polyline points="440.0,176.0,280.0,336.0" stroke="black" stroke-width="1" fill="none" />
<polyline points="272.0,336.0,440.0,168.0" stroke="black" stroke-width="1" fill="none" />
<polyline points="432.0,160.0,256.0,336.0" stroke="black" stroke-width="1" fill="none" />
<polyline points="248.0,336.0,432.0,152.0" stroke="black" stroke-width="1" fill="none" />
<polyline points="432.0,144.0,240.0,336.0" stroke="black" stroke-width="1" fill="none" />
<polyline points="232.0,336.0,304.0,264.0" stroke="black" stroke-width="1" fill="none" />
<polyline points="296.0,264.0,224.0,336.0" stroke="black" stroke-width="1" fill="none" />
<polyline points="216.0,336.0,296.0,256.0" stroke="black" stroke-width="1" fill="none" />
<polyline points="296.0,262.0,288.0,262.0" stroke="black" stroke-width="1" fill="none" />
<polyline points="288.0,270.0,488.0,270.0" stroke="black" stroke-width="1" fill="none" />
<polyline points="480.0,246.0,408.0,246.0" stroke="black" stroke-width="1" fill="none" />
<polyline points="408.0,238.0,472.0,238.0" stroke="black" stroke-width="1" fill="none" />
<polyline points="488.0,254.0,400.0,254.0" stroke="black" stroke-width="1" fill="none" />
<polyline points="400.0,230.0,464.0,230.0" stroke="black" stroke-width="1" fill="none" />
<polyline points="464.0,222.0,392.0,222.0" stroke="black" stroke-width="1" fill="none" />
<polyline points="368.0,214.0,456.0,214.0" stroke="black" stroke-width="1" fill="none" />
<polyline points="424.0,144.0,344.0,224.0" stroke="black" stroke-width="1" fill="none" />
<polyline points="344.0,218.0,512.0,218.0" stroke="black" stroke-width="1" fill="none" />
<polyline points="424.0,136.0,360.0,200.0" stroke="black" stroke-width="1" fill="none" />
<polyline points="360.0,206.0,448.0,206.0" stroke="black" stroke-width="1" fill="none" />
<polyline points="416.0,136.0,360.0,192.0" stroke="black" stroke-width="1" fill="none" />
<polyline points="360.0,190.0,432.0,190.0" stroke="black" stroke-width="1" fill="none" />
<polyline points="424.0,174.0,376.0,174.0" stroke="black" stroke-width="1" fill="none" />
<polyline points="376.0,166.0,424.0,166.0" stroke="black" stroke-width="1" fill="none" />
<polyline points="416.0,128.0,360.0,184.0" stroke="black" stroke-width="1" fill="none" />
<polyline points="352.0,186.0,472.0,186.0" stroke="black" stroke-width="1" fill="none" />
<polyline points="408.0,128.0,368.0,168.0" stroke="black" stroke-width="1" fill="none" />
<polyline points="368.0,170.0,464.0,170.0" stroke="black" stroke-width="1" fill="none" />
<polyline points="408.0,120.0,368.0,160.0" stroke="black" stroke-width="1" fill="none" />
<polyline points="368.0,158.0,416.0,158.0" stroke="black" stroke-width="1" fill="none" />
<polyline points="400.0,120.0,360.0,160.0" stroke="black" stroke-width="1" fill="none" />
<polyline points="360.0,152.0,400.0,112.0" stroke="black" stroke-width="1" fill="none" />
<polyline points="392.0,88.0,352.0,128.0" stroke="black" stroke-width="1" fill="none" />
<polyline points="352.0,120.0,392.0,80.0" stroke="black" stroke-width="1" fill="none" />
<polyline points="392.0,72.0,352.0,112.0" stroke="black" stroke-width="1" fill="none" />
<polyline points="352.0,110.0,384.0,110.0" stroke="black" stroke-width="1" fill="none" />
<polyline points="376.0,134.0,368.0,134.0" stroke="black" stroke-width="1" fill="none" />
<polyline points="368.0,142.0,376.0,142.0" stroke="black" stroke-width="1" fill="none" />
<polyline points="360.0,138.0,448.0,138.0" stroke="black" stroke-width="1" fill="none" />
<polyline points="440.0,198.0,368.0,198.0" stroke="black" stroke-width="1" fill="none" />
<polyline points="368.0,182.0,432.0,182.0" stroke="black" stroke-width="1" fill="none" />
<polyline points="456.0,162.0,368.0,162.0" stroke="black" stroke-width="1" fill="none" />
<polyline points="360.0,150.0,392.0,150.0" stroke="black" stroke-width="1" fill="none" />
<polyline points="360.0,130.0,440.0,130.0" stroke="black" stroke-width="1" fill="none" />
<polyline points="392.0,64.0,352.0,104.0" stroke="black" stroke-width="1" fill="none" />
<polyline points="352.0,102.0,384.0,102.0" stroke="black" stroke-width="1" fill="none" />
<polyline points="384.0,86.0,360.0,86.0" stroke="black" stroke-width="1" fill="none" />
<polyline points="360.0,78.0,376.0,78.0" stroke="black" stroke-width="1" fill="none" />
<polyline points="384.0,56.0,344.0,96.0" stroke="black" stroke-width="1" fill="none" />
<polyline points="344.0,104.0,392.0,56.0" stroke="black" stroke-width="1" fill="none" />
<polyline points="384.0,48.0,336.0,96.0" stroke="black" stroke-width="1" fill="none" />
<polyline points="336.0,88.0,384.0,40.0" stroke="black" stroke-width="1" fill="none" />
<polyline points="384.0,32.0,328.0,88.0" stroke="black" stroke-width="1" fill="none" />
<polyline points="328.0,90.0,416.0,90.0" stroke="black" stroke-width="1" fill="none" />
<polyline points="376.0,118.0,352.0,118.0" stroke="black" stroke-width="1" fill="none" />
<polyline points="344.0,114.0,424.0,114.0" stroke="black" stroke-width="1" fill="none" />
<polyline points="448.0,146.0,352.0,146.0" stroke="black" stroke-width="1" fill="none" />
<polyline points="344.0,122.0,432.0,122.0" stroke="black" stroke-width="1" fill="none" />
<polyline points="464.0,178.0,352.0,178.0" stroke="black" stroke-width="1" fill="none" />
<polyline points="352.0,194.0,480.0,194.0" stroke="black" stroke-width="1" fill="none" />
<polyline points="352.0,208.0,344.0,216.0" stroke="black" stroke-width="1" fill="none" />
<polyline points="344.0,208.0,336.0,216.0" stroke="black" stroke-width="1" fill="none" />
<polyline points="336.0,210.0,512.0,210.0" stroke="black" stroke-width="1" fill="none" />
<polyline points="352.0,230.0,344.0,230.0" stroke="black" stroke-width="1" fill="none" />
<polyline points="336.0,232.0,320.0,248.0" stroke="black" stroke-width="1" fill="none" />
<polyline points="312.0,248.0,328.0,232.0" stroke="black" stroke-width="1" fill="none" />
<polyline points="320.0,232.0,312.0,240.0" stroke="black" stroke-width="1" fill="none" />
<polyline points="312.0,242.0,512.0,242.0" stroke="black" stroke-width="1" fill="none" />
<polyline points="424.0,106.0,344.0,106.0" stroke="black" stroke-width="1" fill="none" />
<polyline points="352.0,94.0,384.0,94.0" stroke="black" stroke-width="1" fill="none" />
<polyline points="416.0,98.0,328.0,98.0" stroke="black" stroke-width="1" fill="none" />
<polyline points="304.0,88.0,376.0,16.0" stroke="black" stroke-width="1" fill="none" />
<polyline points="368.0,16.0,304.0,80.0" stroke="black" stroke-width="1" fill="none" />
<polyline points="304.0,78.0,320.0,78.0" stroke="black" stroke-width="1" fill="none" />
<polyline points="304.0,74.0,408.0,74.0" stroke="black" stroke-width="1" fill="none" />
<polyline points="368.0,8.0,304.0,72.0" stroke="black" stroke-width="1" fill="none" />
<polyline points="304.0,70.0,328.0,70.0" stroke="black" stroke-width="1" fill="none" />
<polyline points="304.0,66.0,408.0,66.0" stroke="black" stroke-width="1" fill="none" />
<polyline points="360.0,0.0,304.0,56.0" stroke="black" stroke-width="1" fill="none" />
<polyline points="296.0,56.0,352.0,0.0" stroke="black" stroke-width="1" fill="none" />
<polyline points="344.0,0.0,288.0,56.0" stroke="black" stroke-width="1" fill="none" />
<polyline points="280.0,56.0,336.0,0.0" stroke="black" stroke-width="1" fill="none" />
<polyline points="328.0,0.0,280.0,48.0" stroke="black" stroke-width="1" fill="none" />
<polyline points="280.0,50.0,408.0,50.0" stroke="black" stroke-width="1" fill="none" />
<polyline points="320.0,0.0,272.0,48.0" stroke="black" stroke-width="1" fill="none" />
<polyline points="280.0,54.0,328.0,54.0" stroke="black" stroke-width="1" fill="none" />
<polyline points="296.0,58.0,408.0,58.0" stroke="black" stroke-width="1" fill="none" />
<polyline points="312.0,0.0,248.0,64.0" stroke="black" stroke-width="1" fill="none" />
<polyline points="248.0,66.0,256.0,66.0" stroke="black" stroke-width="1" fill="none" />
<polyline points="256.0,58.0,248.0,58.0" stroke="black" stroke-width="1" fill="none" />
<polyline points="248.0,56.0,304.0,0.0" stroke="black" stroke-width="1" fill="none" />
<polyline points="304.0,6.0,352.0,6.0" stroke="black" stroke-width="1" fill="none" />
<polyline points="296.0,0.0,248.0,48.0" stroke="black" stroke-width="1" fill="none" />
<polyline points="248.0,54.0,256.0,54.0" stroke="black" stroke-width="1" fill="none" />
<polyline points="264.0,50.0,240.0,50.0" stroke="black" stroke-width="1" fill="none" />
<polyline points="240.0,48.0,288.0,0.0" stroke="black" stroke-width="1" fill="none" />
<polyline points="280.0,0.0,240.0,40.0" stroke="black" stroke-width="1" fill="none" />
<polyline points="240.0,46.0,328.0,46.0" stroke="black" stroke-width="1" fill="none" />
<polyline points="312.0,82.0,296.0,82.0" stroke="black" stroke-width="1" fill="none" />
<polyline points="288.0,58.0,280.0,58.0" stroke="black" stroke-width="1" fill="none" />
<polyline points="296.0,14.0,352.0,14.0" stroke="black" stroke-width="1" fill="none" />
<polyline points="272.0,0.0,216.0,56.0" stroke="black" stroke-width="1" fill="none" />
<polyline points="216.0,54.0,224.0,54.0" stroke="black" stroke-width="1" fill="none" />
<polyline points="224.0,58.0,216.0,58.0" stroke="black" stroke-width="1" fill="none" />
<polyline points="216.0,48.0,264.0,0.0" stroke="black" stroke-width="1" fill="none" />
<polyline points="256.0,0.0,208.0,48.0" stroke="black" stroke-width="1" fill="none" />
<polyline points="200.0,66.0,184.0,66.0" stroke="black" stroke-width="1" fill="none" />
<polyline points="184.0,64.0,248.0,0.0" stroke="black" stroke-width="1" fill="none" />
<polyline points="240.0,0.0,176.0,64.0" stroke="black" stroke-width="1" fill="none" />
<polyline points="184.0,62.0,192.0,62.0" stroke="black" stroke-width="1" fill="none" />
<polyline points="168.0,72.0,0.0,240.0" stroke="black" stroke-width="1" fill="none" />
<polyline points="0.0,238.0,144.0,238.0" stroke="black" stroke-width="1" fill="none" />
<polyline points="152.0,232.0,48.0,336.0" stroke="black" stroke-width="1" fill="none" />
<polyline points="96.0,336.0,192.0,240.0" stroke="black" stroke-width="1" fill="none" />
<polyline points="192.0,234.0,200.0,234.0" stroke="black" stroke-width="1" fill="none" />
<polyline points="200.0,240.0,104.0,336.0" stroke="black" stroke-width="1" fill="none" />
<polyline points="208.0,336.0,272.0,272.0" stroke="black" stroke-width="1" fill="none" />
<polyline points="264.0,272.0,200.0,336.0" stroke="black" stroke-width="1" fill="none" />
<polyline points="192.0,336.0,264.0,264.0" stroke="black" stroke-width="1" fill="none" />
<polyline points="256.0,264.0,248.0,272.0" stroke="black" stroke-width="1" fill="none" />
<polyline points="248.0,266.0,272.0,266.0" stroke="black" stroke-width="1" fill="none" />
<polyline points="280.0,266.0,512.0,266.0" stroke="black" stroke-width="1" fill="none" />
<polyline points="368.0,246.0,336.0,246.0" stroke="black" stroke-width="1" fill="none" />
<polyline points="328.0,254.0,384.0,254.0" stroke="black" stroke-width="1" fill="none" />
<polyline points="336.0,226.0,512.0,226.0" stroke="black" stroke-width="1" fill="none" />
<polyline points="488.0,202.0,336.0,202.0" stroke="black" stroke-width="1" fill="none" />
<polyline points="320.0,238.0,360.0,238.0" stroke="black" stroke-width="1" fill="none" />
<polyline points="320.0,262.0,496.0,262.0" stroke="black" stroke-width="1" fill="none" />
<polyline points="512.0,250.0,312.0,250.0" stroke="black" stroke-width="1" fill="none" />
<polyline points="312.0,234.0,512.0,234.0" stroke="black" stroke-width="1" fill="none" />
<polyline points="328.0,226.0,304.0,226.0" stroke="black" stroke-width="1" fill="none" />
<polyline points="280.0,258.0,512.0,258.0" stroke="black" stroke-width="1" fill="none" />
<polyline points="480.0,278.0,264.0,278.0" stroke="black" stroke-width="1" fill="none" />
<polyline points="264.0,270.0,256.0,270.0" stroke="black" stroke-width="1" fill="none" />
<polyline points="256.0,278.0,248.0,278.0" stroke="black" stroke-width="1" fill="none" />
<polyline points="240.0,280.0,184.0,336.0" stroke="black" stroke-width="1" fill="none" />
<polyline points="176.0,336.0,232.0,280.0" stroke="black" stroke-width="1" fill="none" />
<polyline points="232.0,272.0,168.0,336.0" stroke="black" stroke-width="1" fill="none" />
<polyline points="160.0,336.0,224.0,272.0" stroke="black" stroke-width="1" fill="none" />
<polyline points="224.0,264.0,152.0,336.0" stroke="black" stroke-width="1" fill="none" />
<polyline points="144.0,336.0,216.0,264.0" stroke="black" stroke-width="1" fill="none" />
<polyline points="216.0,258.0,232.0,258.0" stroke="black" stroke-width="1" fill="none" />
<polyline points="248.0,258.0,264.0,258.0" stroke="black" stroke-width="1" fill="none" />
<polyline points="224.0,270.0,216.0,270.0" stroke="black" stroke-width="1" fill="none" />
<polyline points="208.0,264.0,136.0,336.0" stroke="black" stroke-width="1" fill="none" />
<polyline points="128.0,336.0,200.0,264.0" stroke="black" stroke-width="1" fill="none" />
<polyline points="200.0,256.0,120.0,336.0" stroke="black" stroke-width="1" fill="none" />
<polyline points="112.0,336.0,200.0,248.0" stroke="black" stroke-width="1" fill="none" />
<polyline points="184.0,240.0,88.0,336.0" stroke="black" stroke-width="1" fill="none" />
<polyline points="80.0,336.0,176.0,240.0" stroke="black" stroke-width="1" fill="none" />
<polyline points="168.0,240.0,72.0,336.0" stroke="black" stroke-width="1" fill="none" />
<polyline points="64.0,336.0,168.0,232.0" stroke="black" stroke-width="1" fill="none" />
<polyline points="160.0,232.0,56.0,336.0" stroke="black" stroke-width="1" fill="none" />
<polyline points="24.0,336.0,160.0,200.0" stroke="black" stroke-width="1" fill="none" />
<polyline points="152.0,200.0,16.0,336.0" stroke="black" stroke-width="1" fill="none" />
<polyline points="32.0,336.0,152.0,216.0" stroke="black" stroke-width="1" fill="none" />
<polyline points="152.0,224.0,40.0,336.0" stroke="black" stroke-width="1" fill="none" />
<polyline points="8.0,336.0,144.0,200.0" stroke="black" stroke-width="1" fill="none" />
<polyline points="144.0,192.0,0.0,336.0" stroke="black" stroke-width="1" fill="none" />
<polyline points="0.0,334.0,448.0,334.0" stroke="black" stroke-width="1" fill="none" />
<polyline points="264.0,176.0,256.0,184.0" stroke="black" stroke-width="1" fill="none" />
<polyline points="248.0,184.0,272.0,160.0" stroke="black" stroke-width="1" fill="none" />
<polyline points="264.0,160.0,240.0,184.0" stroke="black" stroke-width="1" fill="none" />
<polyline points="240.0,186.0,248.0,186.0" stroke="black" stroke-width="1" fill="none" />
<polyline points="232.0,184.0,264.0,152.0" stroke="black" stroke-width="1" fill="none" />
<polyline points="264.0,144.0,232.0,176.0" stroke="black" stroke-width="1" fill="none" />
<polyline points="232.0,174.0,240.0,174.0" stroke="black" stroke-width="1" fill="none" />
<polyline points="232.0,178.0,264.0,178.0" stroke="black" stroke-width="1" fill="none" />
<polyline points="256.0,144.0,224.0,176.0" stroke="black" stroke-width="1" fill="none" />
<polyline points="224.0,170.0,272.0,170.0" stroke="black" stroke-width="1" fill="none" />
<polyline points="256.0,136.0,224.0,168.0" stroke="black" stroke-width="1" fill="none" />
<polyline points="224.0,166.0,232.0,166.0" stroke="black" stroke-width="1" fill="none" />
<polyline points="224.0,162.0,280.0,162.0" stroke="black" stroke-width="1" fill="none" />
<polyline points="248.0,136.0,224.0,160.0" stroke="black" stroke-width="1" fill="none" />
<polyline points="224.0,154.0,272.0,154.0" stroke="black" stroke-width="1" fill="none" />
<polyline points="240.0,136.0,224.0,152.0" stroke="black" stroke-width="1" fill="none" />
<polyline points="224.0,146.0,272.0,146.0" stroke="black" stroke-width="1" fill="none" />
<polyline points="264.0,138.0,224.0,138.0" stroke="black" stroke-width="1" fill="none" />
<polyline points="160.0,104.0,152.0,112.0" stroke="black" stroke-width="1" fill="none" />
<polyline points="152.0,104.0,0.0,256.0" stroke="black" stroke-width="1" fill="none" />
<polyline points="0.0,254.0,200.0,254.0" stroke="black" stroke-width="1" fill="none" />
<polyline points="136.0,192.0,0.0,328.0" stroke="black" stroke-width="1" fill="none" />
<polyline points="0.0,326.0,448.0,326.0" stroke="black" stroke-width="1" fill="none" />
<polyline points="152.0,160.0,0.0,312.0" stroke="black" stroke-width="1" fill="none" />
<polyline points="0.0,310.0,456.0,310.0" stroke="black" stroke-width="1" fill="none" />
<polyline points="136.0,184.0,0.0,320.0" stroke="black" stroke-width="1" fill="none" />
<polyline points="0.0,318.0,448.0,318.0" stroke="black" stroke-width="1" fill="none" />
<polyline points="144.0,160.0,0.0,304.0" stroke="black" stroke-width="1" fill="none" />
<polyline points="0.0,302.0,464.0,302.0" stroke="black" stroke-width="1" fill="none" />
<polyline points="152.0,128.0,0.0,280.0" stroke="black" stroke-width="1" fill="none" />
<polyline points="0.0,278.0,232.0,278.0" stroke="black" stroke-width="1" fill="none" />
<polyline points="136.0,160.0,0.0,296.0" stroke="black" stroke-width="1" fill="none" />
<polyline points="0.0,294.0,464.0,294.0" stroke="black" stroke-width="1" fill="none" />
<polyline points="136.0,152.0,0.0,288.0" stroke="black" stroke-width="1" fill="none" />
<polyline points="0.0,286.0,472.0,286.0" stroke="black" stroke-width="1" fill="none" />
<polyline points="144.0,128.0,0.0,272.0" stroke="black" stroke-width="1" fill="none" />
<polyline points="0.0,270.0,208.0,270.0" stroke="black" stroke-width="1" fill="none" />
<polyline points="136.0,150.0,128.0,150.0" stroke="black" stroke-width="1" fill="none" />
<polyline points="144.0,120.0,0.0,264.0" stroke="black" stroke-width="1" fill="none" />
<polyline points="0.0,262.0,200.0,262.0" stroke="black" stroke-width="1" fill="none" />
<polyline points="152.0,102.0,136.0,102.0" stroke="black" stroke-width="1" fill="none" />
<polyline points="136.0,94.0,152.0,94.0" stroke="black" stroke-width="1" fill="none" />
<polyline points="152.0,96.0,0.0,248.0" stroke="black" stroke-width="1" fill="none" />
<polyline points="0.0,246.0,152.0,246.0" stroke="black" stroke-width="1" fill="none" />
<polyline points="232.0,266.0,0.0,266.0" stroke="black" stroke-width="1" fill="none" />
<polyline points="0.0,258.0,200.0,258.0" stroke="black" stroke-width="1" fill="none" />
<polyline points="152.0,86.0,136.0,86.0" stroke="black" stroke-width="1" fill="none" />
<polyline points="128.0,78.0,168.0,78.0" stroke="black" stroke-width="1" fill="none" />
<polyline points="168.0,0.0,0.0,168.0" stroke="black" stroke-width="1" fill="none" />
<polyline points="0.0,166.0,80.0,166.0" stroke="black" stroke-width="1" fill="none" />
<polyline points="136.0,198.0,0.0,198.0" stroke="black" stroke-width="1" fill="none" />
<polyline points="0.0,200.0,200.0,0.0" stroke="black" stroke-width="1" fill="none" />
<polyline points="192.0,0.0,0.0,192.0" stroke="black" stroke-width="1" fill="none" />
<polyline points="0.0,190.0,80.0,190.0" stroke="black" stroke-width="1" fill="none" />
<polyline points="144.0,222.0,0.0,222.0" stroke="black" stroke-width="1" fill="none" />
<polyline points="0.0,224.0,224.0,0.0" stroke="black" stroke-width="1" fill="none" />
<polyline points="216.0,0.0,0.0,216.0" stroke="black" stroke-width="1" fill="none" />
<polyline points="0.0,214.0,152.0,214.0" stroke="black" stroke-width="1" fill="none" />
<polyline points="200.0,250.0,0.0,250.0" stroke="black" stroke-width="1" fill="none" />
<polyline points="0.0,242.0,200.0,242.0" stroke="black" stroke-width="1" fill="none" />
<polyline points="176.0,234.0,0.0,234.0" stroke="black" stroke-width="1" fill="none" />
<polyline points="0.0,232.0,232.0,0.0" stroke="black" stroke-width="1" fill="none" />
<polyline points="208.0,0.0,0.0,208.0" stroke="black" stroke-width="1" fill="none" />
<polyline points="0.0,206.0,152.0,206.0" stroke="black" stroke-width="1" fill="none" />
<polyline points="152.0,230.0,0.0,230.0" stroke="black" stroke-width="1" fill="none" />
<polyline points="0.0,226.0,168.0,226.0" stroke="black" stroke-width="1" fill="none" />
<polyline points="152.0,218.0,0.0,218.0" stroke="black" stroke-width="1" fill="none" />
<polyline points="0.0,210.0,152.0,210.0" stroke="black" stroke-width="1" fill="none" />
<polyline points="160.0,202.0,0.0,202.0" stroke="black" stroke-width="1" fill="none" />
<polyline points="0.0,194.0,168.0,194.0" stroke="black" stroke-width="1" fill="none" />
<polyline points="136.0,186.0,0.0,186.0" stroke="black" stroke-width="1" fill="none" />
<polyline points="0.0,184.0,184.0,0.0" stroke="black" stroke-width="1" fill="none" />
<polyline points="176.0,0.0,0.0,176.0" stroke="black" stroke-width="1" fill="none" />
<polyline points="0.0,174.0,80.0,174.0" stroke="black" stroke-width="1" fill="none" />
<polyline points="80.0,182.0,0.0,182.0" stroke="black" stroke-width="1" fill="none" />
<polyline points="0.0,178.0,136.0,178.0" stroke="black" stroke-width="1" fill="none" />
<polyline points="152.0,170.0,0.0,170.0" stroke="black" stroke-width="1" fill="none" />
<polyline points="0.0,162.0,152.0,162.0" stroke="black" stroke-width="1" fill="none" />
<polyline points="0.0,160.0,160.0,0.0" stroke="black" stroke-width="1" fill="none" />
<polyline points="152.0,0.0,0.0,152.0" stroke="black" stroke-width="1" fill="none" />
<polyline points="0.0,150.0,104.0,150.0" stroke="black" stroke-width="1" fill="none" />
<polyline points="88.0,158.0,0.0,158.0" stroke="black" stroke-width="1" fill="none" />
<polyline points="0.0,154.0,144.0,154.0" stroke="black" stroke-width="1" fill="none" />
<polyline points="144.0,146.0,0.0,146.0" stroke="black" stroke-width="1" fill="none" />
<polyline points="0.0,144.0,144.0,0.0" stroke="black" stroke-width="1" fill="none" />
<polyline points="136.0,0.0,0.0,136.0" stroke="black" stroke-width="1" fill="none" />
<polyline points="0.0,134.0,144.0,134.0" stroke="black" stroke-width="1" fill="none" />
<polyline points="128.0,0.0,0.0,128.0" stroke="black" stroke-width="1" fill="none" />
<polyline points="0.0,126.0,136.0,126.0" stroke="black" stroke-width="1" fill="none" />
<polyline points="120.0,0.0,0.0,120.0" stroke="black" stroke-width="1" fill="none" />
<polyline points="0.0,118.0,136.0,118.0" stroke="black" stroke-width="1" fill="none" />
<polyline points="112.0,0.0,0.0,112.0" stroke="black" stroke-width="1" fill="none" />
<polyline points="0.0,110.0,144.0,110.0" stroke="black" stroke-width="1" fill="none" />
<polyline points="104.0,0.0,0.0,104.0" stroke="black" stroke-width="1" fill="none" />
<polyline points="0.0,102.0,120.0,102.0" stroke="black" stroke-width="1" fill="none" />
<polyline points="96.0,0.0,0.0,96.0" stroke="black" stroke-width="1" fill="none" />
<polyline points="0.0,94.0,112.0,94.0" stroke="black" stroke-width="1" fill="none" />
<polyline points="88.0,0.0,0.0,88.0" stroke="black" stroke-width="1" fill="none" />
<polyline points="0.0,86.0,112.0,86.0" stroke="black" stroke-width="1" fill="none" />
<polyline points="80.0,0.0,0.0,80.0" stroke="black" stroke-width="1" fill="none" />
<polyline points="0.0,78.0,120.0,78.0" stroke="black" stroke-width="1" fill="none" />
<polyline points="72.0,0.0,0.0,72.0" stroke="black" stroke-width="1" fill="none" />
<polyline points="0.0,70.0,168.0,70.0" stroke="black" stroke-width="1" fill="none" />
<polyline points="64.0,0.0,0.0,64.0" stroke="black" stroke-width="1" fill="none" />
<polyline points="0.0,62.0,176.0,62.0" stroke="black" stroke-width="1" fill="none" />
<polyline points="56.0,0.0,0.0,56.0" stroke="black" stroke-width="1" fill="none" />
<polyline points="0.0,54.0,192.0,54.0" stroke="black" stroke-width="1" fill="none" />
<polyline points="48.0,0.0,0.0,48.0" stroke="black" stroke-width="1" fill="none" />
<polyline points="0.0,46.0,224.0,46.0" stroke="black" stroke-width="1" fill="none" />
<polyline points="40.0,0.0,0.0,40.0" stroke="black" stroke-width="1" fill="none" />
<polyline points="0.0,38.0,328.0,38.0" stroke="black" stroke-width="1" fill="none" />
<polyline points="32.0,0.0,0.0,32.0" stroke="black" stroke-width="1" fill="none" />
<polyline points="0.0,30.0,344.0,30.0" stroke="black" stroke-width="1" fill="none" />
<polyline points="24.0,0.0,0.0,24.0" stroke="black" stroke-width="1" fill="none" />
<polyline points="0.0,22.0,352.0,22.0" stroke="black" stroke-width="1" fill="none" />
<polyline points="16.0,0.0,0.0,16.0" stroke="black" stroke-width="1" fill="none" />
<polyline points="0.0,14.0,272.0,14.0" stroke="black" stroke-width="1" fill="none" />
<polyline points="8.0,0.0,0.0,8.0" stroke="black" stroke-width="1" fill="none" />
<polyline points="0.0,6.0,264.0,6.0" stroke="black" stroke-width="1" fill="none" />
<polyline points="144.0,142.0,0.0,142.0" stroke="black" stroke-width="1" fill="none" />
<polyline points="0.0,138.0,152.0,138.0" stroke="black" stroke-width="1" fill="none" />
<polyline points="152.0,130.0,0.0,130.0" stroke="black" stroke-width="1" fill="none" />
<polyline points="0.0,122.0,144.0,122.0" stroke="black" stroke-width="1" fill="none" />
<polyline points="144.0,114.0,0.0,114.0" stroke="black" stroke-width="1" fill="none" />
<polyline points="0.0,106.0,160.0,106.0" stroke="black" stroke-width="1" fill="none" />
<polyline points="160.0,98.0,0.0,98.0" stroke="black" stroke-width="1" fill="none" />
<polyline points="0.0,90.0,160.0,90.0" stroke="black" stroke-width="1" fill="none" />
<polyline points="168.0,82.0,0.0,82.0" stroke="black" stroke-width="1" fill="none" />
<polyline points="0.0,74.0,168.0,74.0" stroke="black" stroke-width="1" fill="none" />
<polyline points="176.0,66.0,0.0,66.0" stroke="black" stroke-width="1" fill="none" />
<polyline points="0.0,58.0,200.0,58.0" stroke="black" stroke-width="1" fill="none" />
<polyline points="224.0,50.0,0.0,50.0" stroke="black" stroke-width="1" fill="none" />
<polyline points="0.0,42.0,400.0,42.0" stroke="black" stroke-width="1" fill="none" />
<polyline points="504.0,330.0,0.0,330.0" stroke="black" stroke-width="1" fill="none" />
<polyline points="0.0,322.0,512.0,322.0" stroke="black" stroke-width="1" fill="none" />
<polyline points="512.0,314.0,0.0,314.0" stroke="black" stroke-width="1" fill="none" />
<polyline points="0.0,306.0,512.0,306.0" stroke="black" stroke-width="1" fill="none" />
<polyline points="512.0,298.0,0.0,298.0" stroke="black" stroke-width="1" fill="none" />
<polyline points="0.0,290.0,512.0,290.0" stroke="black" stroke-width="1" fill="none" />
<polyline points="512.0,282.0,0.0,282.0" stroke="black" stroke-width="1" fill="none" />
<polyline points="0.0,274.0,512.0,274.0" stroke="black" stroke-width="1" fill="none" />
<polyline points="400.0,34.0,0.0,34.0" stroke="black" stroke-width="1" fill="none" />
<polyline points="0.0,26.0,400.0,26.0" stroke="black" stroke-width="1" fill="none" />
<polyline points="392.0,18.0,0.0,18.0" stroke="black" stroke-width="1" fill="none" />
<polyline points="0.0,10.0,392.0,10.0" stroke="black" stroke-width="1" fill="none" />
</svg>