<svg xmlns="http://www.w3.org/2000/svg" height="536px" width="416px" version="1.1"><polyline points="365.0,38.0,378.0,46.0,383.0,54.0,392.0,62.0,397.0,70.0,402.0,78.0,405.0,86.0,405.0,94.0,406.0,102.0,411.0,110.0,409.0,118.0,409.0,126.0,413.0,134.0,413.0,142.0,409.0,150.0,402.0,158.0,403.0,166.0,401.0,174.0,397.0,182.0,394.0,190.0,394.0,198.0,395.0,206.0,395.0,211.0,403.0,208.0,411.0,204.0" stroke="black" stroke-width="1" fill="none" />
<polyline points="413.0,205.0,399.0,213.0" stroke="black" stroke-width="1" fill="none" />
<polyline points="402.0,208.0,409.0,207.0,401.0,212.0,393.0,215.0,385.0,218.0,377.0,219.0,369.0,224.0,361.0,229.0,353.0,231.0,345.0,233.0,337.0,236.0,329.0,240.0,321.0,247.0" stroke="black" stroke-width="1" fill="none" />
<polyline points="304.0,256.0,296.0,250.0,288.0,247.0" stroke="black" stroke-width="1" fill="none" />
<polyline points="288.0,247.0,302.0,255.0,306.0,263.0,315.0,271.0,317.0,274.0" stroke="black" stroke-width="1" fill="none" />
<polyline points="315.0,277.0,307.0,276.0,299.0,272.0,291.0,267.0" stroke="black" stroke-width="1" fill="none" />
<polyline points="295.0,265.0,297.0,257.0" stroke="black" stroke-width="1" fill="none" />
<polyline points="312.0,270.0,304.0,268.0,296.0,265.0,291.0,261.0,284.0,263.0,276.0,250.0,268.0,248.0,266.0,239.0" stroke="black" stroke-width="1" fill="none" />
<polyline points="266.0,239.0,269.0,247.0,266.0,255.0,263.0,263.0,258.0,271.0,256.0,279.0,254.0,287.0,253.0,295.0,252.0,303.0,251.0,311.0,249.0,319.0,248.0,327.0,247.0,335.0,246.0,343.0,244.0,351.0,243.0,359.0,242.0,367.0,241.0,375.0,240.0,383.0,239.0,391.0,238.0,399.0,237.0,407.0,237.0,415.0,236.0,423.0,235.0,431.0,235.0,439.0,235.0,447.0,234.0,455.0,234.0,463.0,233.0,471.0,232.0,479.0,232.0,487.0,232.0,495.0,231.0,503.0,231.0,511.0,231.0,519.0,231.0,527.0,231.0,530.0" stroke="black" stroke-width="1" fill="none" />
<polyline points="241.0,528.0,242.0,521.0,237.0,529.0,240.0,521.0,240.0,513.0,239.0,505.0,240.0,497.0,240.0,489.0,241.0,481.0,241.0,473.0,242.0,465.0,242.0,457.0,243.0,449.0,243.0,441.0,244.0,433.0,244.0,425.0,245.0,417.0,245.0,409.0,246.0,401.0,247.0,393.0,247.0,385.0,249.0,377.0,249.0,369.0,250.0,361.0,251.0,353.0,252.0,345.0,253.0,337.0,254.0,329.0,255.0,321.0,256.0,313.0,257.0,305.0,258.0,297.0,259.0,289.0,260.0,281.0,255.0,280.0" stroke="black" stroke-width="1" fill="none" />
<polyline points="258.0,271.0,266.0,254.0,271.0,252.0,277.0,251.0,282.0,259.0,290.0,267.0,302.0,275.0" stroke="black" stroke-width="1" fill="none" />
<polyline points="293.0,312.0,308.0,320.0,321.0,328.0,330.0,336.0,338.0,344.0,345.0,352.0,351.0,360.0,350.0,368.0,345.0,376.0,340.0,384.0,327.0,392.0" stroke="black" stroke-width="1" fill="none" />
<polyline points="344.0,349.0,336.0,341.0,328.0,333.0,320.0,327.0,312.0,321.0,304.0,317.0,296.0,313.0,288.0,311.0,280.0,309.0,272.0,308.0,264.0,309.0,256.0,313.0" stroke="black" stroke-width="1" fill="none" />
<polyline points="237.0,319.0,231.0,327.0,227.0,335.0,224.0,343.0,227.0,351.0,225.0,359.0,226.0,363.0,219.0,371.0,219.0,379.0,220.0,387.0,221.0,395.0,222.0,403.0,225.0,411.0,227.0,419.0,227.0,427.0,227.0,435.0" stroke="black" stroke-width="1" fill="none" />
<polyline points="219.0,413.0,211.0,412.0" stroke="black" stroke-width="1" fill="none" />
<polyline points="214.0,411.0,216.0,419.0,216.0,427.0,217.0,435.0,218.0,443.0,219.0,451.0,221.0,459.0,221.0,467.0,222.0,475.0,223.0,483.0,222.0,491.0,220.0,499.0,222.0,507.0,222.0,515.0,221.0,523.0,220.0,531.0" stroke="black" stroke-width="1" fill="none" />
<polyline points="224.0,436.0,223.0,428.0,221.0,420.0,217.0,412.0,218.0,404.0,217.0,396.0,216.0,388.0,215.0,380.0,214.0,372.0,214.0,364.0,220.0,357.0,218.0,349.0,217.0,341.0,216.0,333.0,216.0,325.0,213.0,316.0,210.0,308.0,207.0,300.0,205.0,292.0,201.0,282.0" stroke="black" stroke-width="1" fill="none" />
<polyline points="201.0,282.0,200.0,290.0,203.0,298.0,206.0,306.0,209.0,314.0,212.0,322.0,211.0,329.0,213.0,337.0,214.0,345.0,215.0,353.0" stroke="black" stroke-width="1" fill="none" />
<polyline points="224.0,342.0,232.0,326.0,233.0,320.0" stroke="black" stroke-width="1" fill="none" />
<polyline points="236.0,318.0,228.0,323.0,220.0,324.0,208.0,324.0,200.0,324.0,192.0,317.0,184.0,309.0,176.0,300.0,168.0,293.0,160.0,286.0,152.0,277.0,144.0,265.0,136.0,250.0" stroke="black" stroke-width="1" fill="none" />
<polyline points="129.0,204.0,137.0,187.0,145.0,171.0,153.0,168.0,161.0,171.0,169.0,175.0,177.0,180.0,185.0,186.0,193.0,191.0,201.0,198.0,209.0,205.0,217.0,215.0,225.0,226.0,233.0,238.0,241.0,252.0,249.0,259.0,257.0,239.0" stroke="black" stroke-width="1" fill="none" />
<polyline points="228.0,192.0,220.0,191.0,212.0,184.0,204.0,176.0" stroke="black" stroke-width="1" fill="none" />
<polyline points="207.0,172.0,207.0,180.0,211.0,183.0,215.0,191.0" stroke="black" stroke-width="1" fill="none" />
<polyline points="219.0,167.0,211.0,156.0,203.0,138.0" stroke="black" stroke-width="1" fill="none" />
<polyline points="208.0,127.0,209.0,137.0,217.0,140.0,225.0,140.0" stroke="black" stroke-width="1" fill="none" />
<polyline points="208.0,136.0,207.0,127.0,209.0,125.0,205.0,122.0,197.0,111.0" stroke="black" stroke-width="1" fill="none" />
<polyline points="196.0,102.0,199.0,110.0,205.0,118.0,219.0,126.0" stroke="black" stroke-width="1" fill="none" />
<polyline points="218.0,125.0,210.0,120.0,202.0,114.0,194.0,102.0" stroke="black" stroke-width="1" fill="none" />
<polyline points="194.0,102.0,196.0,110.0,201.0,118.0,201.0,126.0,202.0,134.0,204.0,142.0,207.0,150.0,211.0,158.0,217.0,166.0,225.0,174.0,227.0,182.0,230.0,190.0" stroke="black" stroke-width="1" fill="none" />
<polyline points="201.0,166.0,203.0,174.0,206.0,182.0,206.0,192.0,214.0,200.0,222.0,208.0,230.0,217.0,238.0,223.0,246.0,227.0,254.0,229.0" stroke="black" stroke-width="1" fill="none" />
<polyline points="200.0,290.0,208.0,311.0,216.0,321.0" stroke="black" stroke-width="1" fill="none" />
<polyline points="236.0,327.0,235.0,335.0,234.0,343.0,233.0,351.0,232.0,365.0,232.0,373.0,231.0,381.0,231.0,389.0,230.0,397.0,229.0,405.0,225.0,410.0" stroke="black" stroke-width="1" fill="none" />
<polyline points="250.0,379.0,262.0,387.0,278.0,395.0" stroke="black" stroke-width="1" fill="none" />
<polyline points="250.0,378.0,258.0,384.0,266.0,389.0,274.0,393.0,282.0,396.0,290.0,398.0,298.0,398.0,306.0,398.0,314.0,397.0,322.0,395.0,330.0,391.0,338.0,386.0,346.0,374.0" stroke="black" stroke-width="1" fill="none" />
<polyline points="270.0,357.0,262.0,356.0,254.0,357.0" stroke="black" stroke-width="1" fill="none" />
<polyline points="227.0,363.0,219.0,368.0" stroke="black" stroke-width="1" fill="none" />
<polyline points="227.0,358.0,215.0,358.0,207.0,358.0,199.0,356.0,191.0,354.0,183.0,353.0,175.0,352.0,167.0,350.0" stroke="black" stroke-width="1" fill="none" />
<polyline points="165.0,347.0,173.0,348.0,181.0,349.0,189.0,350.0,197.0,352.0,205.0,352.0" stroke="black" stroke-width="1" fill="none" />
<polyline points="204.0,371.0,196.0,374.0,188.0,373.0,180.0,372.0,172.0,370.0,164.0,368.0,156.0,366.0,148.0,363.0,140.0,361.0,132.0,358.0,124.0,355.0,116.0,351.0,108.0,347.0,100.0,344.0,92.0,342.0,84.0,340.0,76.0,340.0,68.0,341.0" stroke="black" stroke-width="1" fill="none" />
<polyline points="81.0,322.0,70.0,330.0,68.0,338.0,70.0,330.0,78.0,323.0,86.0,321.0,94.0,321.0,102.0,321.0,110.0,320.0,118.0,319.0,126.0,317.0,134.0,316.0,142.0,316.0,150.0,315.0,158.0,315.0,166.0,317.0,174.0,320.0,182.0,324.0,190.0,330.0,198.0,335.0,206.0,341.0" stroke="black" stroke-width="1" fill="none" />
<polyline points="206.0,369.0,210.0,361.0,208.0,350.0,206.0,342.0,195.0,334.0,183.0,326.0,168.0,318.0" stroke="black" stroke-width="1" fill="none" />
<polyline points="162.0,368.0,137.0,360.0,117.0,352.0" stroke="black" stroke-width="1" fill="none" />
<polyline points="243.0,258.0,239.0,250.0,234.0,242.0,230.0,234.0,224.0,226.0,218.0,218.0,212.0,210.0,205.0,202.0,195.0,194.0,184.0,186.0,172.0,178.0,158.0,170.0" stroke="black" stroke-width="1" fill="none" />
<polyline points="151.0,168.0,142.0,176.0,139.0,184.0,134.0,192.0,131.0,200.0,129.0,208.0,128.0,216.0,128.0,224.0,130.0,232.0,131.0,240.0,135.0,248.0,138.0,256.0,143.0,264.0,148.0,272.0,154.0,280.0,161.0,288.0,170.0,296.0,179.0,304.0,186.0,312.0,194.0,320.0" stroke="black" stroke-width="1" fill="none" />
<polyline points="317.0,263.0,309.0,267.0,318.0,262.0,320.0,254.0,322.0,246.0,332.0,238.0,347.0,228.0,365.0,226.0,379.0,218.0" stroke="black" stroke-width="1" fill="none" />
<polyline points="367.0,222.0,359.0,224.0" stroke="black" stroke-width="1" fill="none" />
<polyline points="362.0,180.0,354.0,186.0,354.0,186.0,365.0,178.0" stroke="black" stroke-width="1" fill="none" />
<polyline points="394.0,188.0,402.0,171.0" stroke="black" stroke-width="1" fill="none" />
<polyline points="402.0,158.0,410.0,149.0" stroke="black" stroke-width="1" fill="none" />
<polyline points="398.0,70.0,390.0,59.0,382.0,51.0,374.0,41.0,366.0,38.0,358.0,36.0,350.0,34.0,342.0,33.0,334.0,33.0,326.0,33.0,318.0,35.0,310.0,37.0,302.0,38.0,294.0,43.0,286.0,45.0,278.0,46.0,270.0,51.0,262.0,56.0" stroke="black" stroke-width="1" fill="none" />
<polyline points="279.0,45.0,263.0,53.0,261.0,61.0,259.0,69.0,255.0,77.0,251.0,85.0,252.0,82.0" stroke="black" stroke-width="1" fill="none" />
<polyline points="243.0,83.0,235.0,82.0,227.0,82.0,219.0,90.0" stroke="black" stroke-width="1" fill="none" />
<polyline points="226.0,82.0,219.0,90.0,219.0,98.0,219.0,106.0,221.0,114.0,224.0,122.0,224.0,130.0,226.0,138.0,224.0,147.0,223.0,155.0,223.0,163.0" stroke="black" stroke-width="1" fill="none" />
<polyline points="199.0,166.0,200.0,174.0,202.0,182.0,204.0,190.0,211.0,198.0,219.0,206.0,226.0,214.0,235.0,222.0,254.0,230.0,258.0,238.0,254.0,246.0,251.0,254.0" stroke="black" stroke-width="1" fill="none" />
<polyline points="72.0,330.0,192.0,330.0" stroke="black" stroke-width="1" fill="none" />
<polyline points="192.0,328.0,168.0,352.0" stroke="black" stroke-width="1" fill="none" />
<polyline points="168.0,368.0,200.0,336.0" stroke="black" stroke-width="1" fill="none" />
<polyline points="192.0,336.0,168.0,360.0" stroke="black" stroke-width="1" fill="none" />
<polyline points="176.0,368.0,184.0,360.0" stroke="black" stroke-width="1" fill="none" />
<polyline points="192.0,360.0,184.0,368.0" stroke="black" stroke-width="1" fill="none" />
<polyline points="184.0,370.0,200.0,370.0" stroke="black" stroke-width="1" fill="none" />
<polyline points="200.0,368.0,208.0,360.0" stroke="black" stroke-width="1" fill="none" />
<polyline points="200.0,360.0,192.0,368.0" stroke="black" stroke-width="1" fill="none" />
<polyline points="200.0,352.0,208.0,344.0" stroke="black" stroke-width="1" fill="none" />
<polyline points="200.0,344.0,192.0,352.0" stroke="black" stroke-width="1" fill="none" />
<polyline points="184.0,328.0,160.0,352.0" stroke="black" stroke-width="1" fill="none" />
<polyline points="152.0,362.0,208.0,362.0" stroke="black" stroke-width="1" fill="none" />
<polyline points="216.0,362.0,224.0,362.0" stroke="black" stroke-width="1" fill="none" />
<polyline points="232.0,362.0,352.0,362.0" stroke="black" stroke-width="1" fill="none" />
<polyline points="312.0,394.0,288.0,394.0" stroke="black" stroke-width="1" fill="none" />
<polyline points="264.0,386.0,336.0,386.0" stroke="black" stroke-width="1" fill="none" />
<polyline points="272.0,360.0,256.0,376.0" stroke="black" stroke-width="1" fill="none" />
<polyline points="256.0,378.0,344.0,378.0" stroke="black" stroke-width="1" fill="none" />
<polyline points="264.0,360.0,256.0,368.0" stroke="black" stroke-width="1" fill="none" />
<polyline points="240.0,360.0,232.0,368.0" stroke="black" stroke-width="1" fill="none" />
<polyline points="232.0,370.0,344.0,370.0" stroke="black" stroke-width="1" fill="none" />
<polyline points="312.0,322.0,256.0,322.0" stroke="black" stroke-width="1" fill="none" />
<polyline points="248.0,320.0,232.0,336.0" stroke="black" stroke-width="1" fill="none" />
<polyline points="232.0,330.0,328.0,330.0" stroke="black" stroke-width="1" fill="none" />
<polyline points="312.0,274.0,304.0,274.0" stroke="black" stroke-width="1" fill="none" />
<polyline points="304.0,272.0,320.0,256.0" stroke="black" stroke-width="1" fill="none" />
<polyline points="320.0,248.0,304.0,264.0" stroke="black" stroke-width="1" fill="none" />
<polyline points="304.0,256.0,400.0,160.0" stroke="black" stroke-width="1" fill="none" />
<polyline points="400.0,168.0,336.0,232.0" stroke="black" stroke-width="1" fill="none" />
<polyline points="352.0,224.0,400.0,176.0" stroke="black" stroke-width="1" fill="none" />
<polyline points="392.0,192.0,360.0,224.0" stroke="black" stroke-width="1" fill="none" />
<polyline points="360.0,222.0,368.0,222.0" stroke="black" stroke-width="1" fill="none" />
<polyline points="368.0,224.0,392.0,200.0" stroke="black" stroke-width="1" fill="none" />
<polyline points="392.0,208.0,384.0,216.0" stroke="black" stroke-width="1" fill="none" />
<polyline points="392.0,214.0,360.0,214.0" stroke="black" stroke-width="1" fill="none" />
<polyline points="360.0,198.0,392.0,198.0" stroke="black" stroke-width="1" fill="none" />
<polyline points="392.0,190.0,368.0,190.0" stroke="black" stroke-width="1" fill="none" />
<polyline points="368.0,182.0,392.0,182.0" stroke="black" stroke-width="1" fill="none" />
<polyline points="408.0,136.0,288.0,256.0" stroke="black" stroke-width="1" fill="none" />
<polyline points="288.0,264.0,416.0,136.0" stroke="black" stroke-width="1" fill="none" />
<polyline points="408.0,128.0,280.0,256.0" stroke="black" stroke-width="1" fill="none" />
<polyline points="280.0,258.0,320.0,258.0" stroke="black" stroke-width="1" fill="none" />
<polyline points="320.0,254.0,304.0,254.0" stroke="black" stroke-width="1" fill="none" />
<polyline points="296.0,266.0,320.0,266.0" stroke="black" stroke-width="1" fill="none" />
<polyline points="280.0,248.0,408.0,120.0" stroke="black" stroke-width="1" fill="none" />
<polyline points="408.0,112.0,272.0,248.0" stroke="black" stroke-width="1" fill="none" />
<polyline points="272.0,250.0,320.0,250.0" stroke="black" stroke-width="1" fill="none" />
<polyline points="320.0,246.0,280.0,246.0" stroke="black" stroke-width="1" fill="none" />
<polyline points="264.0,238.0,320.0,238.0" stroke="black" stroke-width="1" fill="none" />
<polyline points="264.0,232.0,400.0,96.0" stroke="black" stroke-width="1" fill="none" />
<polyline points="400.0,88.0,256.0,232.0" stroke="black" stroke-width="1" fill="none" />
<polyline points="256.0,230.0,336.0,230.0" stroke="black" stroke-width="1" fill="none" />
<polyline points="264.0,250.0,256.0,250.0" stroke="black" stroke-width="1" fill="none" />
<polyline points="256.0,256.0,408.0,104.0" stroke="black" stroke-width="1" fill="none" />
<polyline points="408.0,96.0,256.0,248.0" stroke="black" stroke-width="1" fill="none" />
<polyline points="256.0,242.0,328.0,242.0" stroke="black" stroke-width="1" fill="none" />
<polyline points="336.0,234.0,256.0,234.0" stroke="black" stroke-width="1" fill="none" />
<polyline points="256.0,224.0,400.0,80.0" stroke="black" stroke-width="1" fill="none" />
<polyline points="400.0,72.0,248.0,224.0" stroke="black" stroke-width="1" fill="none" />
<polyline points="248.0,226.0,360.0,226.0" stroke="black" stroke-width="1" fill="none" />
<polyline points="256.0,264.0,216.0,304.0" stroke="black" stroke-width="1" fill="none" />
<polyline points="216.0,312.0,256.0,272.0" stroke="black" stroke-width="1" fill="none" />
<polyline points="256.0,280.0,216.0,320.0" stroke="black" stroke-width="1" fill="none" />
<polyline points="224.0,320.0,248.0,296.0" stroke="black" stroke-width="1" fill="none" />
<polyline points="248.0,304.0,232.0,320.0" stroke="black" stroke-width="1" fill="none" />
<polyline points="232.0,322.0,248.0,322.0" stroke="black" stroke-width="1" fill="none" />
<polyline points="248.0,328.0,232.0,344.0" stroke="black" stroke-width="1" fill="none" />
<polyline points="240.0,344.0,232.0,352.0" stroke="black" stroke-width="1" fill="none" />
<polyline points="232.0,354.0,344.0,354.0" stroke="black" stroke-width="1" fill="none" />
<polyline points="240.0,352.0,232.0,360.0" stroke="black" stroke-width="1" fill="none" />
<polyline points="224.0,346.0,344.0,346.0" stroke="black" stroke-width="1" fill="none" />
<polyline points="248.0,312.0,240.0,320.0" stroke="black" stroke-width="1" fill="none" />
<polyline points="232.0,318.0,224.0,318.0" stroke="black" stroke-width="1" fill="none" />
<polyline points="208.0,312.0,200.0,320.0" stroke="black" stroke-width="1" fill="none" />
<polyline points="200.0,322.0,224.0,322.0" stroke="black" stroke-width="1" fill="none" />
<polyline points="224.0,338.0,336.0,338.0" stroke="black" stroke-width="1" fill="none" />
<polyline points="240.0,384.0,232.0,392.0" stroke="black" stroke-width="1" fill="none" />
<polyline points="232.0,394.0,240.0,394.0" stroke="black" stroke-width="1" fill="none" />
<polyline points="240.0,392.0,232.0,400.0" stroke="black" stroke-width="1" fill="none" />
<polyline points="232.0,402.0,240.0,402.0" stroke="black" stroke-width="1" fill="none" />
<polyline points="240.0,400.0,232.0,408.0" stroke="black" stroke-width="1" fill="none" />
<polyline points="240.0,408.0,232.0,416.0" stroke="black" stroke-width="1" fill="none" />
<polyline points="224.0,410.0,240.0,410.0" stroke="black" stroke-width="1" fill="none" />
<polyline points="232.0,432.0,224.0,440.0" stroke="black" stroke-width="1" fill="none" />
<polyline points="224.0,446.0,232.0,446.0" stroke="black" stroke-width="1" fill="none" />
<polyline points="232.0,448.0,224.0,456.0" stroke="black" stroke-width="1" fill="none" />
<polyline points="224.0,454.0,232.0,454.0" stroke="black" stroke-width="1" fill="none" />
<polyline points="232.0,456.0,224.0,464.0" stroke="black" stroke-width="1" fill="none" />
<polyline points="224.0,466.0,240.0,466.0" stroke="black" stroke-width="1" fill="none" />
<polyline points="232.0,464.0,224.0,472.0" stroke="black" stroke-width="1" fill="none" />
<polyline points="224.0,470.0,232.0,470.0" stroke="black" stroke-width="1" fill="none" />
<polyline points="232.0,472.0,224.0,480.0" stroke="black" stroke-width="1" fill="none" />
<polyline points="224.0,482.0,240.0,482.0" stroke="black" stroke-width="1" fill="none" />
<polyline points="232.0,480.0,224.0,488.0" stroke="black" stroke-width="1" fill="none" />
<polyline points="224.0,490.0,240.0,490.0" stroke="black" stroke-width="1" fill="none" />
<polyline points="232.0,488.0,224.0,496.0" stroke="black" stroke-width="1" fill="none" />
<polyline points="224.0,498.0,240.0,498.0" stroke="black" stroke-width="1" fill="none" />
<polyline points="232.0,496.0,224.0,504.0" stroke="black" stroke-width="1" fill="none" />
<polyline points="224.0,506.0,240.0,506.0" stroke="black" stroke-width="1" fill="none" />
<polyline points="232.0,504.0,224.0,512.0" stroke="black" stroke-width="1" fill="none" />
<polyline points="224.0,514.0,240.0,514.0" stroke="black" stroke-width="1" fill="none" />
<polyline points="232.0,512.0,224.0,520.0" stroke="black" stroke-width="1" fill="none" />
<polyline points="224.0,522.0,240.0,522.0" stroke="black" stroke-width="1" fill="none" />
<polyline points="232.0,520.0,224.0,528.0" stroke="black" stroke-width="1" fill="none" />
<polyline points="224.0,530.0,240.0,530.0" stroke="black" stroke-width="1" fill="none" />
<polyline points="232.0,528.0,224.0,536.0" stroke="black" stroke-width="1" fill="none" />
<polyline points="224.0,474.0,240.0,474.0" stroke="black" stroke-width="1" fill="none" />
<polyline points="240.0,458.0,224.0,458.0" stroke="black" stroke-width="1" fill="none" />
<polyline points="224.0,448.0,232.0,440.0" stroke="black" stroke-width="1" fill="none" />
<polyline points="240.0,450.0,216.0,450.0" stroke="black" stroke-width="1" fill="none" />
<polyline points="216.0,442.0,240.0,442.0" stroke="black" stroke-width="1" fill="none" />
<polyline points="240.0,434.0,216.0,434.0" stroke="black" stroke-width="1" fill="none" />
<polyline points="216.0,426.0,240.0,426.0" stroke="black" stroke-width="1" fill="none" />
<polyline points="240.0,418.0,216.0,418.0" stroke="black" stroke-width="1" fill="none" />
<polyline points="232.0,386.0,240.0,386.0" stroke="black" stroke-width="1" fill="none" />
<polyline points="240.0,378.0,232.0,378.0" stroke="black" stroke-width="1" fill="none" />
<polyline points="192.0,320.0,200.0,312.0" stroke="black" stroke-width="1" fill="none" />
<polyline points="200.0,304.0,192.0,312.0" stroke="black" stroke-width="1" fill="none" />
<polyline points="192.0,314.0,304.0,314.0" stroke="black" stroke-width="1" fill="none" />
<polyline points="248.0,264.0,208.0,304.0" stroke="black" stroke-width="1" fill="none" />
<polyline points="208.0,296.0,240.0,264.0" stroke="black" stroke-width="1" fill="none" />
<polyline points="240.0,256.0,224.0,272.0" stroke="black" stroke-width="1" fill="none" />
<polyline points="224.0,264.0,232.0,256.0" stroke="black" stroke-width="1" fill="none" />
<polyline points="232.0,248.0,216.0,264.0" stroke="black" stroke-width="1" fill="none" />
<polyline points="208.0,264.0,200.0,272.0" stroke="black" stroke-width="1" fill="none" />
<polyline points="192.0,272.0,168.0,296.0" stroke="black" stroke-width="1" fill="none" />
<polyline points="168.0,290.0,256.0,290.0" stroke="black" stroke-width="1" fill="none" />
<polyline points="216.0,280.0,208.0,288.0" stroke="black" stroke-width="1" fill="none" />
<polyline points="200.0,288.0,184.0,304.0" stroke="black" stroke-width="1" fill="none" />
<polyline points="184.0,306.0,256.0,306.0" stroke="black" stroke-width="1" fill="none" />
<polyline points="200.0,296.0,184.0,312.0" stroke="black" stroke-width="1" fill="none" />
<polyline points="176.0,320.0,136.0,360.0" stroke="black" stroke-width="1" fill="none" />
<polyline points="144.0,360.0,176.0,328.0" stroke="black" stroke-width="1" fill="none" />
<polyline points="168.0,334.0,184.0,334.0" stroke="black" stroke-width="1" fill="none" />
<polyline points="168.0,320.0,144.0,344.0" stroke="black" stroke-width="1" fill="none" />
<polyline points="136.0,344.0,160.0,320.0" stroke="black" stroke-width="1" fill="none" />
<polyline points="152.0,320.0,120.0,352.0" stroke="black" stroke-width="1" fill="none" />
<polyline points="120.0,344.0,112.0,352.0" stroke="black" stroke-width="1" fill="none" />
<polyline points="104.0,346.0,208.0,346.0" stroke="black" stroke-width="1" fill="none" />
<polyline points="184.0,296.0,192.0,288.0" stroke="black" stroke-width="1" fill="none" />
<polyline points="192.0,280.0,176.0,296.0" stroke="black" stroke-width="1" fill="none" />
<polyline points="176.0,298.0,256.0,298.0" stroke="black" stroke-width="1" fill="none" />
<polyline points="208.0,272.0,200.0,280.0" stroke="black" stroke-width="1" fill="none" />
<polyline points="192.0,264.0,168.0,288.0" stroke="black" stroke-width="1" fill="none" />
<polyline points="160.0,288.0,184.0,264.0" stroke="black" stroke-width="1" fill="none" />
<polyline points="176.0,256.0,152.0,280.0" stroke="black" stroke-width="1" fill="none" />
<polyline points="152.0,274.0,256.0,274.0" stroke="black" stroke-width="1" fill="none" />
<polyline points="224.0,248.0,216.0,256.0" stroke="black" stroke-width="1" fill="none" />
<polyline points="216.0,248.0,208.0,256.0" stroke="black" stroke-width="1" fill="none" />
<polyline points="200.0,256.0,224.0,232.0" stroke="black" stroke-width="1" fill="none" />
<polyline points="216.0,232.0,192.0,256.0" stroke="black" stroke-width="1" fill="none" />
<polyline points="216.0,224.0,160.0,280.0" stroke="black" stroke-width="1" fill="none" />
<polyline points="160.0,282.0,256.0,282.0" stroke="black" stroke-width="1" fill="none" />
<polyline points="240.0,224.0,392.0,72.0" stroke="black" stroke-width="1" fill="none" />
<polyline points="392.0,64.0,232.0,224.0" stroke="black" stroke-width="1" fill="none" />
<polyline points="232.0,218.0,376.0,218.0" stroke="black" stroke-width="1" fill="none" />
<polyline points="400.0,86.0,256.0,86.0" stroke="black" stroke-width="1" fill="none" />
<polyline points="256.0,80.0,288.0,48.0" stroke="black" stroke-width="1" fill="none" />
<polyline points="288.0,42.0,376.0,42.0" stroke="black" stroke-width="1" fill="none" />
<polyline points="376.0,40.0,232.0,184.0" stroke="black" stroke-width="1" fill="none" />
<polyline points="232.0,182.0,360.0,182.0" stroke="black" stroke-width="1" fill="none" />
<polyline points="384.0,64.0,232.0,216.0" stroke="black" stroke-width="1" fill="none" />
<polyline points="232.0,214.0,352.0,214.0" stroke="black" stroke-width="1" fill="none" />
<polyline points="344.0,222.0,240.0,222.0" stroke="black" stroke-width="1" fill="none" />
<polyline points="224.0,216.0,384.0,56.0" stroke="black" stroke-width="1" fill="none" />
<polyline points="384.0,48.0,224.0,208.0" stroke="black" stroke-width="1" fill="none" />
<polyline points="224.0,206.0,392.0,206.0" stroke="black" stroke-width="1" fill="none" />
<polyline points="376.0,48.0,224.0,200.0" stroke="black" stroke-width="1" fill="none" />
<polyline points="224.0,192.0,216.0,200.0" stroke="black" stroke-width="1" fill="none" />
<polyline points="216.0,198.0,224.0,198.0" stroke="black" stroke-width="1" fill="none" />
<polyline points="232.0,198.0,344.0,198.0" stroke="black" stroke-width="1" fill="none" />
<polyline points="352.0,190.0,232.0,190.0" stroke="black" stroke-width="1" fill="none" />
<polyline points="232.0,186.0,392.0,186.0" stroke="black" stroke-width="1" fill="none" />
<polyline points="368.0,40.0,232.0,176.0" stroke="black" stroke-width="1" fill="none" />
<polyline points="232.0,174.0,400.0,174.0" stroke="black" stroke-width="1" fill="none" />
<polyline points="360.0,40.0,224.0,176.0" stroke="black" stroke-width="1" fill="none" />
<polyline points="224.0,178.0,400.0,178.0" stroke="black" stroke-width="1" fill="none" />
<polyline points="352.0,40.0,224.0,168.0" stroke="black" stroke-width="1" fill="none" />
<polyline points="224.0,166.0,400.0,166.0" stroke="black" stroke-width="1" fill="none" />
<polyline points="344.0,40.0,224.0,160.0" stroke="black" stroke-width="1" fill="none" />
<polyline points="224.0,158.0,400.0,158.0" stroke="black" stroke-width="1" fill="none" />
<polyline points="344.0,32.0,216.0,160.0" stroke="black" stroke-width="1" fill="none" />
<polyline points="216.0,162.0,400.0,162.0" stroke="black" stroke-width="1" fill="none" />
<polyline points="336.0,32.0,216.0,152.0" stroke="black" stroke-width="1" fill="none" />
<polyline points="208.0,154.0,408.0,154.0" stroke="black" stroke-width="1" fill="none" />
<polyline points="320.0,40.0,224.0,136.0" stroke="black" stroke-width="1" fill="none" />
<polyline points="224.0,130.0,416.0,130.0" stroke="black" stroke-width="1" fill="none" />
<polyline points="312.0,40.0,224.0,128.0" stroke="black" stroke-width="1" fill="none" />
<polyline points="224.0,122.0,408.0,122.0" stroke="black" stroke-width="1" fill="none" />
<polyline points="360.0,34.0,312.0,34.0" stroke="black" stroke-width="1" fill="none" />
<polyline points="304.0,40.0,224.0,120.0" stroke="black" stroke-width="1" fill="none" />
<polyline points="224.0,118.0,408.0,118.0" stroke="black" stroke-width="1" fill="none" />
<polyline points="368.0,46.0,304.0,46.0" stroke="black" stroke-width="1" fill="none" />
<polyline points="280.0,48.0,264.0,64.0" stroke="black" stroke-width="1" fill="none" />
<polyline points="264.0,62.0,384.0,62.0" stroke="black" stroke-width="1" fill="none" />
<polyline points="376.0,54.0,280.0,54.0" stroke="black" stroke-width="1" fill="none" />
<polyline points="264.0,50.0,384.0,50.0" stroke="black" stroke-width="1" fill="none" />
<polyline points="400.0,78.0,264.0,78.0" stroke="black" stroke-width="1" fill="none" />
<polyline points="264.0,70.0,392.0,70.0" stroke="black" stroke-width="1" fill="none" />
<polyline points="392.0,58.0,264.0,58.0" stroke="black" stroke-width="1" fill="none" />
<polyline points="256.0,66.0,400.0,66.0" stroke="black" stroke-width="1" fill="none" />
<polyline points="400.0,74.0,256.0,74.0" stroke="black" stroke-width="1" fill="none" />
<polyline points="248.0,88.0,224.0,112.0" stroke="black" stroke-width="1" fill="none" />
<polyline points="224.0,110.0,408.0,110.0" stroke="black" stroke-width="1" fill="none" />
<polyline points="240.0,88.0,224.0,104.0" stroke="black" stroke-width="1" fill="none" />
<polyline points="224.0,102.0,400.0,102.0" stroke="black" stroke-width="1" fill="none" />
<polyline points="232.0,88.0,224.0,96.0" stroke="black" stroke-width="1" fill="none" />
<polyline points="224.0,94.0,400.0,94.0" stroke="black" stroke-width="1" fill="none" />
<polyline points="408.0,142.0,232.0,142.0" stroke="black" stroke-width="1" fill="none" />
<polyline points="232.0,134.0,408.0,134.0" stroke="black" stroke-width="1" fill="none" />
<polyline points="408.0,126.0,232.0,126.0" stroke="black" stroke-width="1" fill="none" />
<polyline points="224.0,114.0,408.0,114.0" stroke="black" stroke-width="1" fill="none" />
<polyline points="400.0,210.0,224.0,210.0" stroke="black" stroke-width="1" fill="none" />
<polyline points="216.0,216.0,184.0,248.0" stroke="black" stroke-width="1" fill="none" />
<polyline points="152.0,264.0,208.0,208.0" stroke="black" stroke-width="1" fill="none" />
<polyline points="200.0,208.0,144.0,264.0" stroke="black" stroke-width="1" fill="none" />
<polyline points="144.0,266.0,264.0,266.0" stroke="black" stroke-width="1" fill="none" />
<polyline points="208.0,216.0,152.0,272.0" stroke="black" stroke-width="1" fill="none" />
<polyline points="144.0,258.0,264.0,258.0" stroke="black" stroke-width="1" fill="none" />
<polyline points="216.0,202.0,392.0,202.0" stroke="black" stroke-width="1" fill="none" />
<polyline points="400.0,170.0,224.0,170.0" stroke="black" stroke-width="1" fill="none" />
<polyline points="224.0,150.0,408.0,150.0" stroke="black" stroke-width="1" fill="none" />
<polyline points="408.0,82.0,224.0,82.0" stroke="black" stroke-width="1" fill="none" />
<polyline points="216.0,90.0,408.0,90.0" stroke="black" stroke-width="1" fill="none" />
<polyline points="408.0,106.0,216.0,106.0" stroke="black" stroke-width="1" fill="none" />
<polyline points="216.0,98.0,408.0,98.0" stroke="black" stroke-width="1" fill="none" />
<polyline points="392.0,194.0,208.0,194.0" stroke="black" stroke-width="1" fill="none" />
<polyline points="200.0,200.0,144.0,256.0" stroke="black" stroke-width="1" fill="none" />
<polyline points="136.0,256.0,192.0,200.0" stroke="black" stroke-width="1" fill="none" />
<polyline points="192.0,192.0,136.0,248.0" stroke="black" stroke-width="1" fill="none" />
<polyline points="136.0,250.0,240.0,250.0" stroke="black" stroke-width="1" fill="none" />
<polyline points="216.0,186.0,200.0,186.0" stroke="black" stroke-width="1" fill="none" />
<polyline points="200.0,178.0,208.0,178.0" stroke="black" stroke-width="1" fill="none" />
<polyline points="184.0,184.0,136.0,232.0" stroke="black" stroke-width="1" fill="none" />
<polyline points="128.0,232.0,176.0,184.0" stroke="black" stroke-width="1" fill="none" />
<polyline points="168.0,184.0,128.0,224.0" stroke="black" stroke-width="1" fill="none" />
<polyline points="128.0,226.0,224.0,226.0" stroke="black" stroke-width="1" fill="none" />
<polyline points="184.0,192.0,168.0,208.0" stroke="black" stroke-width="1" fill="none" />
<polyline points="160.0,216.0,136.0,240.0" stroke="black" stroke-width="1" fill="none" />
<polyline points="136.0,242.0,232.0,242.0" stroke="black" stroke-width="1" fill="none" />
<polyline points="168.0,176.0,128.0,216.0" stroke="black" stroke-width="1" fill="none" />
<polyline points="128.0,218.0,216.0,218.0" stroke="black" stroke-width="1" fill="none" />
<polyline points="160.0,176.0,136.0,200.0" stroke="black" stroke-width="1" fill="none" />
<polyline points="136.0,198.0,144.0,198.0" stroke="black" stroke-width="1" fill="none" />
<polyline points="144.0,190.0,152.0,190.0" stroke="black" stroke-width="1" fill="none" />
<polyline points="144.0,184.0,152.0,176.0" stroke="black" stroke-width="1" fill="none" />
<polyline points="144.0,178.0,176.0,178.0" stroke="black" stroke-width="1" fill="none" />
<polyline points="160.0,170.0,144.0,170.0" stroke="black" stroke-width="1" fill="none" />
<polyline points="136.0,186.0,184.0,186.0" stroke="black" stroke-width="1" fill="none" />
<polyline points="208.0,146.0,408.0,146.0" stroke="black" stroke-width="1" fill="none" />
<polyline points="416.0,138.0,208.0,138.0" stroke="black" stroke-width="1" fill="none" />
<polyline points="200.0,194.0,136.0,194.0" stroke="black" stroke-width="1" fill="none" />
<polyline points="128.0,202.0,208.0,202.0" stroke="black" stroke-width="1" fill="none" />
<polyline points="144.0,206.0,136.0,206.0" stroke="black" stroke-width="1" fill="none" />
<polyline points="128.0,210.0,216.0,210.0" stroke="black" stroke-width="1" fill="none" />
<polyline points="232.0,234.0,128.0,234.0" stroke="black" stroke-width="1" fill="none" />
<polyline points="136.0,314.0,160.0,314.0" stroke="black" stroke-width="1" fill="none" />
<polyline points="144.0,320.0,128.0,336.0" stroke="black" stroke-width="1" fill="none" />
<polyline points="120.0,336.0,136.0,320.0" stroke="black" stroke-width="1" fill="none" />
<polyline points="128.0,320.0,104.0,344.0" stroke="black" stroke-width="1" fill="none" />
<polyline points="104.0,336.0,96.0,344.0" stroke="black" stroke-width="1" fill="none" />
<polyline points="88.0,336.0,96.0,328.0" stroke="black" stroke-width="1" fill="none" />
<polyline points="88.0,328.0,80.0,336.0" stroke="black" stroke-width="1" fill="none" />
<polyline points="80.0,328.0,72.0,336.0" stroke="black" stroke-width="1" fill="none" />
<polyline points="72.0,334.0,80.0,334.0" stroke="black" stroke-width="1" fill="none" />
<polyline points="72.0,338.0,200.0,338.0" stroke="black" stroke-width="1" fill="none" />
<polyline points="208.0,354.0,128.0,354.0" stroke="black" stroke-width="1" fill="none" />
<polyline points="120.0,326.0,168.0,326.0" stroke="black" stroke-width="1" fill="none" />
<polyline points="120.0,320.0,112.0,328.0" stroke="black" stroke-width="1" fill="none" />
<polyline points="80.0,322.0,184.0,322.0" stroke="black" stroke-width="1" fill="none" />
</svg>