<svg xmlns="http://www.w3.org/2000/svg" height="771px" width="510px" version="1.1"><polyline points="260.0,67.75,263.75,69.75,265.25,71.75,267.0,73.75,268.25,75.75,269.75,77.75,270.75,79.75,272.0,81.75,273.25,83.75,274.5,85.75,275.75,87.75,277.0,89.75,278.25,91.75,279.75,93.75,280.75,95.75,282.25,97.75" stroke="black" stroke-width="1" fill="none" />
<polyline points="296.0,96.5,298.0,94.5" stroke="black" stroke-width="1" fill="none" />
<polyline points="298.5,94.5,300.25,96.5,300.0,98.5,300.25,100.5" stroke="black" stroke-width="1" fill="none" />
<polyline points="300.0,99.75,302.0,101.25,304.0,100.0,306.0,99.0,308.0,98.25,310.0,98.25,312.0,98.5,314.0,99.25,316.0,101.25,318.0,104.25,320.0,106.25,322.0,108.75,324.0,110.75,326.0,112.75,328.0,113.0,330.0,114.25,332.0,116.0,334.0,118.25,336.0,120.5,338.0,122.25,340.0,122.5,342.0,124.5,344.0,126.5,346.0,130.0,348.0,133.0,350.0,136.25,352.0,140.0" stroke="black" stroke-width="1" fill="none" />
<polyline points="368.0,166.0,369.0,168.0,369.25,170.0,369.25,172.0,368.0,174.0,365.5,176.0,360.5,178.0,358.25,180.0,358.75,182.0,360.75,184.0" stroke="black" stroke-width="1" fill="none" />
<polyline points="363.0,184.25,366.0,186.25,367.75,188.25,369.25,190.25,371.0,192.25,373.0,194.25,373.0,195.25,375.0,195.5,377.0,195.5,379.0,195.5,381.0,196.0,383.0,196.5,385.0,196.75,387.0,197.5,389.0,198.25" stroke="black" stroke-width="1" fill="none" />
<polyline points="375.0,211.25,378.0,209.25,379.5,207.25,382.5,205.25,385.75,203.25,387.75,201.25,390.0,199.25,389.25,199.75,387.25,201.75,385.25,203.5,383.25,205.0,381.25,206.25,379.25,207.5,377.25,210.0,375.25,211.0,373.25,212.0,371.25,212.25,369.25,212.75,367.25,214.0" stroke="black" stroke-width="1" fill="none" />
<polyline points="369.0,212.5,367.25,214.5,367.0,216.5,366.25,218.5,365.25,220.5,364.0,222.5,363.25,224.5,362.5,226.5,362.25,228.5,361.5,230.5,361.5,232.5,361.5,234.5,361.5,236.5,361.5,238.5,362.5,240.5,366.75,242.5,368.75,244.5,370.25,246.5,371.5,248.5,372.75,250.5,373.5,252.5,374.0,254.5,374.0,256.5,374.0,258.5,374.0,260.5,374.0,262.5,374.0,264.5,374.0,266.5,375.0,268.5,374.0,270.5,374.0,272.5,374.0,274.5,373.5,276.5,373.0,278.5,373.0,280.5,373.25,282.5,375.0,284.5,375.25,286.5,374.75,288.5,374.0,290.5,372.75,292.5,371.5,294.5,371.75,296.5,373.0,298.5,372.25,300.5,370.75,302.5,369.0,304.5,367.5,306.5,367.5,308.5,368.25,310.5,366.75,312.5,365.25,314.5,363.25,316.5,361.5,318.5,360.5,320.5,361.25,322.5,360.25,324.5,358.0,326.5,355.75,328.5,355.75,330.5,355.25,332.5,353.25,334.5,351.25,336.5,350.75,338.5,350.75,340.5,349.25,342.5,347.0,344.5,344.25,346.5,344.25,348.5,343.75,350.5,339.5,352.5,337.5,354.5,337.5,356.5" stroke="black" stroke-width="1" fill="none" />
<polyline points="337.5,354.0,339.5,352.5,341.5,351.75,343.5,350.75" stroke="black" stroke-width="1" fill="none" />
<polyline points="344.25,346.25,346.25,345.0,348.25,343.25,350.25,342.0" stroke="black" stroke-width="1" fill="none" />
<polyline points="350.75,337.25,352.75,335.0,354.75,333.0" stroke="black" stroke-width="1" fill="none" />
<polyline points="355.75,328.5,357.75,326.75,359.75,325.0" stroke="black" stroke-width="1" fill="none" />
<polyline points="360.5,319.5,362.5,317.25,364.5,315.25,366.5,312.75" stroke="black" stroke-width="1" fill="none" />
<polyline points="367.25,307.0,369.25,304.0,371.25,301.75" stroke="black" stroke-width="1" fill="none" />
<polyline points="371.25,295.0,373.25,291.75" stroke="black" stroke-width="1" fill="none" />
<polyline points="375.25,284.5,373.25,282.5" stroke="black" stroke-width="1" fill="none" />
<polyline points="373.75,252.75,371.75,248.5,369.75,245.75,367.75,243.0,365.75,241.75,363.75,241.25,361.75,239.0" stroke="black" stroke-width="1" fill="none" />
<polyline points="363.5,223.5,365.5,220.0" stroke="black" stroke-width="1" fill="none" />
<polyline points="372.5,193.25,370.5,191.5,368.5,189.0,366.5,186.5,364.5,185.0,362.5,184.25,360.5,183.5,358.5,181.25" stroke="black" stroke-width="1" fill="none" />
<polyline points="357.75,181.0,358.75,179.5,360.75,178.0,362.75,177.0,364.75,176.25,366.75,175.25,368.75,172.75" stroke="black" stroke-width="1" fill="none" />
<polyline points="367.5,165.75,365.5,165.5,363.5,165.0,361.5,164.75,359.5,164.75,357.5,164.75,356.25,164.5,355.75,162.5,355.75,160.5,355.0,158.5,354.75,156.5,354.75,154.5,354.25,152.5,353.75,150.5,353.75,148.5,353.0,146.5,352.75,144.5,352.0,142.5,352.0,140.5,351.0,138.5,350.0,136.5,348.75,134.5,347.5,132.5,346.0,130.5,345.0,128.5,343.75,126.5,341.75,124.5,339.5,122.5,335.75,120.5,334.0,118.5,332.25,116.5,330.0,114.5,325.0,112.5,323.75,110.5,321.75,108.5,320.0,106.5,318.25,104.5,316.75,102.5,315.0,100.5,312.0,98.5" stroke="black" stroke-width="1" fill="none" />
<polyline points="300.5,96.5,298.5,94.5,296.25,96.5,294.25,97.25,292.25,97.25,290.25,98.0,288.25,98.25,286.25,99.0,284.25,99.25,282.25,97.5,280.25,94.25,278.25,91.5,276.25,88.0,274.25,85.0,272.25,81.75,270.25,78.5,268.25,75.5,266.25,72.75,264.25,70.25,262.25,69.25,260.25,68.0,258.0,68.0,256.0,69.25,254.0,69.75,252.0,72.0,250.0,73.75,248.0,75.0,246.0,76.0,244.0,78.25,242.0,81.5,240.0,84.25,238.0,86.0,236.0,85.75,234.0,85.5,232.0,83.75,230.0,84.0,228.0,85.5,226.0,86.5,224.0,88.0,222.0,89.5,220.0,90.5,218.0,90.25,216.0,90.5,214.0,90.5,212.0,90.75,210.0,91.25,208.0,91.5,206.0,92.25,204.0,92.5,202.0,93.5,200.0,94.25,198.0,95.25,196.0,96.25,194.0,97.5,192.0,99.0,190.0,100.5,187.75,101.5,185.75,103.75,183.75,105.25,181.75,106.0,179.75,106.0,177.75,105.75,175.75,106.0,173.75,107.0,171.75,108.75,169.75,109.75,167.75,110.5,165.75,111.0,163.75,112.25,161.75,111.75,159.75,110.5,157.75,109.0,155.75,109.0,153.75,108.75,151.75,108.0,149.75,107.75,147.75,108.0,145.75,108.75,143.75,109.0,141.75,110.0,139.75,111.0,137.75,112.25,135.75,114.0,133.75,115.75,131.75,118.25,129.75,121.0,127.75,123.75,125.75,126.5,123.75,129.0,121.75,131.75,119.75,134.0,117.75,136.75,115.75,139.0,113.75,141.5,111.75,143.75,109.75,146.25,107.75,148.75,105.75,151.25,103.75,154.5,101.75,156.0,99.75,157.0" stroke="black" stroke-width="1" fill="none" />
<polyline points="100.25,161.0,98.25,162.75,96.25,164.0" stroke="black" stroke-width="1" fill="none" />
<polyline points="98.5,193.0,100.5,196.5,102.5,199.25,104.5,200.75,106.5,202.5,108.5,205.0" stroke="black" stroke-width="1" fill="none" />
<polyline points="107.75,208.0,105.75,210.25,103.75,212.5,101.75,214.5,99.75,217.0,97.75,220.5,95.75,223.5,93.75,226.0,91.75,228.5,89.75,232.0,87.75,236.5" stroke="black" stroke-width="1" fill="none" />
<polyline points="90.75,257.25,92.75,260.0,94.75,261.5,96.75,263.0,98.75,265.75,100.75,267.75,102.75,268.75,104.75,269.75,106.75,270.0,108.75,271.75,110.75,273.75,112.75,275.0,114.75,276.25,116.75,277.0,118.75,278.0,120.75,278.75,122.75,280.25,124.75,281.75,126.75,283.25,128.75,284.25,130.75,284.75,132.75,286.0,134.75,287.0,136.75,287.25,138.75,288.0,140.75,288.0,142.75,288.25,144.75,289.0,146.75,289.0,148.75,289.25,150.75,289.75,152.75,289.25,154.75,290.0,156.75,289.25,158.75,289.0,160.75,289.0,162.75,288.25,164.75,288.25,166.75,288.0,168.75,289.0,170.75,290.25,172.75,291.25,174.75,292.0,176.75,292.5,178.75,293.25,180.75,294.0,182.75,295.0,184.75,296.0,186.75,296.75,188.75,297.25,190.75,298.5,192.75,299.75,194.75,301.0,196.75,302.5,198.75,303.75,200.75,305.0,202.75,306.25,204.75,307.75,206.75,309.0,208.75,310.25,210.75,312.25,212.75,313.75" stroke="black" stroke-width="1" fill="none" />
<polyline points="249.75,316.25,251.75,314.25,253.75,313.25,255.75,311.5,257.75,310.0,259.75,307.75,261.75,306.25,263.75,305.5,265.75,304.75,267.75,304.0,269.75,302.5,271.75,301.75,273.75,301.75,275.75,301.5,277.75,300.75,279.75,300.5,281.75,299.5,283.75,298.25,285.75,296.5,287.75,294.0,289.75,291.25,291.75,288.0,293.75,285.5" stroke="black" stroke-width="1" fill="none" />
<polyline points="294.0,283.25,296.0,279.0,295.75,281.0,294.25,283.0,294.0,285.0,292.5,287.0,291.25,289.0,290.0,291.0,288.5,293.0,286.75,295.0,285.25,297.0,282.25,299.0" stroke="black" stroke-width="1" fill="none" />
<polyline points="292.0,289.25,292.0,290.25,291.25,292.25,290.75,294.25,290.0,296.25,289.25,298.25,289.0,300.25,288.25,302.25,288.0,304.25,287.25,306.25,287.0,308.25,286.25,310.25,286.25,312.25,285.25,314.25,285.0,316.25,284.75,318.25,284.25,320.25,284.25,322.25,284.25,324.25,283.5,326.25,283.5,328.25,283.25,330.25,283.0,332.25,282.5,334.25,282.0,336.25,281.5,338.25,281.25,340.25,280.75,342.25,280.5,344.25,280.5,346.25,280.5,348.25,280.5,350.25,280.5,352.25,279.75,354.25,279.25,356.25,278.5,358.25,278.25,360.25,277.75,362.25,277.5,364.25,276.75,366.25,276.0,368.25,276.25,367.75" stroke="black" stroke-width="1" fill="none" />
<polyline points="281.5,358.5,280.25,356.5,281.5,356.5,279.25,355.5" stroke="black" stroke-width="1" fill="none" />
<polyline points="272.75,348.0,270.75,344.0,268.75,341.75,266.75,339.0,264.75,336.5,262.75,332.0,260.75,330.25,258.75,327.75,256.75,325.5,254.75,323.75,252.75,322.75,250.75,320.0" stroke="black" stroke-width="1" fill="none" />
<polyline points="262.75,305.5,260.0,307.5,258.25,309.5,255.75,311.5,253.5,313.5,250.0,316.0,250.5,318.0,250.75,320.0,251.75,322.0,255.0,324.0,257.0,326.0,258.75,328.0,260.5,330.0,262.5,332.0,263.75,334.0,264.25,336.0,265.75,338.0,267.5,340.0,268.75,342.0,270.5,344.0,271.5,346.0,272.75,348.0,273.0,350.0,273.25,352.0,273.0,354.0,273.5,356.0,273.5,358.0,273.75,360.0,273.75,362.0,274.5,364.0,274.75,366.0,274.75,368.0" stroke="black" stroke-width="1" fill="none" />
<polyline points="276.75,380.75,275.75,382.75,275.75,384.75,277.25,386.75,280.25,388.75,282.5,390.75,284.75,392.75" stroke="black" stroke-width="1" fill="none" />
<polyline points="288.0,393.0,286.0,393.75,284.0,391.75,282.0,390.0,280.0,388.5,278.0,387.25,276.0,385.0" stroke="black" stroke-width="1" fill="none" />
<polyline points="275.75,382.25,277.75,380.75,279.75,380.75,281.75,380.75,283.75,381.5,285.75,381.75,287.75,380.5,289.75,379.75,291.75,380.5" stroke="black" stroke-width="1" fill="none" />
<polyline points="290.5,380.0,292.0,382.0,291.0,384.0,290.25,386.0,289.75,388.0,289.0,390.0,288.25,392.0,287.0,394.0" stroke="black" stroke-width="1" fill="none" />
<polyline points="284.25,398.25,282.25,396.0,280.25,394.25,278.25,393.0,276.25,392.0,274.25,394.5,272.25,396.75,270.25,398.0,268.25,399.0,266.25,400.0,264.25,400.75,262.25,401.25,260.25,403.0" stroke="black" stroke-width="1" fill="none" />
<polyline points="262.5,401.0,260.25,403.0,260.25,405.0,260.25,407.0,260.25,409.0,260.25,411.0,260.5,413.0,261.0,415.0,261.0,417.0,261.25,419.0,261.25,421.0,261.25,423.0,261.5,425.0,262.0,427.0,262.25,429.0,262.25,431.0,262.25,433.0,263.25,435.0,264.0,437.0,264.0,439.0,264.0,441.0,264.0,443.0,264.25,445.0" stroke="black" stroke-width="1" fill="none" />
<polyline points="263.25,463.75,265.25,461.5,267.25,459.75,269.25,457.75,271.25,455.75,273.25,453.5,275.25,451.25,277.25,449.25,279.25,447.25,281.25,445.0,283.25,442.25,285.25,439.25,287.25,437.25,289.25,436.75,291.25,437.5,293.25,438.5,295.25,439.5,297.25,440.25,299.25,440.5,301.25,441.5,303.25,442.25,305.25,443.5,307.25,444.0,309.25,445.0,311.25,446.0,313.25,446.0,315.25,446.25,317.25,446.5,319.25,447.0,321.25,446.0,323.25,445.5,325.25,446.0,327.25,445.25,329.25,444.25,331.25,444.0,333.25,443.25,335.25,441.5,337.25,441.5,339.25,441.25,341.25,440.75,343.25,438.75,345.25,438.5,347.25,437.5,349.25,435.25,351.25,434.5,353.25,433.25,355.25,430.75,357.25,429.75,359.25,428.75,361.25,427.25" stroke="black" stroke-width="1" fill="none" />
<polyline points="361.25,425.25,363.25,423.75,365.25,421.5,367.25,419.5,369.25,418.0,371.25,416.25,373.25,414.5,375.25,412.5,377.25,410.5" stroke="black" stroke-width="1" fill="none" />
<polyline points="376.75,408.25,374.75,407.25,372.75,406.25,370.75,405.25,368.75,404.0,366.75,402.75,364.75,401.75,362.75,400.0,360.75,398.5" stroke="black" stroke-width="1" fill="none" />
<polyline points="358.75,393.75,356.75,392.25" stroke="black" stroke-width="1" fill="none" />
<polyline points="356.0,389.25,354.0,388.25,352.0,387.0,350.0,383.75,348.0,382.5,346.0,381.25,344.0,378.75,342.0,376.75,340.0,375.75,338.0,374.75,336.0,374.0,334.0,372.75,332.0,370.75,330.0,368.25,328.0,367.0" stroke="black" stroke-width="1" fill="none" />
<polyline points="327.75,364.75,329.75,362.75,331.75,360.0,333.75,358.5,335.75,357.5" stroke="black" stroke-width="1" fill="none" />
<polyline points="334.75,357.75,332.0,359.75,331.25,361.75,328.5,363.75,327.75,365.75,328.5,367.75,331.5,369.75,332.75,371.75,335.5,373.75" stroke="black" stroke-width="1" fill="none" />
<polyline points="338.75,375.0,342.25,377.0,344.0,379.0,345.25,381.0,349.5,383.0,350.25,385.0,351.75,387.0,355.25,389.0,356.5,391.25,357.5,393.25,360.25,395.25,360.5,397.25,361.25,399.25,364.0,401.25,367.25,403.25,370.5,405.25,374.5,407.25,377.5,409.25,376.5,411.25,374.5,413.25,372.5,415.25,370.0,417.25,367.75,419.25,365.5,421.25,363.75,423.25,361.25,425.25,361.25,427.25,357.5,429.5,354.75,431.5,352.75,433.5,349.0,435.5,347.25,437.5,342.5,439.5" stroke="black" stroke-width="1" fill="none" />
<polyline points="308.0,444.5,303.25,442.5,298.75,440.5" stroke="black" stroke-width="1" fill="none" />
<polyline points="294.0,439.0,290.25,437.0" stroke="black" stroke-width="1" fill="none" />
<polyline points="288.0,436.75,285.5,438.75,284.25,440.75,283.0,442.75,281.5,444.75,279.75,446.75,277.5,448.75,275.75,450.75,273.75,452.75,272.0,454.75,270.25,456.75,268.25,458.75,266.0,460.75,264.0,462.75,263.25,464.75,263.0,466.75,263.0,468.75,263.0,470.75,263.25,472.75,263.25,474.75,263.25,476.75,263.25,478.75,263.5,480.75,264.0,482.75,264.0,484.75,264.0,486.75,264.0,488.75,264.25,490.75,264.25,492.75,264.75,494.75,264.75,496.75,264.75,498.75,265.0,500.75,266.0,502.75,267.25,504.75,269.0,506.75,270.5,508.75,270.75,510.75,271.0,512.75,272.0,514.75,272.75,516.75,272.5,518.75,272.75,520.75,273.5,522.75,273.5,524.75,273.5,526.75,273.75,528.75,274.5,530.75,274.0,532.75,273.5,534.75,273.75,536.75,274.5,538.75,275.25,540.75,275.25,542.75,274.75,544.75,274.75,546.75,275.5,548.75,275.5,550.75,274.75,552.75,273.75,554.75,273.25,556.75,273.0,558.75,272.75,560.75,272.0,562.75,271.5,564.75,270.75,566.75,270.75,568.75,271.0,570.75,271.0,572.75,271.0,574.75,271.0,576.75,271.75,578.75,272.5,580.75,272.75,582.75,272.75,584.75,272.75,586.75,273.0,588.75,273.5,590.75,273.25,592.75,273.0,594.75,273.5,596.75,273.5,598.75,273.5,600.75,273.5,602.75,273.5,604.75,273.5,606.75,273.0,608.75,273.5,610.75,273.5,612.75,273.75,614.75,273.75,616.75,273.75,618.75,273.75,620.75,273.75,622.75,273.75,624.75,273.75,626.75,274.0,628.75,274.0,630.75,274.5,632.75,274.5,634.75,274.75,636.75,274.75,638.75,274.75,640.75,275.5,642.75,275.0,644.75,275.5,646.75,274.75,648.75,274.75,650.75,274.75,652.75,274.75,654.75,274.75,656.75,274.75,658.75,274.75,660.75,274.75,662.75,274.75,664.75,274.75,666.75,274.75,668.75,275.0,670.75,275.25,672.75,275.25,674.75,274.75,676.75,274.75,678.75,274.75,680.75,274.75,682.75,274.5,684.75,274.5,686.75,274.5,688.75,274.0,690.75,273.75,692.75,274.0,694.75,274.0,696.75,273.75,698.75,273.75,700.75,273.75,702.75,273.75,704.75,273.75,706.75,273.75,708.75,273.75,710.75,273.75,712.75,273.75,714.75,273.75,716.75,273.75,718.75,273.75,720.75,273.5,722.75,273.0,724.75,272.75,726.75,272.75,728.75,273.0,730.75,273.5,732.75,274.75,734.75,276.0,736.75,277.5,738.75,278.25,740.75,278.5,742.75,275.5,744.75,272.0,746.75,270.75,748.75,270.0,750.75,270.0,752.75,269.75,754.75,269.75,756.75,269.5,758.75,269.0,760.75,269.0,762.75,268.75,764.75,268.75,766.75,268.0,768.75,267.75,770.75" stroke="black" stroke-width="1" fill="none" />
<polyline points="270.75,748.5,272.75,746.0,274.75,745.0,276.75,744.0" stroke="black" stroke-width="1" fill="none" />
<polyline points="277.25,738.25,275.25,735.25,273.25,731.75" stroke="black" stroke-width="1" fill="none" />
<polyline points="266.25,648.0,264.25,645.75,262.25,644.0" stroke="black" stroke-width="1" fill="none" />
<polyline points="261.5,642.75,263.5,641.25,265.5,639.75" stroke="black" stroke-width="1" fill="none" />
<polyline points="242.75,602.25,245.75,600.25,247.75,598.25,250.5,596.25,252.0,594.25,253.5,592.25,254.75,590.25,258.5,588.25,259.75,587.75,257.75,588.75,255.75,589.25,253.75,591.75,251.75,594.5,249.75,597.25,247.75,598.0,245.75,600.25,243.75,601.25,241.75,603.25,239.75,604.25,237.75,604.75,235.75,606.25,233.75,607.75,231.75,609.0,229.75,610.0,227.75,610.25,225.75,609.75,223.75,606.75" stroke="black" stroke-width="1" fill="none" />
<polyline points="220.75,598.75,218.75,596.0,216.75,592.75,214.75,589.0,212.75,586.25,211.0,583.0,209.0,579.75,207.0,576.75,205.0,573.0,203.0,570.25,201.0,567.5,199.0,564.75,197.0,561.25,195.0,557.5" stroke="black" stroke-width="1" fill="none" />
<polyline points="188.0,522.25,190.0,517.75" stroke="black" stroke-width="1" fill="none" />
<polyline points="190.25,513.5,188.25,510.25" stroke="black" stroke-width="1" fill="none" />
<polyline points="189.75,505.0,191.75,503.0,193.75,499.5,195.75,498.25,197.75,496.5" stroke="black" stroke-width="1" fill="none" />
<polyline points="198.25,494.0,196.25,493.5,194.25,493.5,192.25,493.5,190.25,493.5,188.25,493.5,186.25,493.5,184.25,493.25,182.25,491.75,180.25,491.5,178.25,491.5,176.25,490.75,174.25,490.5,172.25,489.75,170.25,487.75,168.25,486.75,166.25,486.25,164.25,485.75,162.25,484.0,160.25,483.0,158.25,482.0,156.25,480.5,154.25,479.25,152.25,478.25,150.25,476.0,148.25,474.5,146.25,473.25,144.25,471.75,142.25,469.5,140.25,467.5,138.25,465.75,136.25,463.25,134.25,461.5,132.25,459.25,130.25,455.75,128.5,451.75,126.5,448.75" stroke="black" stroke-width="1" fill="none" />
<polyline points="168.75,487.0,171.5,489.0" stroke="black" stroke-width="1" fill="none" />
<polyline points="197.75,493.75,198.5,495.75,196.5,497.75,193.75,499.75,192.75,501.75,190.75,503.75,189.75,505.75,188.75,507.75,188.0,509.75,189.0,511.75,190.25,513.75,190.75,515.75,190.0,517.75,189.25,519.75,188.25,521.75,188.0,523.75,187.25,525.75,186.75,527.75,187.0,529.75,187.0,531.75,187.75,533.75,188.75,535.75,189.5,537.75,189.75,539.75,190.25,542.0,190.75,544.0,191.75,546.0,192.25,548.0,192.75,550.0,193.0,552.0,194.5,554.25,194.75,556.25,195.5,558.25,196.25,560.25,197.25,562.25,198.5,564.25,200.0,566.25,201.25,568.25,202.75,570.25,205.0,573.25,206.25,575.5,207.25,577.5,208.5,579.5,209.75,581.5,211.25,583.5,212.25,585.5,213.25,587.5,214.75,589.5,216.0,591.5,217.0,593.5,218.25,595.5,219.75,597.5,221.0,599.5,221.75,601.5,222.5,603.5,223.5,605.5,224.0,607.5,225.25,609.5" stroke="black" stroke-width="1" fill="none" />
<polyline points="232.5,608.25,235.75,606.25,238.75,604.25" stroke="black" stroke-width="1" fill="none" />
<polyline points="260.75,587.0,261.25,587.25,262.25,589.25,263.0,591.25,263.0,593.25,263.25,595.25,263.25,597.25,263.5,599.25,264.0,601.25,264.25,603.25,264.75,605.25,265.0,607.25,265.25,609.25,265.25,611.25,265.25,613.25,265.25,615.25,265.5,617.25,265.75,619.25,265.75,621.25,266.0,623.25,266.0,625.25,266.0,627.25,266.5,629.25,266.75,631.25,267.0,633.25,267.0,635.25,267.0,637.25,265.75,639.25,263.25,641.25,262.0,643.25,263.25,645.25,265.75,647.25,267.0,649.25,267.25,651.25,267.75,653.25,267.75,655.25,267.75,657.25,268.0,659.25,268.0,661.25,267.75,663.25,268.0,665.25,268.0,667.25,267.75,669.25,267.75,671.25,267.75,673.25,267.75,675.25,267.25,677.25,267.75,679.25,267.25,681.25,267.75,683.25,267.0,685.25,267.0,687.25,267.0,689.25,267.0,691.25,266.75,693.25,266.25,695.25,266.25,697.25,266.0,699.25,266.25,701.25,266.0,703.25,266.0,705.25,266.0,707.25,266.0,709.25,266.0,711.25,266.0,713.25,266.0,715.25,266.0,717.25,266.0,719.25,266.0,721.25,266.0,723.25,265.75,725.25,266.0,727.25,265.5,729.25,265.25,731.25,265.0,733.25,265.0,735.25,264.75,737.25,264.25,739.25,264.25,741.25,264.0,743.25,264.0,745.25,263.25,747.25,263.25,749.25,263.25,751.25,263.0,753.25,263.0,755.25,263.0,757.25,263.0,759.25,262.25,761.25,262.0,763.25,262.0,765.25,261.25,767.25,261.0,769.25" stroke="black" stroke-width="1" fill="none" />
<polyline points="415.5,736.5,417.5,734.5,419.5,733.5,421.5,732.5,423.25,732.5,425.25,732.0" stroke="black" stroke-width="1" fill="none" />
<polyline points="423.25,730.5,420.75,728.5,420.5,726.5,423.0,724.5,424.75,722.5,426.25,721.25,424.25,723.0,422.25,725.25,420.25,726.75" stroke="black" stroke-width="1" fill="none" />
<polyline points="419.25,729.75,417.25,729.75,415.25,727.5" stroke="black" stroke-width="1" fill="none" />
<polyline points="414.75,727.5,416.75,727.0,418.75,728.5,421.25,728.5,423.25,730.25" stroke="black" stroke-width="1" fill="none" />
<polyline points="419.0,733.5,416.0,735.5,415.5,737.5,415.5,739.5,415.25,741.5,415.0,743.5,413.5,745.5,414.75,743.75,417.5,740.5,419.5,738.5,421.5,737.5,423.5,736.0,424.75,736.5" stroke="black" stroke-width="1" fill="none" />
<polyline points="425.0,735.5,423.5,736.0,420.5,738.0,418.0,740.0,416.75,742.0,416.0,744.0,414.25,746.0,415.25,745.0" stroke="black" stroke-width="1" fill="none" />
<polyline points="421.25,740.25,423.25,737.75,423.5,737.5,421.75,739.5,421.0,741.5,420.5,743.5,421.25,745.5,421.0,747.5,420.5,749.5,420.5,751.5" stroke="black" stroke-width="1" fill="none" />
<polyline points="421.25,758.5,423.25,758.0,423.25,759.5" stroke="black" stroke-width="1" fill="none" />
<polyline points="430.75,757.5,432.75,757.5,434.75,756.0,436.75,754.75,438.75,753.0,440.75,750.75,442.75,748.5,444.75,746.0,446.75,743.75,448.75,741.5,450.5,740.0,448.25,742.0,446.5,744.0,444.75,746.0,443.25,748.0,441.5,750.0,439.75,752.0,437.5,754.0,434.75,756.0" stroke="black" stroke-width="1" fill="none" />
<polyline points="431.25,749.0,433.25,748.0,435.25,748.0" stroke="black" stroke-width="1" fill="none" />
<polyline points="433.0,747.0,431.0,748.0,431.75,747.25,434.0,745.25,433.5,743.25" stroke="black" stroke-width="1" fill="none" />
<polyline points="433.0,743.0,432.75,745.0,429.5,747.0,428.25,747.75,430.25,746.5,432.25,745.75" stroke="black" stroke-width="1" fill="none" />
<polyline points="435.5,742.75,437.5,743.0,439.5,742.25,441.5,739.25,443.5,739.0,445.5,739.25" stroke="black" stroke-width="1" fill="none" />
<polyline points="449.5,742.5,447.5,744.75,445.5,747.25,443.5,749.75,441.5,752.25,439.5,754.0,437.5,755.75,435.5,757.0,433.5,758.5,431.5,758.75,435.25,757.25,438.25,755.25,440.5,753.25,442.5,751.25,444.0,749.25,445.5,747.25,447.25,745.25,448.75,743.25,450.75,741.25" stroke="black" stroke-width="1" fill="none" />
<polyline points="453.0,742.75,453.0,744.75,453.0,746.75,452.75,748.75,452.0,750.75,450.5,752.75,448.75,754.75,446.25,756.75,444.5,756.5,446.5,755.0,448.5,753.0,450.5,749.75" stroke="black" stroke-width="1" fill="none" />
<polyline points="451.25,753.75,449.0,755.75,448.25,757.75,449.25,758.25,450.75,755.5" stroke="black" stroke-width="1" fill="none" />
<polyline points="451.75,754.5,450.0,756.5,449.0,755.75,451.0,754.0" stroke="black" stroke-width="1" fill="none" />
<polyline points="455.0,756.25,457.0,753.75,459.0,751.5,461.0,749.0,463.0,747.0,465.0,745.25,464.25,745.75,462.25,747.75,460.5,749.75,458.75,751.75,457.0,753.75,455.5,755.75,453.75,757.75,454.75,757.25,456.0,757.5,458.0,754.75,460.0,752.25,462.0,750.0,464.0,747.75,465.75,745.5,464.5,747.5,462.5,749.5,460.75,751.5,459.0,753.5,457.5,755.5,456.0,757.5" stroke="black" stroke-width="1" fill="none" />
<polyline points="458.5,755.25,458.75,757.25,459.5,758.75,460.25,757.5" stroke="black" stroke-width="1" fill="none" />
<polyline points="460.25,757.75,460.25,755.75" stroke="black" stroke-width="1" fill="none" />
<polyline points="463.75,756.25,465.75,754.5,467.75,753.0,465.25,754.75,463.75,756.75,464.5,758.75,465.5,756.75,467.5,754.75,469.5,754.5,468.0,756.5,467.0,757.5,469.0,755.25" stroke="black" stroke-width="1" fill="none" />
<polyline points="468.5,754.0,466.0,756.0" stroke="black" stroke-width="1" fill="none" />
<polyline points="471.5,756.25,473.5,753.75,475.5,751.5,477.5,749.5,477.75,749.25,475.75,751.25,474.0,753.25,472.25,755.25,471.5,757.25,471.75,758.5,473.75,758.5" stroke="black" stroke-width="1" fill="none" />
<polyline points="480.25,755.75,478.25,757.75,478.0,758.0,480.0,756.0,480.0,754.0" stroke="black" stroke-width="1" fill="none" />
<polyline points="479.25,753.25,478.75,755.25,477.0,757.25,476.5,757.75,478.5,755.5,482.0,754.0" stroke="black" stroke-width="1" fill="none" />
<polyline points="483.0,753.0,482.0,755.0,483.5,754.5" stroke="black" stroke-width="1" fill="none" />
<polyline points="484.25,753.75,483.75,756.0,485.75,754.0" stroke="black" stroke-width="1" fill="none" />
<polyline points="486.0,753.75,484.0,755.75,483.75,757.75,485.0,758.25" stroke="black" stroke-width="1" fill="none" />
<polyline points="485.0,757.5,486.0,755.5" stroke="black" stroke-width="1" fill="none" />
<polyline points="488.5,755.75,489.0,753.75,489.75,754.25,488.25,754.75,489.75,753.75" stroke="black" stroke-width="1" fill="none" />
<polyline points="484.25,744.0,484.0,742.0,482.75,742.0,481.75,738.5,481.25,736.5,483.75,735.5,483.0,736.0,481.0,736.75" stroke="black" stroke-width="1" fill="none" />
<polyline points="481.25,738.0,483.25,738.5,484.5,735.75,484.75,737.75" stroke="black" stroke-width="1" fill="none" />
<polyline points="480.25,742.25,481.25,744.25" stroke="black" stroke-width="1" fill="none" />
<polyline points="479.0,749.25,477.5,751.25,476.0,753.25,474.25,755.25,473.25,757.25,474.5,754.75,476.5,752.25,478.5,750.25" stroke="black" stroke-width="1" fill="none" />
<polyline points="475.25,742.25,473.25,740.25" stroke="black" stroke-width="1" fill="none" />
<polyline points="474.0,741.25,472.0,739.25,472.25,739.25" stroke="black" stroke-width="1" fill="none" />
<polyline points="472.25,737.5,474.25,738.0,476.0,736.25,478.0,735.75" stroke="black" stroke-width="1" fill="none" />
<polyline points="477.75,735.75,478.25,737.75,479.0,740.0" stroke="black" stroke-width="1" fill="none" />
<polyline points="476.5,735.5,476.0,737.5,476.25,740.5,476.25,740.25,477.75,740.5,480.75,742.25,481.0,743.75,483.0,744.25" stroke="black" stroke-width="1" fill="none" />
<polyline points="501.0,743.75,499.0,745.75,497.0,747.75,495.0,750.25,493.0,752.75,491.0,755.25,489.0,758.0,487.0,760.75,485.0,763.5,483.0,766.0,481.0,768.25,479.0,770.25,480.75,768.5,482.75,766.5,484.0,764.5,485.75,762.5,487.25,760.5,488.75,758.5,489.75,756.5,491.75,754.5,493.25,752.5,494.75,750.5,496.5,748.5,498.25,746.5,500.25,744.5,502.25,742.5" stroke="black" stroke-width="1" fill="none" />
<polyline points="503.25,743.25,501.0,745.25,499.25,747.25,497.25,749.25,495.75,751.25,494.25,753.25,492.75,755.25,491.25,757.25,489.75,759.25,488.5,761.25,486.75,763.25,485.25,765.25,483.75,767.25,481.75,769.25,480.5,770.25,482.5,768.5,484.5,766.25,486.5,763.75,488.5,761.0,490.5,758.25,492.5,755.5,494.5,753.0,496.5,750.25,498.5,748.0,500.5,745.75,502.5,744.0" stroke="black" stroke-width="1" fill="none" />
<polyline points="507.5,743.25,505.5,745.5,503.5,747.5,501.5,749.75,499.5,752.0,497.5,754.0,495.5,757.0,493.5,759.75,491.5,762.5,489.5,765.25,487.5,768.0,486.75,769.0,488.5,767.0,489.75,765.0,491.25,763.0,492.5,761.0,494.25,759.0,495.5,757.0,497.25,755.0,498.75,753.0,500.5,751.0,502.25,749.0,504.0,747.0,506.0,745.0,508.0,743.0" stroke="black" stroke-width="1" fill="none" />
<polyline points="508.25,744.25,506.25,746.25,504.25,748.25,502.25,750.75,500.25,753.5,498.25,755.75,496.25,758.25,494.25,761.0,492.25,763.75,490.25,766.75,488.25,769.25,488.5,769.0,490.0,767.0,491.5,765.0,492.75,763.0,494.25,761.0,495.75,759.0,497.25,757.0,498.75,755.0,500.5,753.0,502.25,751.0,503.75,749.0,505.5,747.0,507.5,745.0,509.75,743.0" stroke="black" stroke-width="1" fill="none" />
<polyline points="461.0,767.5,459.0,768.0,457.0,767.25,455.0,767.25,453.0,768.25,451.0,768.0,449.0,767.5,447.0,768.0" stroke="black" stroke-width="1" fill="none" />
<polyline points="446.5,769.5,445.25,767.5,445.0,767.25" stroke="black" stroke-width="1" fill="none" />
<polyline points="443.25,769.5,442.0,767.5" stroke="black" stroke-width="1" fill="none" />
<polyline points="441.25,767.75,443.25,768.25,444.5,769.0,445.25,770.0,447.25,770.0,449.25,770.0,451.0,770.0,453.0,770.0,455.0,770.0,457.0,770.0,459.0,769.5" stroke="black" stroke-width="1" fill="none" />
<polyline points="460.75,767.5,462.5,769.5" stroke="black" stroke-width="1" fill="none" />
<polyline points="439.75,770.0,437.75,770.0,435.75,769.25,433.75,770.25,431.75,770.0" stroke="black" stroke-width="1" fill="none" />
<polyline points="426.5,768.5,428.5,768.25,430.5,768.25,432.5,767.5,434.5,767.25,436.5,767.75,438.5,767.5" stroke="black" stroke-width="1" fill="none" />
<polyline points="439.25,742.5,440.75,740.5,441.0,738.75,439.0,737.5,437.0,736.75,435.0,736.75,433.0,735.75,431.0,735.5,429.0,736.5" stroke="black" stroke-width="1" fill="none" />
<polyline points="429.75,735.75,429.0,737.75,429.0,739.75,429.0,741.75,429.0,743.75,427.25,745.75,425.0,747.75,423.0,749.75,420.5,751.25,422.5,750.25,424.5,748.0,426.5,746.5,428.5,744.25" stroke="black" stroke-width="1" fill="none" />
<polyline points="436.25,742.0,436.25,744.0,436.75,746.0" stroke="black" stroke-width="1" fill="none" />
<polyline points="439.5,739.75,439.75,737.75,438.75,740.5,436.75,740.0,434.75,739.75,432.75,738.75,430.75,736.25" stroke="black" stroke-width="1" fill="none" />
<polyline points="430.75,736.25,432.0,738.25,431.75,740.25,431.0,742.25,430.75,744.25,428.5,746.25,427.75,747.5,429.75,745.25" stroke="black" stroke-width="1" fill="none" />
<polyline points="445.75,739.0,445.25,737.0,444.5,735.0,443.25,733.0,441.5,731.0,438.5,729.0" stroke="black" stroke-width="1" fill="none" />
<polyline points="436.5,728.75,432.75,730.75" stroke="black" stroke-width="1" fill="none" />
<polyline points="434.75,725.25,432.75,727.25,431.5,728.25,433.75,726.25,435.5,724.25,436.25,722.25,435.5,719.75,433.5,718.5,431.5,718.25,429.5,719.25" stroke="black" stroke-width="1" fill="none" />
<polyline points="431.5,718.25,430.25,720.5,430.75,720.75,432.75,721.0,434.75,721.0,436.5,721.0,438.5,721.25,440.5,723.5,441.25,724.75,443.25,726.0" stroke="black" stroke-width="1" fill="none" />
<polyline points="442.5,728.25,440.25,726.25" stroke="black" stroke-width="1" fill="none" />
<polyline points="438.0,726.0,434.75,728.0,433.25,728.75,435.25,727.75,437.25,726.5,439.25,726.0,441.25,726.75,443.25,728.75" stroke="black" stroke-width="1" fill="none" />
<polyline points="445.0,736.25,443.0,732.5,441.0,730.5,439.0,729.0,437.0,728.75,435.0,729.75,433.0,730.75,431.0,731.75,429.25,732.5,429.0,729.25,429.0,727.25,429.0,725.25,428.5,723.25,427.0,721.25" stroke="black" stroke-width="1" fill="none" />
<polyline points="427.0,721.25,429.0,723.75" stroke="black" stroke-width="1" fill="none" />
<polyline points="433.0,718.5,435.75,720.5,437.75,720.5,439.5,722.5,442.25,725.25,444.25,727.25,444.25,729.25" stroke="black" stroke-width="1" fill="none" />
<polyline points="452.0,743.75,452.0,745.75,451.25,747.75,450.5,749.75,449.5,751.75,448.0,753.75,445.5,755.75,445.0,757.75,447.0,756.25,449.0,754.25,451.0,752.0" stroke="black" stroke-width="1" fill="none" />
<polyline points="419.25,729.0,416.75,727.0" stroke="black" stroke-width="1" fill="none" />
<polyline points="415.75,726.75,416.25,728.75" stroke="black" stroke-width="1" fill="none" />
<polyline points="269.25,507.0,267.25,504.5,265.25,501.25" stroke="black" stroke-width="1" fill="none" />
<polyline points="254.0,504.0,254.5,502.0,254.5,500.0,254.5,498.0,254.5,496.0,254.5,494.0,254.5,492.0,254.5,490.0,254.5,488.0,254.5,486.0,254.5,484.0,254.5,482.0,254.5,480.0,254.25,478.0,254.25,476.0,254.0,474.0,254.25,472.0,253.75,470.0,254.25,468.0,254.25,466.0,254.25,464.0,254.0,462.0,254.0,460.0,253.75,458.0,253.75,456.0,253.75,454.0,253.5,452.0,253.5,450.0,253.5,448.0,253.5,446.0,253.5,444.0,253.5,442.0,253.5,440.0,253.5,438.0,253.5,436.0,253.5,434.0,253.5,432.0,253.25,430.0,252.75,428.0,252.75,426.0,252.75,424.0,252.5,422.0,252.5,420.0,252.5,418.0,252.5,416.0,252.5,414.0,252.5,412.0,252.5,410.0,252.0,408.0,251.0,406.0,249.75,405.75,247.75,405.75,245.75,406.0,243.75,406.5,241.75,406.75,239.75,406.75,237.75,407.5,235.75,407.5,233.75,407.75,231.75,407.75,229.75,407.5,227.75,409.0" stroke="black" stroke-width="1" fill="none" />
<polyline points="229.25,407.5,227.75,409.5,228.25,411.5,228.25,413.5,229.25,415.5,230.75,417.5,231.0,419.5,231.25,421.5,232.25,423.5,233.25,425.5,233.0,427.5,232.5,429.5,233.5,431.5,234.25,433.5,234.25,435.5,234.25,437.5,234.25,439.5,234.25,441.5,234.25,443.5,234.25,445.5,234.25,447.5,234.0,449.5,233.25,451.5,233.0,453.5,232.0,455.5,231.25,457.5,230.5,459.5,229.75,461.5,229.25,463.5,228.5,465.5,228.25,467.5,227.5,469.5,226.75,471.5,226.5,473.5,226.75,475.5,227.5,477.5,228.75,479.5,229.75,481.5,230.5,483.5,231.25,485.5,232.25,487.5,232.5,489.5,233.5,491.5,234.5,493.5,235.5,495.5,236.75,497.5,239.0,499.5,242.0,501.5,245.25,503.5,247.5,505.25" stroke="black" stroke-width="1" fill="none" />
<polyline points="252.75,505.25,250.75,506.0,248.75,505.75,246.75,504.75,244.75,503.0,242.75,501.75,240.75,500.5,238.75,499.25,236.75,497.25,234.75,493.5,232.75,489.75,230.75,483.75,228.75,479.25,226.75,475.5" stroke="black" stroke-width="1" fill="none" />
<polyline points="229.5,461.75,231.5,456.25" stroke="black" stroke-width="1" fill="none" />
<polyline points="230.5,416.75,228.5,414.25" stroke="black" stroke-width="1" fill="none" />
<polyline points="222.5,400.0,220.5,397.75" stroke="black" stroke-width="1" fill="none" />
<polyline points="219.75,395.75,220.5,397.75,222.0,399.75" stroke="black" stroke-width="1" fill="none" />
<polyline points="220.75,401.0,220.5,397.0,218.5,394.0,216.5,392.25,214.5,390.75,212.5,390.0,210.25,389.0,208.25,387.25,206.25,384.75,204.25,383.5,202.25,381.75,200.25,378.75,198.25,376.5,196.25,374.25,194.25,371.25,192.25,368.75,190.25,366.75,188.25,364.5,186.25,361.25,184.25,358.25,182.25,354.25" stroke="black" stroke-width="1" fill="none" />
<polyline points="180.5,348.5,178.5,345.0,176.5,341.5" stroke="black" stroke-width="1" fill="none" />
<polyline points="175.5,337.5,177.5,336.25,179.5,335.5,181.5,335.25,183.5,335.0,185.5,334.5,187.5,333.0,189.5,331.5,191.5,331.0,193.5,328.75,195.5,327.5,197.5,325.75,199.5,324.75,201.5,323.25,203.5,322.75,205.5,321.5,207.5,319.5,209.5,318.25,211.5,317.0,213.5,316.0" stroke="black" stroke-width="1" fill="none" />
<polyline points="186.75,333.75,188.75,331.75,192.75,329.75,195.25,327.75,196.75,325.75,200.75,324.0,204.5,322.0,206.5,320.0,210.0,318.0,213.5,316.0,212.75,314.0,210.25,312.0,208.25,310.0,204.75,308.0,202.25,306.0,198.75,304.0,196.0,302.0,193.0,300.0,189.5,298.0,184.75,296.0,180.25,294.0" stroke="black" stroke-width="1" fill="none" />
<polyline points="173.75,292.0,170.0,290.0,166.75,288.0" stroke="black" stroke-width="1" fill="none" />
<polyline points="177.0,336.25,175.5,338.25,176.25,340.25,176.75,342.25,178.0,344.25,179.0,346.25,180.25,348.25,181.25,350.25,182.0,352.25,182.25,354.25,183.25,356.25,184.25,358.25,185.25,360.25,186.75,362.25,188.0,364.25,189.75,366.25,191.5,368.25,193.25,370.25,194.5,372.25,196.0,374.25,197.75,376.25,199.5,378.25,201.25,380.25,202.5,382.25,205.0,384.25,207.5,386.25,209.0,388.25,210.0,390.25,211.25,392.25,212.25,394.25" stroke="black" stroke-width="1" fill="none" />
<polyline points="213.75,390.5,216.5,392.5,216.5,394.5,219.0,395.0,217.75,395.75,218.75,397.75,219.75,399.75,221.5,401.0" stroke="black" stroke-width="1" fill="none" />
<polyline points="218.0,396.0,216.0,395.0,214.0,395.25,212.0,393.5,210.75,391.25,208.75,391.25,207.5,390.75,207.0,388.75,206.0,386.75" stroke="black" stroke-width="1" fill="none" />
<polyline points="204.25,386.25,204.5,386.25,202.5,387.25,200.5,386.0,198.5,384.25,196.5,383.25,194.5,383.75,192.5,383.5,190.5,382.0,188.5,381.5,186.5,381.5,184.5,379.75" stroke="black" stroke-width="1" fill="none" />
<polyline points="185.25,380.75,183.25,379.25,181.25,379.75,179.25,378.0,177.25,376.25,175.25,376.25,173.25,376.75,171.25,375.75,169.25,374.25,167.25,375.0,165.25,375.75,163.25,375.0,161.25,375.5,159.25,376.75,157.25,376.0,155.25,375.0,153.25,375.0,151.25,375.25,149.25,374.5,147.25,374.0,145.25,374.75,143.25,374.0,141.25,373.0,139.25,373.0,137.25,372.5,135.25,372.0,133.25,371.25,131.25,370.5,129.25,370.0,127.25,369.25" stroke="black" stroke-width="1" fill="none" />
<polyline points="127.25,369.25,127.25,371.25,127.25,373.25,128.0,375.25,128.25,377.25,128.25,379.25,128.25,381.25,128.25,383.25,128.0,385.25,127.0,387.25,127.0,389.25,127.0,391.25,127.0,393.25,126.0,395.25,126.25,397.25,126.25,399.25,125.25,401.25,125.25,403.25,125.25,405.25,124.75,407.25,125.25,409.25,125.75,411.25,125.5,413.25,125.25,415.25,125.75,417.25,125.25,419.25,125.25,421.25,125.25,423.25,125.75,425.25,126.0,427.25,124.75,429.25,125.25,431.25,126.0,433.25,126.0,435.25,124.5,437.25,125.25,439.25,125.25,441.25,125.25,443.25,126.0,445.25,126.25,447.25,126.75,449.25,128.0,451.25,129.25,453.25,129.75,455.25,131.25,457.25,132.0,459.25,134.0,461.25,136.0,463.25,137.25,465.25,139.75,467.25,142.0,469.25,143.0,471.25,145.75,473.25,149.0,475.25,151.25,477.25,154.0,479.25,156.75,481.25,160.5,483.25,163.5,485.25" stroke="black" stroke-width="1" fill="none" />
<polyline points="199.75,385.5,197.5,383.5" stroke="black" stroke-width="1" fill="none" />
<polyline points="191.75,383.25,189.5,381.25" stroke="black" stroke-width="1" fill="none" />
<polyline points="179.25,378.25,177.0,376.25" stroke="black" stroke-width="1" fill="none" />
<polyline points="172.25,376.25,169.0,374.25" stroke="black" stroke-width="1" fill="none" />
<polyline points="270.25,398.0,273.0,396.0,274.5,394.0,276.25,392.0" stroke="black" stroke-width="1" fill="none" />
<polyline points="276.5,392.25,279.75,394.25,282.25,396.25,284.0,398.25,284.25,400.25,284.25,402.25,284.25,404.25,283.5,406.25,282.75,408.25,282.0,410.25,281.25,412.25,280.5,414.25,280.0,416.25,279.5,418.25,279.25,420.25,278.5,422.25,278.5,424.25,278.5,426.25,278.75,428.25,279.25,430.25,280.5,432.25,279.0,434.25,276.25,436.25,273.75,438.25,271.5,440.25,269.75,442.25,267.75,444.25,264.5,445.25,266.5,445.25,268.5,443.75,270.5,441.5,272.5,439.5,274.5,437.75,276.5,436.25,278.5,434.5" stroke="black" stroke-width="1" fill="none" />
<polyline points="287.0,381.75,288.75,379.75" stroke="black" stroke-width="1" fill="none" />
<polyline points="132.25,286.0,128.0,284.0,124.75,282.0,122.0,280.0,118.25,278.0,114.0,276.0,111.0,274.0,108.75,272.0,106.5,270.0" stroke="black" stroke-width="1" fill="none" />
<polyline points="100.25,267.5,98.25,265.5,97.0,263.5,94.5,261.5,92.0,259.5,90.75,257.5,89.75,255.5,89.5,253.5,88.5,251.5,87.75,249.5,86.75,247.5,86.5,245.5,86.0,243.5,86.75,241.5,87.5,239.5,87.75,237.5,88.25,235.5,89.25,233.5,90.25,231.5,91.0,229.5,92.75,227.5,94.0,225.5,95.75,223.5,97.0,221.5,98.5,219.5,99.5,217.5,101.0,215.5,102.5,213.5,104.5,211.5,106.5,209.5,108.0,207.5,108.75,205.5,107.25,203.5,105.0,201.5,102.5,199.5,101.0,197.5,100.0,195.5,98.75,193.5,98.0,191.5,97.0,189.5,96.25,187.5,96.25,185.5,95.5,183.5,95.5,181.5,95.5,179.5,95.25,177.5,95.25,175.5,94.5,173.5,95.25,171.5,96.25,169.5,96.25,167.5,96.25,165.5,97.0,163.5,100.0,161.5,101.0,159.5,100.25,157.5,102.5,155.75,104.25,153.75,105.5,151.75,107.0,149.75,108.5,147.75,110.25,145.75,111.75,143.75,113.5,141.75,115.25,139.75,116.75,137.75,118.5,135.75,120.0,133.75,121.75,131.75,123.25,129.75,125.0,127.75,126.25,125.75,127.75,123.75,129.25,121.75,130.5,119.75,132.0,117.75,133.75,115.75,136.0,113.75,138.25,111.75,142.0,109.75" stroke="black" stroke-width="1" fill="none" />
<polyline points="157.75,109.0,160.5,111.0" stroke="black" stroke-width="1" fill="none" />
<polyline points="172.5,108.0,175.5,106.0" stroke="black" stroke-width="1" fill="none" />
<polyline points="183.25,105.5,186.0,103.5,187.75,101.5,191.5,99.5,194.0,97.5,197.5,95.5,200.75,93.5" stroke="black" stroke-width="1" fill="none" />
<polyline points="222.0,89.5,224.75,87.5,228.0,85.5,230.5,83.5" stroke="black" stroke-width="1" fill="none" />
<polyline points="231.0,83.5,234.0,85.5" stroke="black" stroke-width="1" fill="none" />
<polyline points="239.0,85.5,240.75,83.5,242.0,81.5,243.5,79.5,244.75,77.5,246.5,75.5,250.25,73.5,252.5,71.5,254.25,69.5" stroke="black" stroke-width="1" fill="none" />
<polyline points="88.0,226.0,360.0,226.0" stroke="black" stroke-width="1" fill="none" />
<polyline points="360.0,224.0,296.0,288.0" stroke="black" stroke-width="1" fill="none" />
<polyline points="296.0,294.0,368.0,294.0" stroke="black" stroke-width="1" fill="none" />
<polyline points="368.0,296.0,288.0,376.0" stroke="black" stroke-width="1" fill="none" />
<polyline points="288.0,378.0,344.0,378.0" stroke="black" stroke-width="1" fill="none" />
<polyline points="344.0,376.0,288.0,432.0" stroke="black" stroke-width="1" fill="none" />
<polyline points="280.0,432.0,336.0,376.0" stroke="black" stroke-width="1" fill="none" />
<polyline points="336.0,368.0,312.0,392.0" stroke="black" stroke-width="1" fill="none" />
<polyline points="304.0,392.0,328.0,368.0" stroke="black" stroke-width="1" fill="none" />
<polyline points="344.0,384.0,328.0,400.0" stroke="black" stroke-width="1" fill="none" />
<polyline points="328.0,408.0,304.0,432.0" stroke="black" stroke-width="1" fill="none" />
<polyline points="304.0,440.0,336.0,408.0" stroke="black" stroke-width="1" fill="none" />
<polyline points="344.0,400.0,352.0,392.0" stroke="black" stroke-width="1" fill="none" />
<polyline points="352.0,384.0,336.0,400.0" stroke="black" stroke-width="1" fill="none" />
<polyline points="344.0,390.0,352.0,390.0" stroke="black" stroke-width="1" fill="none" />
<polyline points="360.0,392.0,312.0,440.0" stroke="black" stroke-width="1" fill="none" />
<polyline points="312.0,442.0,320.0,442.0" stroke="black" stroke-width="1" fill="none" />
<polyline points="328.0,440.0,368.0,400.0" stroke="black" stroke-width="1" fill="none" />
<polyline points="360.0,400.0,320.0,440.0" stroke="black" stroke-width="1" fill="none" />
<polyline points="296.0,434.0,344.0,434.0" stroke="black" stroke-width="1" fill="none" />
<polyline points="344.0,432.0,368.0,408.0" stroke="black" stroke-width="1" fill="none" />
<polyline points="320.0,408.0,296.0,432.0" stroke="black" stroke-width="1" fill="none" />
<polyline points="280.0,426.0,360.0,426.0" stroke="black" stroke-width="1" fill="none" />
<polyline points="304.0,400.0,280.0,424.0" stroke="black" stroke-width="1" fill="none" />
<polyline points="280.0,418.0,368.0,418.0" stroke="black" stroke-width="1" fill="none" />
<polyline points="296.0,400.0,288.0,408.0" stroke="black" stroke-width="1" fill="none" />
<polyline points="288.0,402.0,376.0,402.0" stroke="black" stroke-width="1" fill="none" />
<polyline points="344.0,344.0,288.0,400.0" stroke="black" stroke-width="1" fill="none" />
<polyline points="280.0,394.0,360.0,394.0" stroke="black" stroke-width="1" fill="none" />
<polyline points="296.0,384.0,360.0,320.0" stroke="black" stroke-width="1" fill="none" />
<polyline points="368.0,304.0,296.0,376.0" stroke="black" stroke-width="1" fill="none" />
<polyline points="296.0,382.0,344.0,382.0" stroke="black" stroke-width="1" fill="none" />
<polyline points="352.0,386.0,288.0,386.0" stroke="black" stroke-width="1" fill="none" />
<polyline points="280.0,376.0,376.0,280.0" stroke="black" stroke-width="1" fill="none" />
<polyline points="368.0,280.0,248.0,400.0" stroke="black" stroke-width="1" fill="none" />
<polyline points="256.0,400.0,272.0,384.0" stroke="black" stroke-width="1" fill="none" />
<polyline points="280.0,374.0,328.0,374.0" stroke="black" stroke-width="1" fill="none" />
<polyline points="328.0,366.0,288.0,366.0" stroke="black" stroke-width="1" fill="none" />
<polyline points="288.0,358.0,328.0,358.0" stroke="black" stroke-width="1" fill="none" />
<polyline points="304.0,326.0,352.0,326.0" stroke="black" stroke-width="1" fill="none" />
<polyline points="368.0,286.0,304.0,286.0" stroke="black" stroke-width="1" fill="none" />
<polyline points="304.0,278.0,368.0,278.0" stroke="black" stroke-width="1" fill="none" />
<polyline points="376.0,264.0,280.0,360.0" stroke="black" stroke-width="1" fill="none" />
<polyline points="280.0,354.0,336.0,354.0" stroke="black" stroke-width="1" fill="none" />
<polyline points="360.0,318.0,296.0,318.0" stroke="black" stroke-width="1" fill="none" />
<polyline points="296.0,310.0,360.0,310.0" stroke="black" stroke-width="1" fill="none" />
<polyline points="368.0,256.0,288.0,336.0" stroke="black" stroke-width="1" fill="none" />
<polyline points="288.0,334.0,352.0,334.0" stroke="black" stroke-width="1" fill="none" />
<polyline points="288.0,328.0,368.0,248.0" stroke="black" stroke-width="1" fill="none" />
<polyline points="368.0,240.0,288.0,320.0" stroke="black" stroke-width="1" fill="none" />
<polyline points="288.0,314.0,360.0,314.0" stroke="black" stroke-width="1" fill="none" />
<polyline points="376.0,256.0,280.0,352.0" stroke="black" stroke-width="1" fill="none" />
<polyline points="280.0,346.0,344.0,346.0" stroke="black" stroke-width="1" fill="none" />
<polyline points="368.0,302.0,296.0,302.0" stroke="black" stroke-width="1" fill="none" />
<polyline points="296.0,296.0,360.0,232.0" stroke="black" stroke-width="1" fill="none" />
<polyline points="360.0,240.0,288.0,312.0" stroke="black" stroke-width="1" fill="none" />
<polyline points="288.0,306.0,368.0,306.0" stroke="black" stroke-width="1" fill="none" />
<polyline points="336.0,350.0,288.0,350.0" stroke="black" stroke-width="1" fill="none" />
<polyline points="288.0,342.0,344.0,342.0" stroke="black" stroke-width="1" fill="none" />
<polyline points="296.0,326.0,288.0,326.0" stroke="black" stroke-width="1" fill="none" />
<polyline points="280.0,322.0,360.0,322.0" stroke="black" stroke-width="1" fill="none" />
<polyline points="368.0,298.0,288.0,298.0" stroke="black" stroke-width="1" fill="none" />
<polyline points="280.0,296.0,376.0,200.0" stroke="black" stroke-width="1" fill="none" />
<polyline points="376.0,192.0,264.0,304.0" stroke="black" stroke-width="1" fill="none" />
<polyline points="256.0,320.0,200.0,376.0" stroke="black" stroke-width="1" fill="none" />
<polyline points="200.0,374.0,208.0,374.0" stroke="black" stroke-width="1" fill="none" />
<polyline points="208.0,376.0,256.0,328.0" stroke="black" stroke-width="1" fill="none" />
<polyline points="264.0,328.0,136.0,456.0" stroke="black" stroke-width="1" fill="none" />
<polyline points="136.0,458.0,232.0,458.0" stroke="black" stroke-width="1" fill="none" />
<polyline points="224.0,464.0,200.0,488.0" stroke="black" stroke-width="1" fill="none" />
<polyline points="200.0,486.0,208.0,486.0" stroke="black" stroke-width="1" fill="none" />
<polyline points="208.0,494.0,200.0,494.0" stroke="black" stroke-width="1" fill="none" />
<polyline points="200.0,496.0,224.0,472.0" stroke="black" stroke-width="1" fill="none" />
<polyline points="224.0,480.0,192.0,512.0" stroke="black" stroke-width="1" fill="none" />
<polyline points="192.0,514.0,272.0,514.0" stroke="black" stroke-width="1" fill="none" />
<polyline points="272.0,512.0,232.0,552.0" stroke="black" stroke-width="1" fill="none" />
<polyline points="232.0,560.0,224.0,568.0" stroke="black" stroke-width="1" fill="none" />
<polyline points="232.0,576.0,272.0,536.0" stroke="black" stroke-width="1" fill="none" />
<polyline points="272.0,528.0,224.0,576.0" stroke="black" stroke-width="1" fill="none" />
<polyline points="216.0,578.0,272.0,578.0" stroke="black" stroke-width="1" fill="none" />
<polyline points="264.0,576.0,256.0,584.0" stroke="black" stroke-width="1" fill="none" />
<polyline points="248.0,584.0,232.0,600.0" stroke="black" stroke-width="1" fill="none" />
<polyline points="232.0,602.0,224.0,602.0" stroke="black" stroke-width="1" fill="none" />
<polyline points="224.0,594.0,248.0,594.0" stroke="black" stroke-width="1" fill="none" />
<polyline points="240.0,584.0,248.0,576.0" stroke="black" stroke-width="1" fill="none" />
<polyline points="232.0,584.0,272.0,544.0" stroke="black" stroke-width="1" fill="none" />
<polyline points="272.0,552.0,264.0,560.0" stroke="black" stroke-width="1" fill="none" />
<polyline points="240.0,552.0,272.0,520.0" stroke="black" stroke-width="1" fill="none" />
<polyline points="264.0,512.0,240.0,536.0" stroke="black" stroke-width="1" fill="none" />
<polyline points="232.0,536.0,264.0,504.0" stroke="black" stroke-width="1" fill="none" />
<polyline points="264.0,496.0,232.0,528.0" stroke="black" stroke-width="1" fill="none" />
<polyline points="232.0,520.0,248.0,504.0" stroke="black" stroke-width="1" fill="none" />
<polyline points="240.0,504.0,224.0,520.0" stroke="black" stroke-width="1" fill="none" />
<polyline points="216.0,520.0,240.0,496.0" stroke="black" stroke-width="1" fill="none" />
<polyline points="232.0,496.0,208.0,520.0" stroke="black" stroke-width="1" fill="none" />
<polyline points="200.0,512.0,232.0,480.0" stroke="black" stroke-width="1" fill="none" />
<polyline points="232.0,488.0,192.0,528.0" stroke="black" stroke-width="1" fill="none" />
<polyline points="192.0,530.0,272.0,530.0" stroke="black" stroke-width="1" fill="none" />
<polyline points="264.0,510.0,256.0,510.0" stroke="black" stroke-width="1" fill="none" />
<polyline points="256.0,502.0,264.0,502.0" stroke="black" stroke-width="1" fill="none" />
<polyline points="264.0,498.0,256.0,498.0" stroke="black" stroke-width="1" fill="none" />
<polyline points="256.0,496.0,264.0,488.0" stroke="black" stroke-width="1" fill="none" />
<polyline points="264.0,490.0,256.0,490.0" stroke="black" stroke-width="1" fill="none" />
<polyline points="256.0,482.0,264.0,482.0" stroke="black" stroke-width="1" fill="none" />
<polyline points="264.0,474.0,256.0,474.0" stroke="black" stroke-width="1" fill="none" />
<polyline points="256.0,466.0,264.0,466.0" stroke="black" stroke-width="1" fill="none" />
<polyline points="264.0,458.0,256.0,458.0" stroke="black" stroke-width="1" fill="none" />
<polyline points="256.0,450.0,272.0,450.0" stroke="black" stroke-width="1" fill="none" />
<polyline points="264.0,440.0,256.0,448.0" stroke="black" stroke-width="1" fill="none" />
<polyline points="256.0,442.0,280.0,442.0" stroke="black" stroke-width="1" fill="none" />
<polyline points="272.0,434.0,288.0,434.0" stroke="black" stroke-width="1" fill="none" />
<polyline points="280.0,410.0,376.0,410.0" stroke="black" stroke-width="1" fill="none" />
<polyline points="272.0,368.0,240.0,400.0" stroke="black" stroke-width="1" fill="none" />
<polyline points="232.0,416.0,168.0,480.0" stroke="black" stroke-width="1" fill="none" />
<polyline points="168.0,482.0,232.0,482.0" stroke="black" stroke-width="1" fill="none" />
<polyline points="232.0,494.0,224.0,494.0" stroke="black" stroke-width="1" fill="none" />
<polyline points="224.0,478.0,216.0,478.0" stroke="black" stroke-width="1" fill="none" />
<polyline points="216.0,462.0,208.0,462.0" stroke="black" stroke-width="1" fill="none" />
<polyline points="208.0,454.0,216.0,454.0" stroke="black" stroke-width="1" fill="none" />
<polyline points="232.0,448.0,192.0,488.0" stroke="black" stroke-width="1" fill="none" />
<polyline points="192.0,490.0,232.0,490.0" stroke="black" stroke-width="1" fill="none" />
<polyline points="224.0,470.0,200.0,470.0" stroke="black" stroke-width="1" fill="none" />
<polyline points="184.0,470.0,176.0,470.0" stroke="black" stroke-width="1" fill="none" />
<polyline points="176.0,480.0,232.0,424.0" stroke="black" stroke-width="1" fill="none" />
<polyline points="232.0,432.0,176.0,488.0" stroke="black" stroke-width="1" fill="none" />
<polyline points="184.0,488.0,232.0,440.0" stroke="black" stroke-width="1" fill="none" />
<polyline points="232.0,438.0,224.0,438.0" stroke="black" stroke-width="1" fill="none" />
<polyline points="224.0,422.0,216.0,422.0" stroke="black" stroke-width="1" fill="none" />
<polyline points="224.0,416.0,160.0,480.0" stroke="black" stroke-width="1" fill="none" />
<polyline points="160.0,472.0,272.0,360.0" stroke="black" stroke-width="1" fill="none" />
<polyline points="272.0,352.0,152.0,472.0" stroke="black" stroke-width="1" fill="none" />
<polyline points="152.0,474.0,232.0,474.0" stroke="black" stroke-width="1" fill="none" />
<polyline points="240.0,498.0,192.0,498.0" stroke="black" stroke-width="1" fill="none" />
<polyline points="192.0,506.0,272.0,506.0" stroke="black" stroke-width="1" fill="none" />
<polyline points="264.0,434.0,256.0,434.0" stroke="black" stroke-width="1" fill="none" />
<polyline points="256.0,426.0,264.0,426.0" stroke="black" stroke-width="1" fill="none" />
<polyline points="264.0,418.0,256.0,418.0" stroke="black" stroke-width="1" fill="none" />
<polyline points="256.0,410.0,264.0,410.0" stroke="black" stroke-width="1" fill="none" />
<polyline points="264.0,390.0,256.0,390.0" stroke="black" stroke-width="1" fill="none" />
<polyline points="256.0,382.0,272.0,382.0" stroke="black" stroke-width="1" fill="none" />
<polyline points="272.0,374.0,256.0,374.0" stroke="black" stroke-width="1" fill="none" />
<polyline points="256.0,366.0,272.0,366.0" stroke="black" stroke-width="1" fill="none" />
<polyline points="272.0,358.0,256.0,358.0" stroke="black" stroke-width="1" fill="none" />
<polyline points="248.0,350.0,272.0,350.0" stroke="black" stroke-width="1" fill="none" />
<polyline points="272.0,344.0,224.0,392.0" stroke="black" stroke-width="1" fill="none" />
<polyline points="216.0,400.0,144.0,472.0" stroke="black" stroke-width="1" fill="none" />
<polyline points="144.0,466.0,224.0,466.0" stroke="black" stroke-width="1" fill="none" />
<polyline points="200.0,462.0,168.0,462.0" stroke="black" stroke-width="1" fill="none" />
<polyline points="160.0,454.0,192.0,454.0" stroke="black" stroke-width="1" fill="none" />
<polyline points="216.0,446.0,152.0,446.0" stroke="black" stroke-width="1" fill="none" />
<polyline points="152.0,438.0,208.0,438.0" stroke="black" stroke-width="1" fill="none" />
<polyline points="208.0,392.0,136.0,464.0" stroke="black" stroke-width="1" fill="none" />
<polyline points="144.0,464.0,264.0,344.0" stroke="black" stroke-width="1" fill="none" />
<polyline points="264.0,336.0,216.0,384.0" stroke="black" stroke-width="1" fill="none" />
<polyline points="208.0,382.0,224.0,382.0" stroke="black" stroke-width="1" fill="none" />
<polyline points="200.0,384.0,136.0,448.0" stroke="black" stroke-width="1" fill="none" />
<polyline points="128.0,448.0,192.0,384.0" stroke="black" stroke-width="1" fill="none" />
<polyline points="184.0,384.0,128.0,440.0" stroke="black" stroke-width="1" fill="none" />
<polyline points="128.0,442.0,232.0,442.0" stroke="black" stroke-width="1" fill="none" />
<polyline points="200.0,378.0,280.0,378.0" stroke="black" stroke-width="1" fill="none" />
<polyline points="280.0,338.0,352.0,338.0" stroke="black" stroke-width="1" fill="none" />
<polyline points="352.0,330.0,280.0,330.0" stroke="black" stroke-width="1" fill="none" />
<polyline points="264.0,342.0,248.0,342.0" stroke="black" stroke-width="1" fill="none" />
<polyline points="248.0,334.0,256.0,334.0" stroke="black" stroke-width="1" fill="none" />
<polyline points="248.0,320.0,200.0,368.0" stroke="black" stroke-width="1" fill="none" />
<polyline points="192.0,368.0,368.0,192.0" stroke="black" stroke-width="1" fill="none" />
<polyline points="368.0,184.0,192.0,360.0" stroke="black" stroke-width="1" fill="none" />
<polyline points="192.0,362.0,328.0,362.0" stroke="black" stroke-width="1" fill="none" />
<polyline points="264.0,302.0,240.0,302.0" stroke="black" stroke-width="1" fill="none" />
<polyline points="216.0,312.0,360.0,168.0" stroke="black" stroke-width="1" fill="none" />
<polyline points="352.0,168.0,216.0,304.0" stroke="black" stroke-width="1" fill="none" />
<polyline points="208.0,304.0,352.0,160.0" stroke="black" stroke-width="1" fill="none" />
<polyline points="352.0,152.0,200.0,304.0" stroke="black" stroke-width="1" fill="none" />
<polyline points="200.0,296.0,352.0,144.0" stroke="black" stroke-width="1" fill="none" />
<polyline points="352.0,136.0,192.0,296.0" stroke="black" stroke-width="1" fill="none" />
<polyline points="192.0,298.0,280.0,298.0" stroke="black" stroke-width="1" fill="none" />
<polyline points="248.0,314.0,208.0,314.0" stroke="black" stroke-width="1" fill="none" />
<polyline points="208.0,306.0,256.0,306.0" stroke="black" stroke-width="1" fill="none" />
<polyline points="256.0,322.0,200.0,322.0" stroke="black" stroke-width="1" fill="none" />
<polyline points="200.0,328.0,184.0,344.0" stroke="black" stroke-width="1" fill="none" />
<polyline points="184.0,346.0,272.0,346.0" stroke="black" stroke-width="1" fill="none" />
<polyline points="280.0,294.0,200.0,294.0" stroke="black" stroke-width="1" fill="none" />
<polyline points="184.0,296.0,344.0,136.0" stroke="black" stroke-width="1" fill="none" />
<polyline points="344.0,128.0,184.0,288.0" stroke="black" stroke-width="1" fill="none" />
<polyline points="176.0,288.0,336.0,128.0" stroke="black" stroke-width="1" fill="none" />
<polyline points="336.0,120.0,168.0,288.0" stroke="black" stroke-width="1" fill="none" />
<polyline points="160.0,288.0,328.0,120.0" stroke="black" stroke-width="1" fill="none" />
<polyline points="328.0,112.0,152.0,288.0" stroke="black" stroke-width="1" fill="none" />
<polyline points="144.0,288.0,320.0,112.0" stroke="black" stroke-width="1" fill="none" />
<polyline points="320.0,104.0,136.0,288.0" stroke="black" stroke-width="1" fill="none" />
<polyline points="136.0,280.0,312.0,104.0" stroke="black" stroke-width="1" fill="none" />
<polyline points="304.0,104.0,128.0,280.0" stroke="black" stroke-width="1" fill="none" />
<polyline points="128.0,278.0,168.0,278.0" stroke="black" stroke-width="1" fill="none" />
<polyline points="176.0,270.0,368.0,270.0" stroke="black" stroke-width="1" fill="none" />
<polyline points="360.0,184.0,184.0,360.0" stroke="black" stroke-width="1" fill="none" />
<polyline points="184.0,354.0,272.0,354.0" stroke="black" stroke-width="1" fill="none" />
<polyline points="336.0,370.0,192.0,370.0" stroke="black" stroke-width="1" fill="none" />
<polyline points="184.0,376.0,128.0,432.0" stroke="black" stroke-width="1" fill="none" />
<polyline points="128.0,434.0,232.0,434.0" stroke="black" stroke-width="1" fill="none" />
<polyline points="232.0,430.0,152.0,430.0" stroke="black" stroke-width="1" fill="none" />
<polyline points="152.0,422.0,208.0,422.0" stroke="black" stroke-width="1" fill="none" />
<polyline points="176.0,376.0,128.0,424.0" stroke="black" stroke-width="1" fill="none" />
<polyline points="128.0,426.0,232.0,426.0" stroke="black" stroke-width="1" fill="none" />
<polyline points="224.0,414.0,152.0,414.0" stroke="black" stroke-width="1" fill="none" />
<polyline points="144.0,414.0,128.0,414.0" stroke="black" stroke-width="1" fill="none" />
<polyline points="128.0,416.0,168.0,376.0" stroke="black" stroke-width="1" fill="none" />
<polyline points="160.0,376.0,128.0,408.0" stroke="black" stroke-width="1" fill="none" />
<polyline points="128.0,406.0,224.0,406.0" stroke="black" stroke-width="1" fill="none" />
<polyline points="184.0,352.0,368.0,168.0" stroke="black" stroke-width="1" fill="none" />
<polyline points="352.0,182.0,312.0,182.0" stroke="black" stroke-width="1" fill="none" />
<polyline points="304.0,174.0,360.0,174.0" stroke="black" stroke-width="1" fill="none" />
<polyline points="296.0,104.0,120.0,280.0" stroke="black" stroke-width="1" fill="none" />
<polyline points="120.0,272.0,296.0,96.0" stroke="black" stroke-width="1" fill="none" />
<polyline points="280.0,96.0,112.0,264.0" stroke="black" stroke-width="1" fill="none" />
<polyline points="112.0,270.0,160.0,270.0" stroke="black" stroke-width="1" fill="none" />
<polyline points="168.0,262.0,368.0,262.0" stroke="black" stroke-width="1" fill="none" />
<polyline points="336.0,126.0,272.0,126.0" stroke="black" stroke-width="1" fill="none" />
<polyline points="272.0,118.0,328.0,118.0" stroke="black" stroke-width="1" fill="none" />
<polyline points="280.0,104.0,112.0,272.0" stroke="black" stroke-width="1" fill="none" />
<polyline points="112.0,274.0,376.0,274.0" stroke="black" stroke-width="1" fill="none" />
<polyline points="296.0,182.0,216.0,182.0" stroke="black" stroke-width="1" fill="none" />
<polyline points="208.0,230.0,360.0,230.0" stroke="black" stroke-width="1" fill="none" />
<polyline points="360.0,238.0,208.0,238.0" stroke="black" stroke-width="1" fill="none" />
<polyline points="168.0,222.0,360.0,222.0" stroke="black" stroke-width="1" fill="none" />
<polyline points="280.0,88.0,104.0,264.0" stroke="black" stroke-width="1" fill="none" />
<polyline points="104.0,262.0,152.0,262.0" stroke="black" stroke-width="1" fill="none" />
<polyline points="128.0,282.0,376.0,282.0" stroke="black" stroke-width="1" fill="none" />
<polyline points="264.0,330.0,184.0,330.0" stroke="black" stroke-width="1" fill="none" />
<polyline points="176.0,338.0,272.0,338.0" stroke="black" stroke-width="1" fill="none" />
<polyline points="296.0,278.0,184.0,278.0" stroke="black" stroke-width="1" fill="none" />
<polyline points="176.0,286.0,288.0,286.0" stroke="black" stroke-width="1" fill="none" />
<polyline points="376.0,290.0,176.0,290.0" stroke="black" stroke-width="1" fill="none" />
<polyline points="176.0,230.0,128.0,230.0" stroke="black" stroke-width="1" fill="none" />
<polyline points="120.0,238.0,192.0,238.0" stroke="black" stroke-width="1" fill="none" />
<polyline points="160.0,222.0,136.0,222.0" stroke="black" stroke-width="1" fill="none" />
<polyline points="112.0,214.0,360.0,214.0" stroke="black" stroke-width="1" fill="none" />
<polyline points="272.0,88.0,96.0,264.0" stroke="black" stroke-width="1" fill="none" />
<polyline points="96.0,258.0,376.0,258.0" stroke="black" stroke-width="1" fill="none" />
<polyline points="272.0,80.0,96.0,256.0" stroke="black" stroke-width="1" fill="none" />
<polyline points="88.0,256.0,264.0,80.0" stroke="black" stroke-width="1" fill="none" />
<polyline points="264.0,72.0,88.0,248.0" stroke="black" stroke-width="1" fill="none" />
<polyline points="88.0,246.0,96.0,246.0" stroke="black" stroke-width="1" fill="none" />
<polyline points="88.0,242.0,368.0,242.0" stroke="black" stroke-width="1" fill="none" />
<polyline points="264.0,78.0,256.0,78.0" stroke="black" stroke-width="1" fill="none" />
<polyline points="256.0,72.0,88.0,240.0" stroke="black" stroke-width="1" fill="none" />
<polyline points="88.0,234.0,360.0,234.0" stroke="black" stroke-width="1" fill="none" />
<polyline points="272.0,86.0,248.0,86.0" stroke="black" stroke-width="1" fill="none" />
<polyline points="240.0,82.0,272.0,82.0" stroke="black" stroke-width="1" fill="none" />
<polyline points="272.0,74.0,248.0,74.0" stroke="black" stroke-width="1" fill="none" />
<polyline points="232.0,88.0,104.0,216.0" stroke="black" stroke-width="1" fill="none" />
<polyline points="104.0,210.0,368.0,210.0" stroke="black" stroke-width="1" fill="none" />
<polyline points="272.0,94.0,224.0,94.0" stroke="black" stroke-width="1" fill="none" />
<polyline points="224.0,88.0,112.0,200.0" stroke="black" stroke-width="1" fill="none" />
<polyline points="112.0,206.0,368.0,206.0" stroke="black" stroke-width="1" fill="none" />
<polyline points="208.0,96.0,104.0,200.0" stroke="black" stroke-width="1" fill="none" />
<polyline points="104.0,198.0,368.0,198.0" stroke="black" stroke-width="1" fill="none" />
<polyline points="280.0,90.0,208.0,90.0" stroke="black" stroke-width="1" fill="none" />
<polyline points="200.0,96.0,104.0,192.0" stroke="black" stroke-width="1" fill="none" />
<polyline points="104.0,190.0,360.0,190.0" stroke="black" stroke-width="1" fill="none" />
<polyline points="280.0,102.0,200.0,102.0" stroke="black" stroke-width="1" fill="none" />
<polyline points="192.0,98.0,312.0,98.0" stroke="black" stroke-width="1" fill="none" />
<polyline points="184.0,104.0,96.0,192.0" stroke="black" stroke-width="1" fill="none" />
<polyline points="96.0,186.0,368.0,186.0" stroke="black" stroke-width="1" fill="none" />
<polyline points="320.0,110.0,184.0,110.0" stroke="black" stroke-width="1" fill="none" />
<polyline points="168.0,112.0,96.0,184.0" stroke="black" stroke-width="1" fill="none" />
<polyline points="96.0,178.0,360.0,178.0" stroke="black" stroke-width="1" fill="none" />
<polyline points="320.0,106.0,168.0,106.0" stroke="black" stroke-width="1" fill="none" />
<polyline points="160.0,112.0,96.0,176.0" stroke="black" stroke-width="1" fill="none" />
<polyline points="96.0,170.0,368.0,170.0" stroke="black" stroke-width="1" fill="none" />
<polyline points="152.0,112.0,104.0,160.0" stroke="black" stroke-width="1" fill="none" />
<polyline points="104.0,154.0,352.0,154.0" stroke="black" stroke-width="1" fill="none" />
<polyline points="144.0,112.0,128.0,128.0" stroke="black" stroke-width="1" fill="none" />
<polyline points="128.0,122.0,344.0,122.0" stroke="black" stroke-width="1" fill="none" />
<polyline points="152.0,106.0,144.0,106.0" stroke="black" stroke-width="1" fill="none" />
<polyline points="136.0,114.0,336.0,114.0" stroke="black" stroke-width="1" fill="none" />
<polyline points="264.0,126.0,136.0,126.0" stroke="black" stroke-width="1" fill="none" />
<polyline points="136.0,118.0,264.0,118.0" stroke="black" stroke-width="1" fill="none" />
<polyline points="344.0,134.0,128.0,134.0" stroke="black" stroke-width="1" fill="none" />
<polyline points="120.0,130.0,352.0,130.0" stroke="black" stroke-width="1" fill="none" />
<polyline points="368.0,254.0,120.0,254.0" stroke="black" stroke-width="1" fill="none" />
<polyline points="120.0,246.0,360.0,246.0" stroke="black" stroke-width="1" fill="none" />
<polyline points="152.0,376.0,128.0,400.0" stroke="black" stroke-width="1" fill="none" />
<polyline points="128.0,398.0,208.0,398.0" stroke="black" stroke-width="1" fill="none" />
<polyline points="144.0,376.0,128.0,392.0" stroke="black" stroke-width="1" fill="none" />
<polyline points="128.0,394.0,272.0,394.0" stroke="black" stroke-width="1" fill="none" />
<polyline points="272.0,522.0,192.0,522.0" stroke="black" stroke-width="1" fill="none" />
<polyline points="192.0,538.0,272.0,538.0" stroke="black" stroke-width="1" fill="none" />
<polyline points="272.0,586.0,264.0,586.0" stroke="black" stroke-width="1" fill="none" />
<polyline points="264.0,594.0,272.0,594.0" stroke="black" stroke-width="1" fill="none" />
<polyline points="272.0,602.0,264.0,602.0" stroke="black" stroke-width="1" fill="none" />
<polyline points="264.0,610.0,272.0,610.0" stroke="black" stroke-width="1" fill="none" />
<polyline points="272.0,618.0,264.0,618.0" stroke="black" stroke-width="1" fill="none" />
<polyline points="264.0,626.0,272.0,626.0" stroke="black" stroke-width="1" fill="none" />
<polyline points="272.0,634.0,264.0,634.0" stroke="black" stroke-width="1" fill="none" />
<polyline points="264.0,642.0,272.0,642.0" stroke="black" stroke-width="1" fill="none" />
<polyline points="272.0,682.0,264.0,682.0" stroke="black" stroke-width="1" fill="none" />
<polyline points="264.0,690.0,272.0,690.0" stroke="black" stroke-width="1" fill="none" />
<polyline points="272.0,698.0,264.0,698.0" stroke="black" stroke-width="1" fill="none" />
<polyline points="264.0,706.0,272.0,706.0" stroke="black" stroke-width="1" fill="none" />
<polyline points="272.0,714.0,264.0,714.0" stroke="black" stroke-width="1" fill="none" />
<polyline points="264.0,722.0,272.0,722.0" stroke="black" stroke-width="1" fill="none" />
<polyline points="272.0,730.0,264.0,730.0" stroke="black" stroke-width="1" fill="none" />
<polyline points="264.0,738.0,280.0,738.0" stroke="black" stroke-width="1" fill="none" />
<polyline points="272.0,746.0,264.0,746.0" stroke="black" stroke-width="1" fill="none" />
<polyline points="264.0,754.0,272.0,754.0" stroke="black" stroke-width="1" fill="none" />
<polyline points="272.0,762.0,264.0,762.0" stroke="black" stroke-width="1" fill="none" />
<polyline points="256.0,586.0,216.0,586.0" stroke="black" stroke-width="1" fill="none" />
<polyline points="208.0,570.0,272.0,570.0" stroke="black" stroke-width="1" fill="none" />
<polyline points="272.0,562.0,200.0,562.0" stroke="black" stroke-width="1" fill="none" />
<polyline points="200.0,554.0,272.0,554.0" stroke="black" stroke-width="1" fill="none" />
<polyline points="272.0,546.0,192.0,546.0" stroke="black" stroke-width="1" fill="none" />
<polyline points="232.0,450.0,128.0,450.0" stroke="black" stroke-width="1" fill="none" />
<polyline points="128.0,418.0,232.0,418.0" stroke="black" stroke-width="1" fill="none" />
<polyline points="200.0,390.0,136.0,390.0" stroke="black" stroke-width="1" fill="none" />
<polyline points="136.0,382.0,176.0,382.0" stroke="black" stroke-width="1" fill="none" />
<polyline points="136.0,376.0,128.0,384.0" stroke="black" stroke-width="1" fill="none" />
<polyline points="128.0,386.0,280.0,386.0" stroke="black" stroke-width="1" fill="none" />
<polyline points="232.0,410.0,128.0,410.0" stroke="black" stroke-width="1" fill="none" />
<polyline points="128.0,402.0,264.0,402.0" stroke="black" stroke-width="1" fill="none" />
<polyline points="192.0,378.0,128.0,378.0" stroke="black" stroke-width="1" fill="none" />
<polyline points="128.0,370.0,144.0,370.0" stroke="black" stroke-width="1" fill="none" />
<polyline points="104.0,266.0,376.0,266.0" stroke="black" stroke-width="1" fill="none" />
<polyline points="344.0,142.0,120.0,142.0" stroke="black" stroke-width="1" fill="none" />
<polyline points="112.0,138.0,352.0,138.0" stroke="black" stroke-width="1" fill="none" />
<polyline points="352.0,158.0,112.0,158.0" stroke="black" stroke-width="1" fill="none" />
<polyline points="112.0,150.0,352.0,150.0" stroke="black" stroke-width="1" fill="none" />
<polyline points="384.0,202.0,104.0,202.0" stroke="black" stroke-width="1" fill="none" />
<polyline points="104.0,194.0,384.0,194.0" stroke="black" stroke-width="1" fill="none" />
<polyline points="208.0,182.0,104.0,182.0" stroke="black" stroke-width="1" fill="none" />
<polyline points="104.0,174.0,296.0,174.0" stroke="black" stroke-width="1" fill="none" />
<polyline points="352.0,166.0,104.0,166.0" stroke="black" stroke-width="1" fill="none" />
<polyline points="96.0,162.0,360.0,162.0" stroke="black" stroke-width="1" fill="none" />
<polyline points="352.0,146.0,104.0,146.0" stroke="black" stroke-width="1" fill="none" />
<polyline points="96.0,218.0,368.0,218.0" stroke="black" stroke-width="1" fill="none" />
<polyline points="376.0,250.0,88.0,250.0" stroke="black" stroke-width="1" fill="none" />
</svg>