<svg xmlns="http://www.w3.org/2000/svg" height="416px" width="496px" version="1.1"><polyline points="16.75,95.75,16.0,97.75,16.0,99.75,16.0,101.75,16.0,103.75,16.0,105.75,16.0,107.75,16.0,109.75,16.0,111.75,16.0,113.75,16.0,115.75,16.0,117.75,15.75,119.75,15.75,121.75,15.75,123.75,15.75,125.75,15.75,127.75,15.75,129.75,15.75,131.75,15.75,133.75,15.75,135.75,15.75,137.75,15.75,139.75,15.75,141.75,15.75,143.75,15.75,145.75,15.75,147.75,15.75,149.75,15.75,151.75,15.75,153.75,15.75,155.75,16.0,157.75,15.75,159.75,15.75,161.75,15.75,163.75,15.75,165.75,15.75,167.75,15.75,169.75,15.75,171.75,15.75,173.75,15.75,175.75,15.75,177.75,15.75,179.75,15.75,181.75,15.75,183.75,15.75,185.75,15.75,187.75,15.75,189.75,15.75,191.75,15.75,193.75,15.75,195.75,15.75,197.75,15.75,199.75,15.75,201.75,15.75,203.75,15.75,205.75,15.75,207.75,15.75,209.75,15.75,211.75,15.75,213.75,15.75,215.75,15.75,217.75,15.75,219.75,15.75,221.75,15.75,223.75,15.75,225.75,15.75,227.75,15.75,229.75,15.75,231.75,16.0,233.75,16.0,235.75,16.0,237.75,16.0,239.75,16.0,241.75,16.0,243.75,16.0,245.75,16.0,247.75,16.0,249.75,16.0,251.75,16.0,253.75,16.0,255.75,16.0,257.75,16.0,259.75,16.0,261.75,16.0,263.75,16.0,265.75,16.0,267.75,16.0,269.75,16.0,271.75,16.0,273.75,16.0,275.75,16.0,277.75,16.0,279.75,16.0,281.75,16.0,283.75,16.0,285.75,16.0,287.75,16.0,289.75,15.75,291.75,16.0,293.75,16.0,295.75,16.0,297.75,16.0,299.75,16.0,301.75,16.0,303.75,16.0,305.75,16.0,307.75,16.0,309.75,16.0,311.75,16.0,313.75,16.0,315.75,16.0,317.75,16.0,319.75,16.0,321.75,16.0,323.75,16.0,325.75,16.0,327.75,16.0,329.75,16.0,331.75,16.0,333.75,16.0,335.75,16.0,337.75,16.0,339.75,16.0,341.75,16.0,343.75,16.0,345.75,16.0,347.75,16.0,349.75,16.0,351.75,15.75,353.75,15.75,355.75,16.0,357.75,16.0,359.75,16.0,361.75,16.0,363.75,16.0,365.75,16.0,367.75,16.0,369.75,16.0,371.75,16.0,373.75,16.0,375.75,16.0,377.75,16.0,379.75,16.0,381.75,16.0,383.75,16.0,385.75,16.0,387.75,16.0,389.75,16.0,391.75,16.0,393.75,16.0,395.75,16.0,397.75,16.0,399.75,16.0,401.75,15.75,403.75,15.75,405.75,15.75,407.75,15.75,409.75,15.75,411.75,15.75,413.75,16.0,415.75,17.75,415.75,19.75,416.0,21.75,416.0,23.75,415.75,25.75,415.75,27.75,415.75,29.75,415.75,31.75,415.75,33.75,415.75,35.75,415.75,37.75,415.75,39.75,415.75,41.75,415.75,43.75,415.75,45.75,415.75,47.75,415.75,49.75,415.75,51.75,415.75,53.75,415.75,55.75,415.75,57.75,416.0,59.75,415.75,61.75,415.75,63.75,415.75,65.75,415.75,67.75,415.75,69.75,415.75,71.75,415.75,73.75,415.75,75.75,415.75,77.75,415.75,79.75,415.75,81.75,415.75,83.75,415.75,85.75,415.75,87.75,415.75,89.75,415.75,91.75,415.75,93.75,415.75,95.75,415.75,97.75,415.75,99.75,415.75,101.75,415.75,103.75,415.75,105.75,415.75,107.75,415.75,109.75,415.75,111.75,415.75,113.75,415.75,115.75,415.75,117.75,415.75,119.75,415.75,121.75,415.75,123.75,416.0,125.75,416.0,127.75,416.0,129.75,416.0,131.75,416.0,133.75,416.0,135.75,416.0,137.75,416.0,139.75,416.0,141.75,416.0,143.75,416.0,145.75,415.75,147.75,415.75,149.75,415.75,151.75,415.75,153.75,415.75,155.75,415.75,157.75,415.75,159.75,415.75,161.75,415.75,163.75,415.75,165.75,415.75,167.75,415.75,169.75,415.75,171.75,415.75,173.75,415.75,175.75,415.75,177.75,415.75,179.75,415.75,181.75,415.75,183.75,415.75,185.75,415.75,187.75,415.75,189.75,415.75,191.75,415.75,193.75,415.75,195.75,415.75,197.75,416.0,199.75,416.0,201.75,416.0,203.75,416.0,205.75,416.0,207.75,416.0,209.75,416.0,211.75,416.0,213.75,415.75,215.75,415.75,217.75,415.75,219.75,415.75,221.75,415.75,223.75,415.75,225.75,415.75,227.75,415.75,229.75,415.75,231.75,415.75,233.75,415.75,235.75,415.75,237.75,415.75,239.75,415.75,241.75,415.75,243.75,415.75,245.75,415.75,247.75,415.75,249.75,415.75,251.75,415.75,253.75,415.75,255.75,415.75,257.75,416.0,259.75,416.0,261.75,416.0,263.75,416.0,265.75,416.0,267.75,416.0,269.75,416.0,271.75,416.0,273.75,416.0,275.75,416.0,277.75,416.0,279.75,416.0,281.75,416.0,283.75,416.0,285.75,416.0,287.75,415.75,289.75,416.0,291.75,415.75,293.75,415.75,295.75,415.75,297.75,415.75,299.75,415.75,301.75,415.75,303.75,415.75,305.75,415.75,307.75,415.75,309.75,415.75,311.75,415.75,313.75,416.0,315.75,416.0,317.75,416.0,319.75,416.0,321.75,416.0,323.75,416.0,325.75,416.0,327.75,416.0,329.75,416.0,331.75,416.0,333.75,416.0,335.75,416.0,337.75,416.0,339.75,416.0,341.75,416.0,343.75,416.0,345.75,416.0,347.75,416.0,349.75,416.0,351.75,415.75,353.75,415.75,355.75,415.75,357.75,415.75,359.75,415.75,361.75,415.75,363.75,415.75,365.75,415.75,367.75,415.75,369.75,415.75,371.75,415.75,373.75,415.75,375.75,415.75,377.75,415.75,379.75,415.75,381.75,415.75,383.75,415.75,385.75,415.75,387.75,415.75,389.75,415.75,391.75,415.75,393.75,415.75,395.75,415.75,397.75,415.75,399.75,415.75,401.75,415.75,403.75,416.0,405.75,416.0,407.75,416.0,409.75,416.0,411.75,416.0,413.75,416.0,415.75,416.0,417.75,416.0,419.75,415.75,421.75,415.75,423.75,415.75,425.75,415.75,427.75,415.75,429.75,415.75,431.75,415.75,433.75,415.75,435.75,415.75,437.75,415.75,439.75,415.75,441.75,415.75,443.75,415.75,445.75,415.75,447.75,415.75,449.75,415.75,451.75,415.75,453.75,416.0,455.75,416.0,457.75,416.0,459.75,416.0,461.75,416.0,463.75,416.0,465.75,416.0,467.75,416.0,469.75,416.0,471.75,416.0,473.75,416.0,475.75,416.0,477.75,416.0,479.75,416.0,481.75,416.0,483.75,415.75,485.75,415.75,487.75,415.75,489.75,415.75,491.75,415.75,493.75,415.75" stroke="black" stroke-width="1" fill="none" />
<polyline points="400.0,243.5,398.0,245.0,396.0,245.25,394.0,245.75,392.0,246.0,390.0,246.5,388.0,247.25" stroke="black" stroke-width="1" fill="none" />
<polyline points="398.25,205.25,396.25,201.25" stroke="black" stroke-width="1" fill="none" />
<polyline points="394.75,191.75,395.75,188.0,391.5,190.0" stroke="black" stroke-width="1" fill="none" />
<polyline points="389.0,187.0,387.0,184.25,385.0,182.25,383.0,180.5,381.0,179.25,379.0,177.5" stroke="black" stroke-width="1" fill="none" />
<polyline points="379.0,177.5,381.0,179.5,384.5,181.5,386.25,183.5,387.5,185.5,389.25,187.5,390.5,189.75,392.5,189.75,394.5,188.75,396.5,188.0" stroke="black" stroke-width="1" fill="none" />
<polyline points="396.5,188.25,395.5,190.25,394.75,192.25,395.0,194.25,395.5,196.25,396.0,198.25,396.0,200.25,396.5,202.25,397.25,204.25,398.75,206.25,400.0,208.25,400.5,210.25,401.0,212.25,401.5,214.25,401.75,216.25,402.25,218.25,402.25,220.25,402.5,222.25,402.5,224.25,403.25,226.25,403.25,228.25,403.25,230.25,403.0,232.25,402.5,234.25,402.25,236.25,402.0,238.25,401.75,240.25,401.0,242.25,399.25,244.25" stroke="black" stroke-width="1" fill="none" />
<polyline points="321.75,216.25,319.75,214.0" stroke="black" stroke-width="1" fill="none" />
<polyline points="319.75,213.5,321.75,213.25" stroke="black" stroke-width="1" fill="none" />
<polyline points="321.75,211.0,319.75,209.0,317.75,206.5,315.75,204.5,313.75,203.0" stroke="black" stroke-width="1" fill="none" />
<polyline points="312.5,196.5,310.5,195.0" stroke="black" stroke-width="1" fill="none" />
<polyline points="310.5,195.0,312.5,197.0,313.5,199.0,313.5,201.0,313.5,203.0,316.0,205.0,317.75,207.0,319.5,209.0,321.5,211.0,322.25,213.0,319.75,214.25,321.5,216.25,323.0,218.25,323.25,220.25,323.75,222.25,323.75,224.25,323.75,226.25,323.75,228.25,324.0,230.25,324.25,232.25,324.25,234.25,324.25,236.25,324.0,238.25,323.75,240.25,323.75,242.25,323.0,244.25,322.25,246.25,321.5,248.25,321.0,250.25,320.0,252.25,318.0,254.25,316.0,256.25,313.25,258.25,311.75,260.25,310.0,262.25,307.75,264.25,305.25,266.25,303.0,268.25,302.25,269.0,304.25,267.5,306.25,265.5,308.25,264.0,310.25,261.75,312.25,259.75,314.25,257.5,316.25,256.0,318.25,253.75,320.25,251.75" stroke="black" stroke-width="1" fill="none" />
<polyline points="295.0,225.75,293.0,227.75,292.75,228.0,294.75,226.0,295.5,224.0" stroke="black" stroke-width="1" fill="none" />
<polyline points="295.5,224.0,293.5,224.75,291.5,227.0,292.0,226.0,294.75,224.0" stroke="black" stroke-width="1" fill="none" />
<polyline points="296.5,206.25,294.5,203.5,292.5,200.5,290.5,197.0,288.5,193.25,286.5,190.0,284.5,187.75,282.5,184.0,280.5,182.25,278.5,179.0,276.5,178.0,274.5,176.75,272.5,175.5,270.5,174.0,268.5,173.0,266.5,172.0" stroke="black" stroke-width="1" fill="none" />
<polyline points="266.5,172.0,270.0,174.0,273.0,176.0,276.25,178.0,279.0,180.0,280.25,182.0,282.25,184.0,283.5,186.0,284.5,188.0,286.25,190.0,287.5,192.0,288.75,194.0,290.0,196.0,290.75,198.0,292.0,200.0,293.5,202.0,294.75,204.0,296.25,206.0,297.25,208.0,297.5,210.0,298.0,212.0,298.0,214.0,298.0,216.0,298.0,218.0" stroke="black" stroke-width="1" fill="none" />
<polyline points="301.5,207.75,299.5,212.75,299.0,214.75,299.5,212.75,300.5,210.75,301.25,208.75,302.0,206.75,302.75,204.75" stroke="black" stroke-width="1" fill="none" />
<polyline points="281.25,201.75,281.75,203.75,282.25,205.75,282.75,207.75,283.0,209.75,283.5,211.75,283.5,213.75,283.75,215.75,284.0,217.75,284.0,219.75,284.0,221.75,283.75,223.75,283.5,225.75,283.5,227.75,283.25,229.75,282.75,231.75,282.75,233.75,282.75,235.75,282.25,237.75" stroke="black" stroke-width="1" fill="none" />
<polyline points="271.5,245.5,271.75,247.5,271.0,249.5,268.75,251.5,266.25,253.5,263.25,255.5,259.25,257.5,256.25,259.5" stroke="black" stroke-width="1" fill="none" />
<polyline points="250.0,261.25,247.25,262.5,249.25,261.5,251.25,261.0,253.25,260.75,255.25,260.0,257.25,258.5,259.25,257.5,261.25,256.5,263.25,255.5,265.25,254.0,267.25,252.75,269.25,251.25,271.25,248.5" stroke="black" stroke-width="1" fill="none" />
<polyline points="269.75,245.5,267.75,246.75,265.75,247.75,263.75,249.0,261.75,250.0,259.75,251.0,257.75,251.75,255.75,252.75,253.75,253.75,252.0,255.0,255.25,253.0,259.5,251.0,263.5,249.0,267.0,247.0,270.75,245.0" stroke="black" stroke-width="1" fill="none" />
<polyline points="256.0,248.5,254.0,250.25,252.0,253.25,250.0,255.0,248.25,256.5,250.25,254.5,252.5,252.5,253.75,250.5,255.75,248.5" stroke="black" stroke-width="1" fill="none" />
<polyline points="247.5,251.5,245.5,252.5,243.5,253.75,241.5,255.25,239.5,256.25,237.5,256.75,235.5,257.0,233.5,257.25" stroke="black" stroke-width="1" fill="none" />
<polyline points="223.5,250.75,225.5,252.0,227.5,252.75,229.5,250.5,231.5,249.0,233.5,247.25,235.5,245.75,237.5,244.5,239.5,243.25,241.5,242.0,243.5,240.75,245.5,239.75,247.5,238.75,249.5,237.5,251.5,236.25,253.5,235.5,255.5,234.25,257.5,233.0,259.5,231.5,261.5,230.0,263.5,228.0,265.5,225.75" stroke="black" stroke-width="1" fill="none" />
<polyline points="267.0,214.75,265.0,211.5,263.0,209.75" stroke="black" stroke-width="1" fill="none" />
<polyline points="262.75,209.5,264.75,208.75" stroke="black" stroke-width="1" fill="none" />
<polyline points="266.0,204.75,264.0,203.5,262.0,203.0" stroke="black" stroke-width="1" fill="none" />
<polyline points="261.25,202.75,263.25,200.5" stroke="black" stroke-width="1" fill="none" />
<polyline points="257.5,202.5,259.5,206.0,261.5,209.25,263.5,213.75,265.5,219.5" stroke="black" stroke-width="1" fill="none" />
<polyline points="276.5,220.25,276.5,222.25,276.5,224.25,276.5,226.25,276.25,228.25,276.0,230.25,275.75,232.25,275.25,234.25,274.75,236.25,274.5,238.25,273.75,240.25,274.0,242.25,273.25,244.25,273.0,246.25,272.5,248.25,272.25,250.25,272.0,252.25,271.75,254.25,271.25,256.25,270.75,258.25,270.0,260.25,270.0,262.25,269.25,264.25,268.5,266.25,267.25,268.25,265.75,270.25,264.0,272.25,262.25,274.25,260.5,276.25,258.5,278.25,256.5,280.25,254.75,282.25,253.0,284.25,251.0,286.25,249.25,288.25,247.25,290.25,245.5,292.25,244.25,294.25,243.5,296.25,240.75,298.25,238.5,300.25,236.25,302.25,233.25,304.25,230.75,306.25,228.5,308.25,226.5,310.25,225.25,312.25,225.75,314.25" stroke="black" stroke-width="1" fill="none" />
<polyline points="225.25,311.75,227.25,309.5,229.25,307.75,231.25,306.0,233.25,304.25,235.25,303.0,237.25,301.0,239.25,299.5,241.25,298.0,243.25,296.5,245.25,292.5,247.25,290.25,249.25,288.25,251.25,286.0,253.25,283.75,255.25,281.5,257.25,279.5,259.25,277.5,261.25,275.25,263.25,273.25,265.25,270.75,267.25,268.25" stroke="black" stroke-width="1" fill="none" />
<polyline points="284.0,284.0,283.5,286.0,283.0,288.0,282.25,290.0,281.25,292.0,279.25,294.0,277.5,296.0,275.75,298.0,273.25,300.0,271.0,302.0,268.5,304.0,264.75,306.0" stroke="black" stroke-width="1" fill="none" />
<polyline points="246.75,307.75,247.25,309.75,246.5,311.75" stroke="black" stroke-width="1" fill="none" />
<polyline points="246.75,307.75,248.75,309.0,250.75,309.25,252.75,309.0,254.75,309.0,256.75,308.5,258.75,308.0,260.75,307.5,262.75,306.75,264.75,306.0,266.75,305.0,268.75,303.75,270.75,302.25,272.75,300.5,274.75,299.0,276.75,296.75,278.75,294.5,280.75,292.5" stroke="black" stroke-width="1" fill="none" />
<polyline points="292.75,296.75,294.0,298.75,295.75,300.75,297.25,302.75,299.0,304.75,301.25,306.75,302.5,308.75,303.25,310.75,302.5,312.75,300.75,314.75,298.25,316.75,295.5,318.75,292.25,320.75,289.0,322.75" stroke="black" stroke-width="1" fill="none" />
<polyline points="287.0,322.0,289.0,322.75,291.0,321.75,293.0,320.25,295.0,319.0,297.0,317.75,299.0,316.25,301.0,314.5,303.0,312.0" stroke="black" stroke-width="1" fill="none" />
<polyline points="302.75,309.25,300.75,306.0,298.75,304.25,296.75,302.0,294.75,299.5,292.75,296.75" stroke="black" stroke-width="1" fill="none" />
<polyline points="286.25,321.25,286.75,320.25,286.0,320.25,287.25,322.25,287.75,324.25,287.25,326.25,286.25,328.25,285.25,330.25,283.25,332.25,280.25,334.25,278.0,336.25,278.25,336.0,280.25,334.25,282.25,333.0,284.25,331.25,286.25,328.25" stroke="black" stroke-width="1" fill="none" />
<polyline points="246.0,312.5,244.0,313.5,242.0,314.0,240.0,314.25,238.0,314.25,236.0,314.0,234.0,312.75,231.0,315.0,229.75,316.0,232.0,314.0,232.75,312.0,232.75,311.0" stroke="black" stroke-width="1" fill="none" />
<polyline points="233.5,311.25,234.25,313.25" stroke="black" stroke-width="1" fill="none" />
<polyline points="238.5,298.75,236.5,298.75,234.5,298.75,232.5,298.25,230.5,298.25,228.5,298.25,226.5,298.25,224.5,298.0,222.5,297.75,220.5,297.5,218.5,297.25,216.5,296.75,214.5,296.5,212.5,295.75,210.5,295.5,208.5,294.25,206.5,293.0,204.5,291.75,202.5,289.25,200.5,287.5" stroke="black" stroke-width="1" fill="none" />
<polyline points="200.5,287.5,202.5,289.5,204.0,291.5,206.75,293.5,210.0,295.5" stroke="black" stroke-width="1" fill="none" />
<polyline points="216.0,301.5,218.75,303.5" stroke="black" stroke-width="1" fill="none" />
<polyline points="233.75,302.75,231.75,303.25,229.75,303.25,227.75,302.75,225.75,303.25,223.75,303.25,221.75,303.5,219.75,303.75,217.75,302.75,215.75,301.0,213.75,301.75,211.75,303.0,209.75,303.0,207.75,303.25,205.75,303.25,203.75,303.25,201.75,302.25,199.75,301.5,197.75,301.25,195.75,300.75,193.75,300.5,191.75,299.25,189.75,298.0,187.75,296.75,185.75,294.75" stroke="black" stroke-width="1" fill="none" />
<polyline points="185.75,294.75,187.75,296.75,190.25,298.75" stroke="black" stroke-width="1" fill="none" />
<polyline points="187.0,267.5,189.0,268.75,191.0,269.0,193.0,268.75,195.0,268.75,197.0,268.75,199.0,268.5,201.0,268.0,203.0,267.5,205.0,267.0,207.0,266.75" stroke="black" stroke-width="1" fill="none" />
<polyline points="206.5,264.75,203.25,265.5,205.75,263.5" stroke="black" stroke-width="1" fill="none" />
<polyline points="212.0,257.75,214.25,259.75,217.25,261.75" stroke="black" stroke-width="1" fill="none" />
<polyline points="216.0,261.0,214.0,259.25,212.0,257.75" stroke="black" stroke-width="1" fill="none" />
<polyline points="208.0,247.5,210.0,249.75,212.0,252.0,214.0,254.0,216.0,256.0,218.0,257.5,220.0,258.75,222.0,258.75,224.0,258.0,226.0,258.0,228.0,257.75,230.0,257.5,232.0,256.75,234.0,255.5,236.0,254.5,238.0,253.5,240.0,252.5,242.0,251.25,244.0,249.75,246.0,248.75,248.0,247.25,250.0,245.5,252.0,243.75,254.0,242.0,256.0,240.25,258.0,238.0,260.0,236.25,262.0,233.5,264.0,230.25,265.75,227.25,264.5,229.25,263.25,231.25,262.25,233.25,260.75,235.25,259.0,237.25,256.5,239.25,255.0,241.25,252.5,243.25,250.25,245.25,248.0,247.25,245.0,249.25,242.0,251.25,238.5,253.25,234.25,255.25" stroke="black" stroke-width="1" fill="none" />
<polyline points="226.25,247.5,224.25,245.5,222.25,244.25,220.25,241.5" stroke="black" stroke-width="1" fill="none" />
<polyline points="220.75,239.5,224.5,241.5" stroke="black" stroke-width="1" fill="none" />
<polyline points="229.75,242.0,227.75,241.75,225.75,241.75,223.75,241.0,221.75,240.0,219.75,237.75" stroke="black" stroke-width="1" fill="none" />
<polyline points="219.75,237.75,219.75,239.75,220.5,241.75,221.5,243.75,224.25,245.75,226.25,247.75,227.0,249.75,228.5,252.5,230.5,253.5,232.5,254.5" stroke="black" stroke-width="1" fill="none" />
<polyline points="229.25,255.0,227.25,255.25,225.25,255.5,223.25,255.75,221.25,255.5,219.25,255.25,217.25,253.75,215.25,252.5,213.25,251.25,211.25,249.75,209.25,247.5,207.25,246.75" stroke="black" stroke-width="1" fill="none" />
<polyline points="207.25,246.75,209.0,248.75,210.5,250.75,212.5,252.75,214.5,254.75,216.5,256.75,219.5,258.75" stroke="black" stroke-width="1" fill="none" />
<polyline points="218.0,262.5,216.0,262.75,214.0,263.0,212.0,263.5,210.0,263.75,208.0,263.5,206.0,263.5,204.0,265.0,202.0,265.0,200.0,264.0,198.0,263.25,196.0,262.25,194.0,260.75,190.75,259.25,188.75,258.0,186.75,256.25,184.75,254.5" stroke="black" stroke-width="1" fill="none" />
<polyline points="184.75,254.5,186.75,256.5,189.5,258.5,191.75,260.5,194.5,261.5,198.25,263.5" stroke="black" stroke-width="1" fill="none" />
<polyline points="192.75,261.25,190.75,261.75,188.75,263.0,186.75,265.75" stroke="black" stroke-width="1" fill="none" />
<polyline points="187.0,267.75,186.75,265.75,188.0,263.75,190.5,261.75" stroke="black" stroke-width="1" fill="none" />
<polyline points="192.75,245.5,194.75,247.75,196.75,249.5,198.75,250.5,200.75,251.25,202.75,252.0,204.75,253.0,206.75,253.75" stroke="black" stroke-width="1" fill="none" />
<polyline points="208.5,247.0,210.5,249.0,212.75,251.0,215.5,253.0,218.75,255.0" stroke="black" stroke-width="1" fill="none" />
<polyline points="225.25,252.0,223.25,250.0,222.75,248.0" stroke="black" stroke-width="1" fill="none" />
<polyline points="231.5,238.5,229.5,237.25,227.5,234.5" stroke="black" stroke-width="1" fill="none" />
<polyline points="227.25,233.25,228.5,230.75,227.5,232.75,227.5,234.75,228.75,236.75,231.75,238.75" stroke="black" stroke-width="1" fill="none" />
<polyline points="236.25,228.75,234.25,225.25" stroke="black" stroke-width="1" fill="none" />
<polyline points="233.5,222.25,231.5,219.25,229.5,217.5,227.5,217.25,225.5,216.75,223.5,216.75,221.5,216.75,219.5,216.75" stroke="black" stroke-width="1" fill="none" />
<polyline points="219.75,222.75,217.25,224.75,216.25,226.75,215.5,228.75,215.25,230.75,215.0,232.75,214.5,234.75,214.25,236.75,214.0,238.75,214.25,240.75,214.75,242.75,215.0,244.75,215.5,246.75,215.5,247.5" stroke="black" stroke-width="1" fill="none" />
<polyline points="219.75,235.0,221.75,236.75,223.75,238.25,225.75,239.25,227.75,240.5,229.75,240.5,231.75,239.25" stroke="black" stroke-width="1" fill="none" />
<polyline points="234.25,232.75,232.25,231.5,230.25,229.5,228.25,226.25,226.0,225.25,224.0,226.5,222.0,228.25,220.0,233.5" stroke="black" stroke-width="1" fill="none" />
<polyline points="216.25,226.0,218.25,223.75,220.25,222.75,222.25,222.0,224.25,221.75,226.25,221.0,228.25,222.25,230.25,223.5" stroke="black" stroke-width="1" fill="none" />
<polyline points="227.5,225.0,228.5,227.0,229.75,229.0,231.25,231.0,234.5,233.0" stroke="black" stroke-width="1" fill="none" />
<polyline points="225.25,239.25,222.25,237.25,220.0,235.25,220.25,233.25,221.0,231.25,221.25,229.25,223.0,227.25,225.75,225.25" stroke="black" stroke-width="1" fill="none" />
<polyline points="226.25,221.25,229.75,223.25" stroke="black" stroke-width="1" fill="none" />
<polyline points="230.0,217.75,231.75,219.75,233.25,221.75,233.75,223.75,234.25,225.75,235.5,227.75,236.75,229.75,237.25,231.75,236.5,234.5,234.0,236.5,232.75,238.0,234.75,236.0,236.75,234.25" stroke="black" stroke-width="1" fill="none" />
<polyline points="246.5,251.75,243.5,253.75,240.5,255.75" stroke="black" stroke-width="1" fill="none" />
<polyline points="214.25,247.0,212.25,245.75,210.25,244.5,208.25,243.0,206.25,241.75,204.25,240.0" stroke="black" stroke-width="1" fill="none" />
<polyline points="196.5,238.75,194.5,239.75,192.5,242.0" stroke="black" stroke-width="1" fill="none" />
<polyline points="195.75,237.0,193.75,235.0,191.75,233.5,189.75,232.25,187.75,231.0,185.75,228.75" stroke="black" stroke-width="1" fill="none" />
<polyline points="185.5,227.25,187.5,224.0,189.5,222.0" stroke="black" stroke-width="1" fill="none" />
<polyline points="190.0,211.75,190.0,213.75,190.0,215.75,190.25,217.75,190.75,219.75,190.0,221.75,187.75,223.75,186.25,225.75,185.5,227.75,186.0,229.75,188.5,231.75,191.75,233.75,194.5,235.75,196.0,237.75,194.25,239.75,192.75,241.75,192.5,243.75,192.75,245.75,194.5,247.75,197.0,249.75,201.5,251.75,205.75,253.75" stroke="black" stroke-width="1" fill="none" />
<polyline points="214.0,247.0,210.75,245.0,208.0,243.0,204.75,241.5,204.0,239.5,203.75,237.5,203.25,235.5,203.0,233.5,203.25,231.5,202.75,229.5,202.5,227.5" stroke="black" stroke-width="1" fill="none" />
<polyline points="219.5,207.5,221.25,209.5,224.25,211.0,227.75,213.0,230.0,215.0,232.0,217.0,233.5,219.0,234.0,221.0" stroke="black" stroke-width="1" fill="none" />
<polyline points="233.5,219.75,232.25,217.25,230.25,215.0,228.25,213.25,226.25,211.75,224.25,211.0,222.25,210.25,220.25,208.0,218.25,207.75,216.5,209.25,219.25,207.25" stroke="black" stroke-width="1" fill="none" />
<polyline points="248.75,187.25,250.75,189.25,252.25,191.25,253.75,193.25,254.75,195.25,255.75,197.25,256.5,199.25,257.0,201.25,257.75,203.25,258.75,205.25,260.0,207.25,261.25,209.25,262.25,211.25,263.0,213.25,263.75,215.25,264.5,217.25,265.25,219.25,266.0,221.25,266.25,223.25,265.75,225.25,264.25,227.25,262.25,229.25,260.0,231.25,257.0,233.25,253.75,235.25,249.75,237.25,246.25,239.25,242.5,241.25,239.25,243.25,236.25,245.25,233.5,247.25,231.25,249.25,229.0,251.25,228.5,253.0,232.25,254.5" stroke="black" stroke-width="1" fill="none" />
<polyline points="274.25,211.0,272.25,206.25" stroke="black" stroke-width="1" fill="none" />
<polyline points="271.5,202.5,271.75,204.5,272.25,206.5,273.0,208.5,274.0,210.5,274.75,212.5,275.25,214.5,275.75,216.5,276.0,218.5,275.0,220.5,274.25,222.5,273.0,224.5,272.0,226.5,270.75,228.5,269.25,230.5,268.0,232.5,266.25,234.5,264.75,236.5,262.75,238.5,261.25,240.5,259.5,242.5,259.75,242.25,261.75,240.0,263.75,237.5,265.75,235.25,267.75,232.75,269.75,230.0,271.75,226.75,273.75,223.0,275.75,219.0" stroke="black" stroke-width="1" fill="none" />
<polyline points="277.25,207.0,277.75,209.0,278.25,211.0,278.75,213.0,279.0,215.0,279.5,217.0,280.0,219.0,280.25,221.0,280.75,223.0,280.75,225.0,281.25,227.0,281.25,229.0,281.5,231.0,281.5,233.0,281.25,235.0,281.25,237.0,280.75,239.0,280.5,241.0,280.25,243.0" stroke="black" stroke-width="1" fill="none" />
<polyline points="267.75,226.5,265.75,230.75,263.75,234.25,261.75,237.5,259.75,240.5,257.75,242.5,255.75,244.25,253.75,246.0,251.75,247.75,249.75,249.0,247.75,250.25,245.75,250.75,243.75,251.75,241.75,253.25,239.5,254.25,237.5,255.25,235.5,255.75,239.5,254.25,242.25,252.75,245.5,250.75,250.25,248.75,252.75,246.75,255.25,244.75,257.25,242.75,259.25,240.75,261.0,238.75,262.25,236.75,263.5,234.75,264.75,232.75,265.75,230.75,267.0,228.75,267.75,226.75,268.25,224.75,269.0,222.75,269.5,220.75,270.0,218.75,270.25,216.75,270.5,214.75,270.5,212.75,270.5,210.75,270.5,208.75,270.75,206.75,270.75,204.75,270.5,202.75" stroke="black" stroke-width="1" fill="none" />
<polyline points="270.0,190.5,268.0,189.25" stroke="black" stroke-width="1" fill="none" />
<polyline points="265.5,188.0,267.5,189.25,270.0,191.0,269.5,193.0" stroke="black" stroke-width="1" fill="none" />
<polyline points="270.25,191.5,268.25,193.75,267.25,195.25,266.75,194.25,266.0,192.25,266.0,190.25,265.5,188.25,264.25,186.25,262.25,185.0,260.25,182.75,258.25,181.0,256.25,178.75,254.25,176.75" stroke="black" stroke-width="1" fill="none" />
<polyline points="254.25,176.75,256.0,178.75,258.0,180.75,260.0,182.75,261.75,184.75,264.5,186.75,263.5,188.25,264.25,190.25,265.0,192.25,265.5,194.25,266.25,196.25,266.75,198.25,266.75,200.25,267.0,202.25,267.25,204.25,267.5,206.25,267.5,208.25,268.0,210.25,268.0,212.25,268.0,214.25" stroke="black" stroke-width="1" fill="none" />
<polyline points="254.75,195.0,252.75,191.5,250.75,189.0,248.75,187.25" stroke="black" stroke-width="1" fill="none" />
<polyline points="260.75,169.75,258.75,167.25,256.75,165.25,254.75,163.5,252.75,162.0,250.75,160.5,248.75,159.75,246.75,158.5,244.75,156.75,242.75,155.0,240.75,153.75,238.75,153.0,236.75,151.75,234.75,151.5,232.75,151.5,230.75,151.75" stroke="black" stroke-width="1" fill="none" />
<polyline points="236.5,151.5,239.25,153.5,243.0,155.5,245.25,157.5,248.25,159.5,251.5,161.5,254.5,163.5,256.75,165.5,258.75,167.5,260.25,169.5,261.75,171.5" stroke="black" stroke-width="1" fill="none" />
<polyline points="236.0,169.0,240.0,171.0,242.25,173.0,245.25,175.0,247.5,177.0,250.25,179.0,252.5,181.0,254.25,183.0,256.0,185.0,257.75,187.0,259.0,189.0,260.5,191.0,261.5,193.0,263.0,195.0,263.5,197.0,263.5,199.0,263.0,201.0,261.25,203.0,266.0,205.0,266.0,207.0,263.25,208.75,264.25,210.75,265.75,212.75,266.75,214.75" stroke="black" stroke-width="1" fill="none" />
<polyline points="263.5,196.25,261.5,192.75,259.5,189.5,257.5,186.5,255.5,184.25,253.5,182.0,251.5,179.75,249.5,178.25,247.5,176.75,245.5,175.0,243.5,174.0,241.5,172.25,239.5,170.75,237.5,169.5,235.5,168.75,233.5,168.75,231.5,168.75,229.5,169.25,227.5,170.0,225.5,170.25,223.5,170.0,221.5,170.0,219.5,169.75,217.5,169.25,215.5,168.5,213.5,168.75,212.5,170.25,214.0,168.25" stroke="black" stroke-width="1" fill="none" />
<polyline points="211.5,171.0,209.5,171.0,207.5,171.5,205.5,171.5,203.5,172.0,201.5,172.0,199.5,172.5,197.5,172.75,195.5,173.5,193.5,174.25,191.5,175.25,189.5,176.25,187.5,177.75,185.5,179.5,183.5,182.25,181.5,185.5,179.5,189.25,177.5,191.75" stroke="black" stroke-width="1" fill="none" />
<polyline points="150.75,196.75,148.75,192.0" stroke="black" stroke-width="1" fill="none" />
<polyline points="148.5,183.0,150.5,179.5,152.5,175.75,154.5,172.25,156.5,169.25,158.5,167.25,160.5,165.25" stroke="black" stroke-width="1" fill="none" />
<polyline points="165.5,152.25,167.5,147.75,169.5,143.75,171.5,141.75,173.5,139.5,175.5,137.5,177.5,136.25,179.5,135.5,181.5,134.75,183.5,134.25,185.5,133.25,187.5,132.25,189.5,131.0,191.5,130.5,193.5,129.75,195.5,128.5,197.5,127.25,199.5,126.75,201.5,126.5,203.5,126.25,205.5,126.0,207.5,126.0,209.5,126.25,211.5,127.0,213.5,127.5,215.5,125.0,217.5,123.25,219.5,122.5,221.5,121.75,223.5,121.5,225.5,121.0,227.5,120.25,229.5,120.0,231.5,119.75,233.5,119.5,235.5,119.5,237.5,119.0,239.5,119.5,241.5,119.75,243.5,120.5,245.5,120.75,247.5,120.75,249.5,121.0,251.5,121.5,253.5,122.25,255.5,122.75,257.5,123.25,259.5,123.75,261.5,124.25,263.5,124.75,265.5,125.25,267.5,126.0,269.5,126.75,271.5,127.75,273.5,128.75,275.5,130.0" stroke="black" stroke-width="1" fill="none" />
<polyline points="276.25,130.75,273.25,128.75,269.5,126.75" stroke="black" stroke-width="1" fill="none" />
<polyline points="222.0,121.5,217.25,123.5,215.0,125.5,213.5,127.5" stroke="black" stroke-width="1" fill="none" />
<polyline points="197.5,127.25,194.25,129.25,189.25,131.25,185.0,133.25,180.25,135.25,175.75,137.25,173.75,139.25,172.0,141.25,170.0,143.25,168.75,145.25,167.75,147.25,166.75,149.25,166.0,151.25,165.25,153.25,164.5,155.25,163.75,157.25,162.5,159.25,162.25,161.25,161.5,163.25,160.5,165.25,158.5,167.25,156.5,169.25,155.25,171.25,153.75,173.25,152.75,175.25,151.75,177.25,150.75,179.25,149.5,181.25,148.5,183.25,147.75,185.25,147.25,187.25,147.75,189.25,148.5,191.25,149.0,193.25,150.0,195.25,150.75,197.25,151.25,199.25" stroke="black" stroke-width="1" fill="none" />
<polyline points="176.5,195.5,176.0,193.5,178.5,190.75,179.75,188.75,181.0,186.75,182.0,184.75,183.25,182.75,184.5,180.75,186.25,178.75,188.75,176.75,192.0,174.75,197.25,172.75" stroke="black" stroke-width="1" fill="none" />
<polyline points="308.25,96.5,306.5,98.5,305.25,100.5,305.5,100.0,307.5,96.75,309.5,96.75,312.0,96.75,314.0,97.25,316.0,98.5,318.25,99.5,320.25,100.5,322.25,102.25,324.25,103.5,326.25,105.75,328.25,108.0,330.25,110.5,332.25,113.25,334.25,115.5" stroke="black" stroke-width="1" fill="none" />
<polyline points="336.5,123.5,338.5,125.75,340.5,129.25" stroke="black" stroke-width="1" fill="none" />
<polyline points="342.5,134.75,344.5,138.25" stroke="black" stroke-width="1" fill="none" />
<polyline points="347.0,153.25,349.0,156.25" stroke="black" stroke-width="1" fill="none" />
<polyline points="348.0,154.75,347.25,152.75,347.0,150.75,347.0,148.75,346.75,146.75,346.75,144.75,345.75,142.75,345.25,140.75,344.75,138.75,343.25,136.75,342.5,134.75,341.75,132.75,341.0,130.75,340.0,128.75,339.0,126.75,337.25,124.75,336.25,122.75,336.0,120.75,335.5,118.75,335.0,116.75,333.5,114.75,331.75,112.75,330.25,110.75,328.75,108.75,327.25,106.75,325.25,104.75,323.25,102.75,320.25,100.75,317.0,98.75,313.25,97.0" stroke="black" stroke-width="1" fill="none" />
<polyline points="189.0,339.0,188.75,341.0,188.25,343.0,188.0,345.0,188.25,346.5,190.25,346.75,192.25,346.25,194.25,346.0" stroke="black" stroke-width="1" fill="none" />
<polyline points="15.75,96.75,17.75,96.0,19.75,96.0,21.75,95.75,23.75,95.75,25.75,95.75,27.75,95.75,29.75,95.75,31.75,95.75,33.75,95.75,35.75,95.75,37.75,95.75,39.75,95.75,41.75,95.75,43.75,95.75,45.75,95.75,47.75,95.75,49.75,95.75,51.75,95.75,53.75,95.75,55.75,95.75,57.75,95.75,59.75,95.75,61.75,96.0,63.75,95.75,65.75,95.75,67.75,96.0,69.75,96.0,71.75,96.0,73.75,96.0,75.75,95.75,77.75,95.75,79.75,95.75,81.75,95.75,83.75,95.75,85.75,95.75,87.75,95.75,89.75,95.75,91.75,95.75,93.75,95.75,95.75,95.75,97.75,95.75,99.75,95.75,101.75,95.75,103.75,95.75,105.75,95.75,107.75,95.75,109.75,95.75,111.75,95.75,113.75,95.75,115.75,95.75,117.75,95.75,119.75,95.75,121.75,95.75,123.75,95.75,125.75,95.75,127.75,95.75,129.75,95.75,131.75,95.75,133.75,95.75,135.75,95.75,137.75,95.75,139.75,95.75,141.75,95.75,143.75,95.75,145.75,95.75,147.75,95.75,149.75,95.75,151.75,95.75,153.75,95.75,155.75,95.75,157.75,95.75,159.75,95.75,161.75,95.75,163.75,95.75,165.75,95.75,167.75,95.75,169.75,95.75,171.75,95.75,173.75,95.75,175.75,95.75,177.75,95.75,179.75,95.75,181.75,95.75,183.75,95.75,185.75,95.75,187.75,95.75,189.75,95.75,191.75,95.75,193.75,95.75,195.75,95.75,197.75,95.75,199.75,95.75,201.75,95.75,203.75,95.75,205.75,95.75,207.75,95.75,209.75,95.75,211.75,95.75,213.75,95.75,215.75,95.75,217.75,95.75,219.75,95.75,221.75,95.75,223.75,95.75,225.75,95.75,227.75,95.75,229.75,95.75,231.75,95.75,233.75,95.75,235.75,95.75,237.75,95.75,239.75,95.75,241.75,95.75,243.75,95.75,245.75,95.75,247.75,95.75,249.75,95.75,251.75,95.75,253.75,95.75,255.75,95.75,257.75,95.75,259.75,95.75,261.75,95.75,263.75,95.75,265.75,95.75,267.75,95.75,269.75,95.75,271.75,95.75,273.75,95.75,275.75,95.75,277.75,95.75,279.75,95.75,281.75,95.75,283.75,95.75,285.75,95.75,287.75,95.75,289.75,95.75,291.75,95.75,293.75,95.75,295.75,95.75,297.75,95.75,299.75,95.75,301.75,95.75,303.75,95.75,305.75,95.75,307.75,96.0,309.75,96.0,311.75,96.0,313.75,95.75,315.75,95.75,317.75,95.75,319.75,95.75,321.75,95.75,323.75,95.75,325.75,95.75,327.75,95.75,329.75,95.75,331.75,95.75,333.75,95.75,335.75,95.75,337.75,95.75,339.75,95.75,341.75,95.75,343.75,95.75,345.75,95.75,347.75,95.75,349.75,95.75,351.75,95.75,353.75,95.75,355.75,95.75,357.75,95.75,359.75,95.75,361.75,95.75,363.75,95.75,365.75,95.75,367.75,95.75,369.75,95.75,371.75,95.75,373.75,95.75,375.75,95.75,377.75,95.75,379.75,95.75,381.75,95.75,383.75,95.75,385.75,95.75,387.75,95.75,389.75,95.75,391.75,96.0,393.75,96.0,395.75,96.0,397.75,96.0,399.75,96.0,401.75,96.0,403.75,96.0,405.75,96.0,407.75,96.0,409.75,96.0,411.75,96.0,413.75,96.0,415.75,96.0,417.75,96.0,419.75,96.0,421.75,96.0,423.75,96.0,425.75,96.0,427.75,96.0,429.75,96.0,431.75,96.0,433.75,96.0,435.75,96.0,437.75,96.0,439.75,96.0,441.75,96.0,443.75,96.0,445.75,96.0,447.75,96.0,449.75,96.0,451.75,96.0,453.75,96.0,455.75,96.0,457.75,96.0,459.75,96.0,461.75,96.0,463.75,96.0,465.75,96.0,467.75,96.0,469.75,96.0,471.75,96.0,473.75,96.0,475.75,96.0,477.75,96.0,479.75,96.0,481.75,96.0,483.75,96.0,485.75,96.0,487.75,96.0,489.75,96.0,491.75,96.0,493.75,96.0,495.75,96.0,495.75,97.5,495.75,99.5,495.75,101.5,495.75,103.5,495.75,105.5,495.75,107.5,495.75,109.5,495.75,111.5,495.75,113.5,495.75,115.5,495.75,117.5,495.75,119.5,495.75,121.5,495.75,123.5,495.75,125.5,495.75,127.5,495.75,129.5,495.75,131.5,495.75,133.5,495.75,135.5,495.75,137.5,495.75,139.5,495.75,141.5,495.75,143.5,495.75,145.5,495.75,147.5,495.75,149.5,495.75,151.5,495.75,153.5,495.75,155.5,495.75,157.5,495.75,159.5,495.75,161.5,495.75,163.5,495.75,165.5,495.75,167.5,495.75,169.5,495.75,171.5,495.75,173.5,495.75,175.5,495.75,177.5,495.75,179.5,495.75,181.5,495.75,183.5,496.0,185.5,496.0,187.5,496.0,189.5,496.0,191.5,496.0,193.5,496.0,195.5,496.0,197.5,496.0,199.5,495.75,201.5,495.75,203.5,496.0,205.5,496.0,207.5,496.0,209.5,496.0,211.5,496.0,213.5,496.0,215.5,496.0,217.5,496.0,219.5,496.0,221.5,495.75,223.5,496.0,225.5,496.0,227.5,496.0,229.5,496.0,231.5,496.0,233.5,496.0,235.5,496.0,237.5,496.0,239.5,496.0,241.5,496.0,243.5,496.0,245.5,496.0,247.5,496.0,249.5,496.0,251.5,496.0,253.5,496.0,255.5,496.0,257.5,496.0,259.5,496.0,261.5,496.0,263.5,496.0,265.5,496.0,267.5,496.0,269.5,496.0,271.5,496.0,273.5,495.75,275.5,496.0,277.5,496.0,279.5,496.0,281.5,496.0,283.5,496.0,285.5,496.0,287.5,496.0,289.5,496.0,291.5,496.0,293.5,496.0,295.5,495.75,297.5,495.75,299.5,495.75,301.5,495.75,303.5,495.75,305.5,495.75,307.5,495.75,309.5,495.75,311.5,495.75,313.5,495.75,315.5,495.75,317.5,495.75,319.5,495.75,321.5,495.75,323.5,495.75,325.5,495.75,327.5,495.75,329.5,495.75,331.5,495.75,333.5,495.75,335.5,495.75,337.5,495.75,339.5,495.75,341.5,495.75,343.5,495.75,345.5,496.0,347.5,496.0,349.5,496.0,351.5,496.0,353.5,496.0,355.5,496.0,357.5,496.0,359.5,496.0,361.5,496.0,363.5,496.0,365.5,496.0,367.5,496.0,369.5,496.0,371.5,496.0,373.5,496.0,375.5,496.0,377.5,496.0,379.5,496.0,381.5,496.0,383.5,496.0,385.5,496.0,387.5,496.0,389.5,496.0,391.5,496.0,393.5,495.75,395.5,495.75,397.5,495.75,399.5,495.75,401.5,495.75,403.5,495.75,405.5,495.75,407.5,495.75,409.5,495.75,411.5,495.75,413.5,495.75,415.5" stroke="black" stroke-width="1" fill="none" />
<polyline points="16.0,98.0,432.0,98.0" stroke="black" stroke-width="1" fill="none" />
<polyline points="440.0,98.0,496.0,98.0" stroke="black" stroke-width="1" fill="none" />
<polyline points="488.0,152.0,400.0,240.0" stroke="black" stroke-width="1" fill="none" />
<polyline points="408.0,238.0,488.0,238.0" stroke="black" stroke-width="1" fill="none" />
<polyline points="496.0,240.0,320.0,416.0" stroke="black" stroke-width="1" fill="none" />
<polyline points="328.0,416.0,496.0,248.0" stroke="black" stroke-width="1" fill="none" />
<polyline points="496.0,256.0,336.0,416.0" stroke="black" stroke-width="1" fill="none" />
<polyline points="352.0,416.0,496.0,272.0" stroke="black" stroke-width="1" fill="none" />
<polyline points="496.0,264.0,344.0,416.0" stroke="black" stroke-width="1" fill="none" />
<polyline points="368.0,416.0,496.0,288.0" stroke="black" stroke-width="1" fill="none" />
<polyline points="496.0,280.0,360.0,416.0" stroke="black" stroke-width="1" fill="none" />
<polyline points="376.0,416.0,496.0,296.0" stroke="black" stroke-width="1" fill="none" />
<polyline points="496.0,304.0,384.0,416.0" stroke="black" stroke-width="1" fill="none" />
<polyline points="392.0,416.0,496.0,312.0" stroke="black" stroke-width="1" fill="none" />
<polyline points="496.0,320.0,400.0,416.0" stroke="black" stroke-width="1" fill="none" />
<polyline points="408.0,416.0,496.0,328.0" stroke="black" stroke-width="1" fill="none" />
<polyline points="496.0,336.0,416.0,416.0" stroke="black" stroke-width="1" fill="none" />
<polyline points="432.0,416.0,496.0,352.0" stroke="black" stroke-width="1" fill="none" />
<polyline points="496.0,344.0,424.0,416.0" stroke="black" stroke-width="1" fill="none" />
<polyline points="448.0,416.0,496.0,368.0" stroke="black" stroke-width="1" fill="none" />
<polyline points="496.0,360.0,440.0,416.0" stroke="black" stroke-width="1" fill="none" />
<polyline points="448.0,406.0,488.0,406.0" stroke="black" stroke-width="1" fill="none" />
<polyline points="496.0,408.0,488.0,416.0" stroke="black" stroke-width="1" fill="none" />
<polyline points="480.0,416.0,496.0,400.0" stroke="black" stroke-width="1" fill="none" />
<polyline points="496.0,392.0,472.0,416.0" stroke="black" stroke-width="1" fill="none" />
<polyline points="464.0,416.0,496.0,384.0" stroke="black" stroke-width="1" fill="none" />
<polyline points="496.0,376.0,456.0,416.0" stroke="black" stroke-width="1" fill="none" />
<polyline points="480.0,398.0,488.0,398.0" stroke="black" stroke-width="1" fill="none" />
<polyline points="488.0,382.0,448.0,382.0" stroke="black" stroke-width="1" fill="none" />
<polyline points="440.0,374.0,488.0,374.0" stroke="black" stroke-width="1" fill="none" />
<polyline points="488.0,358.0,448.0,358.0" stroke="black" stroke-width="1" fill="none" />
<polyline points="440.0,366.0,488.0,366.0" stroke="black" stroke-width="1" fill="none" />
<polyline points="488.0,350.0,416.0,350.0" stroke="black" stroke-width="1" fill="none" />
<polyline points="416.0,342.0,488.0,342.0" stroke="black" stroke-width="1" fill="none" />
<polyline points="488.0,286.0,424.0,286.0" stroke="black" stroke-width="1" fill="none" />
<polyline points="416.0,294.0,488.0,294.0" stroke="black" stroke-width="1" fill="none" />
<polyline points="496.0,232.0,312.0,416.0" stroke="black" stroke-width="1" fill="none" />
<polyline points="304.0,416.0,360.0,360.0" stroke="black" stroke-width="1" fill="none" />
<polyline points="360.0,366.0,376.0,366.0" stroke="black" stroke-width="1" fill="none" />
<polyline points="384.0,366.0,424.0,366.0" stroke="black" stroke-width="1" fill="none" />
<polyline points="440.0,358.0,400.0,358.0" stroke="black" stroke-width="1" fill="none" />
<polyline points="392.0,342.0,384.0,342.0" stroke="black" stroke-width="1" fill="none" />
<polyline points="384.0,336.0,496.0,224.0" stroke="black" stroke-width="1" fill="none" />
<polyline points="496.0,216.0,400.0,312.0" stroke="black" stroke-width="1" fill="none" />
<polyline points="400.0,318.0,408.0,318.0" stroke="black" stroke-width="1" fill="none" />
<polyline points="408.0,310.0,488.0,310.0" stroke="black" stroke-width="1" fill="none" />
<polyline points="488.0,246.0,424.0,246.0" stroke="black" stroke-width="1" fill="none" />
<polyline points="416.0,246.0,408.0,246.0" stroke="black" stroke-width="1" fill="none" />
<polyline points="408.0,230.0,488.0,230.0" stroke="black" stroke-width="1" fill="none" />
<polyline points="496.0,208.0,400.0,304.0" stroke="black" stroke-width="1" fill="none" />
<polyline points="400.0,296.0,496.0,200.0" stroke="black" stroke-width="1" fill="none" />
<polyline points="496.0,192.0,400.0,288.0" stroke="black" stroke-width="1" fill="none" />
<polyline points="400.0,280.0,496.0,184.0" stroke="black" stroke-width="1" fill="none" />
<polyline points="496.0,176.0,392.0,280.0" stroke="black" stroke-width="1" fill="none" />
<polyline points="392.0,282.0,496.0,282.0" stroke="black" stroke-width="1" fill="none" />
<polyline points="488.0,334.0,416.0,334.0" stroke="black" stroke-width="1" fill="none" />
<polyline points="416.0,326.0,488.0,326.0" stroke="black" stroke-width="1" fill="none" />
<polyline points="488.0,318.0,416.0,318.0" stroke="black" stroke-width="1" fill="none" />
<polyline points="408.0,326.0,400.0,326.0" stroke="black" stroke-width="1" fill="none" />
<polyline points="400.0,334.0,392.0,334.0" stroke="black" stroke-width="1" fill="none" />
<polyline points="384.0,322.0,496.0,322.0" stroke="black" stroke-width="1" fill="none" />
<polyline points="488.0,390.0,408.0,390.0" stroke="black" stroke-width="1" fill="none" />
<polyline points="400.0,398.0,440.0,398.0" stroke="black" stroke-width="1" fill="none" />
<polyline points="440.0,406.0,400.0,406.0" stroke="black" stroke-width="1" fill="none" />
<polyline points="384.0,406.0,376.0,406.0" stroke="black" stroke-width="1" fill="none" />
<polyline points="392.0,382.0,424.0,382.0" stroke="black" stroke-width="1" fill="none" />
<polyline points="424.0,374.0,384.0,374.0" stroke="black" stroke-width="1" fill="none" />
<polyline points="376.0,338.0,496.0,338.0" stroke="black" stroke-width="1" fill="none" />
<polyline points="488.0,302.0,408.0,302.0" stroke="black" stroke-width="1" fill="none" />
<polyline points="392.0,298.0,496.0,298.0" stroke="black" stroke-width="1" fill="none" />
<polyline points="488.0,222.0,408.0,222.0" stroke="black" stroke-width="1" fill="none" />
<polyline points="408.0,224.0,480.0,152.0" stroke="black" stroke-width="1" fill="none" />
<polyline points="472.0,152.0,400.0,224.0" stroke="black" stroke-width="1" fill="none" />
<polyline points="400.0,216.0,464.0,152.0" stroke="black" stroke-width="1" fill="none" />
<polyline points="456.0,152.0,400.0,208.0" stroke="black" stroke-width="1" fill="none" />
<polyline points="400.0,206.0,488.0,206.0" stroke="black" stroke-width="1" fill="none" />
<polyline points="496.0,168.0,392.0,272.0" stroke="black" stroke-width="1" fill="none" />
<polyline points="392.0,270.0,488.0,270.0" stroke="black" stroke-width="1" fill="none" />
<polyline points="488.0,214.0,408.0,214.0" stroke="black" stroke-width="1" fill="none" />
<polyline points="400.0,200.0,448.0,152.0" stroke="black" stroke-width="1" fill="none" />
<polyline points="448.0,144.0,400.0,192.0" stroke="black" stroke-width="1" fill="none" />
<polyline points="400.0,190.0,488.0,190.0" stroke="black" stroke-width="1" fill="none" />
<polyline points="488.0,160.0,392.0,256.0" stroke="black" stroke-width="1" fill="none" />
<polyline points="392.0,254.0,488.0,254.0" stroke="black" stroke-width="1" fill="none" />
<polyline points="488.0,278.0,400.0,278.0" stroke="black" stroke-width="1" fill="none" />
<polyline points="392.0,290.0,496.0,290.0" stroke="black" stroke-width="1" fill="none" />
<polyline points="488.0,198.0,400.0,198.0" stroke="black" stroke-width="1" fill="none" />
<polyline points="392.0,194.0,496.0,194.0" stroke="black" stroke-width="1" fill="none" />
<polyline points="496.0,160.0,392.0,264.0" stroke="black" stroke-width="1" fill="none" />
<polyline points="392.0,262.0,488.0,262.0" stroke="black" stroke-width="1" fill="none" />
<polyline points="496.0,314.0,392.0,314.0" stroke="black" stroke-width="1" fill="none" />
<polyline points="376.0,322.0,368.0,322.0" stroke="black" stroke-width="1" fill="none" />
<polyline points="368.0,314.0,384.0,314.0" stroke="black" stroke-width="1" fill="none" />
<polyline points="368.0,306.0,496.0,306.0" stroke="black" stroke-width="1" fill="none" />
<polyline points="496.0,274.0,384.0,274.0" stroke="black" stroke-width="1" fill="none" />
<polyline points="384.0,266.0,496.0,266.0" stroke="black" stroke-width="1" fill="none" />
<polyline points="496.0,258.0,384.0,258.0" stroke="black" stroke-width="1" fill="none" />
<polyline points="360.0,264.0,344.0,280.0" stroke="black" stroke-width="1" fill="none" />
<polyline points="344.0,288.0,360.0,272.0" stroke="black" stroke-width="1" fill="none" />
<polyline points="360.0,280.0,352.0,288.0" stroke="black" stroke-width="1" fill="none" />
<polyline points="360.0,298.0,384.0,298.0" stroke="black" stroke-width="1" fill="none" />
<polyline points="368.0,330.0,496.0,330.0" stroke="black" stroke-width="1" fill="none" />
<polyline points="368.0,338.0,360.0,338.0" stroke="black" stroke-width="1" fill="none" />
<polyline points="344.0,346.0,496.0,346.0" stroke="black" stroke-width="1" fill="none" />
<polyline points="344.0,368.0,296.0,416.0" stroke="black" stroke-width="1" fill="none" />
<polyline points="288.0,416.0,336.0,368.0" stroke="black" stroke-width="1" fill="none" />
<polyline points="328.0,368.0,280.0,416.0" stroke="black" stroke-width="1" fill="none" />
<polyline points="272.0,416.0,288.0,400.0" stroke="black" stroke-width="1" fill="none" />
<polyline points="280.0,400.0,264.0,416.0" stroke="black" stroke-width="1" fill="none" />
<polyline points="256.0,416.0,272.0,400.0" stroke="black" stroke-width="1" fill="none" />
<polyline points="272.0,392.0,248.0,416.0" stroke="black" stroke-width="1" fill="none" />
<polyline points="240.0,416.0,264.0,392.0" stroke="black" stroke-width="1" fill="none" />
<polyline points="264.0,384.0,232.0,416.0" stroke="black" stroke-width="1" fill="none" />
<polyline points="224.0,416.0,264.0,376.0" stroke="black" stroke-width="1" fill="none" />
<polyline points="264.0,368.0,216.0,416.0" stroke="black" stroke-width="1" fill="none" />
<polyline points="208.0,416.0,264.0,360.0" stroke="black" stroke-width="1" fill="none" />
<polyline points="264.0,352.0,200.0,416.0" stroke="black" stroke-width="1" fill="none" />
<polyline points="192.0,416.0,240.0,368.0" stroke="black" stroke-width="1" fill="none" />
<polyline points="232.0,368.0,184.0,416.0" stroke="black" stroke-width="1" fill="none" />
<polyline points="176.0,416.0,224.0,368.0" stroke="black" stroke-width="1" fill="none" />
<polyline points="216.0,368.0,168.0,416.0" stroke="black" stroke-width="1" fill="none" />
<polyline points="160.0,416.0,216.0,360.0" stroke="black" stroke-width="1" fill="none" />
<polyline points="208.0,360.0,152.0,416.0" stroke="black" stroke-width="1" fill="none" />
<polyline points="144.0,416.0,200.0,360.0" stroke="black" stroke-width="1" fill="none" />
<polyline points="200.0,366.0,208.0,366.0" stroke="black" stroke-width="1" fill="none" />
<polyline points="200.0,352.0,136.0,416.0" stroke="black" stroke-width="1" fill="none" />
<polyline points="128.0,416.0,192.0,352.0" stroke="black" stroke-width="1" fill="none" />
<polyline points="184.0,352.0,120.0,416.0" stroke="black" stroke-width="1" fill="none" />
<polyline points="112.0,416.0,184.0,344.0" stroke="black" stroke-width="1" fill="none" />
<polyline points="176.0,344.0,104.0,416.0" stroke="black" stroke-width="1" fill="none" />
<polyline points="96.0,416.0,176.0,336.0" stroke="black" stroke-width="1" fill="none" />
<polyline points="168.0,336.0,112.0,392.0" stroke="black" stroke-width="1" fill="none" />
<polyline points="104.0,392.0,160.0,336.0" stroke="black" stroke-width="1" fill="none" />
<polyline points="152.0,336.0,72.0,416.0" stroke="black" stroke-width="1" fill="none" />
<polyline points="72.0,408.0,144.0,336.0" stroke="black" stroke-width="1" fill="none" />
<polyline points="144.0,328.0,56.0,416.0" stroke="black" stroke-width="1" fill="none" />
<polyline points="48.0,416.0,128.0,336.0" stroke="black" stroke-width="1" fill="none" />
<polyline points="120.0,336.0,40.0,416.0" stroke="black" stroke-width="1" fill="none" />
<polyline points="32.0,416.0,112.0,336.0" stroke="black" stroke-width="1" fill="none" />
<polyline points="112.0,328.0,24.0,416.0" stroke="black" stroke-width="1" fill="none" />
<polyline points="16.0,416.0,104.0,328.0" stroke="black" stroke-width="1" fill="none" />
<polyline points="104.0,320.0,16.0,408.0" stroke="black" stroke-width="1" fill="none" />
<polyline points="16.0,410.0,496.0,410.0" stroke="black" stroke-width="1" fill="none" />
<polyline points="368.0,398.0,328.0,398.0" stroke="black" stroke-width="1" fill="none" />
<polyline points="328.0,390.0,368.0,390.0" stroke="black" stroke-width="1" fill="none" />
<polyline points="376.0,382.0,328.0,382.0" stroke="black" stroke-width="1" fill="none" />
<polyline points="328.0,374.0,368.0,374.0" stroke="black" stroke-width="1" fill="none" />
<polyline points="328.0,360.0,304.0,384.0" stroke="black" stroke-width="1" fill="none" />
<polyline points="312.0,368.0,320.0,360.0" stroke="black" stroke-width="1" fill="none" />
<polyline points="320.0,406.0,360.0,406.0" stroke="black" stroke-width="1" fill="none" />
<polyline points="304.0,330.0,280.0,330.0" stroke="black" stroke-width="1" fill="none" />
<polyline points="280.0,322.0,320.0,322.0" stroke="black" stroke-width="1" fill="none" />
<polyline points="296.0,304.0,312.0,288.0" stroke="black" stroke-width="1" fill="none" />
<polyline points="312.0,280.0,296.0,296.0" stroke="black" stroke-width="1" fill="none" />
<polyline points="288.0,296.0,328.0,256.0" stroke="black" stroke-width="1" fill="none" />
<polyline points="328.0,264.0,320.0,272.0" stroke="black" stroke-width="1" fill="none" />
<polyline points="328.0,280.0,336.0,272.0" stroke="black" stroke-width="1" fill="none" />
<polyline points="336.0,264.0,328.0,272.0" stroke="black" stroke-width="1" fill="none" />
<polyline points="336.0,280.0,352.0,264.0" stroke="black" stroke-width="1" fill="none" />
<polyline points="336.0,240.0,312.0,264.0" stroke="black" stroke-width="1" fill="none" />
<polyline points="312.0,258.0,376.0,258.0" stroke="black" stroke-width="1" fill="none" />
<polyline points="336.0,232.0,328.0,240.0" stroke="black" stroke-width="1" fill="none" />
<polyline points="328.0,232.0,336.0,224.0" stroke="black" stroke-width="1" fill="none" />
<polyline points="320.0,226.0,496.0,226.0" stroke="black" stroke-width="1" fill="none" />
<polyline points="440.0,144.0,392.0,192.0" stroke="black" stroke-width="1" fill="none" />
<polyline points="392.0,184.0,432.0,144.0" stroke="black" stroke-width="1" fill="none" />
<polyline points="424.0,144.0,384.0,184.0" stroke="black" stroke-width="1" fill="none" />
<polyline points="384.0,182.0,488.0,182.0" stroke="black" stroke-width="1" fill="none" />
<polyline points="416.0,144.0,384.0,176.0" stroke="black" stroke-width="1" fill="none" />
<polyline points="376.0,176.0,416.0,136.0" stroke="black" stroke-width="1" fill="none" />
<polyline points="408.0,136.0,376.0,168.0" stroke="black" stroke-width="1" fill="none" />
<polyline points="376.0,174.0,488.0,174.0" stroke="black" stroke-width="1" fill="none" />
<polyline points="408.0,128.0,368.0,168.0" stroke="black" stroke-width="1" fill="none" />
<polyline points="368.0,166.0,488.0,166.0" stroke="black" stroke-width="1" fill="none" />
<polyline points="400.0,128.0,368.0,160.0" stroke="black" stroke-width="1" fill="none" />
<polyline points="360.0,160.0,400.0,120.0" stroke="black" stroke-width="1" fill="none" />
<polyline points="400.0,112.0,352.0,160.0" stroke="black" stroke-width="1" fill="none" />
<polyline points="352.0,152.0,400.0,104.0" stroke="black" stroke-width="1" fill="none" />
<polyline points="392.0,104.0,344.0,152.0" stroke="black" stroke-width="1" fill="none" />
<polyline points="344.0,154.0,496.0,154.0" stroke="black" stroke-width="1" fill="none" />
<polyline points="392.0,96.0,344.0,144.0" stroke="black" stroke-width="1" fill="none" />
<polyline points="344.0,146.0,496.0,146.0" stroke="black" stroke-width="1" fill="none" />
<polyline points="384.0,96.0,344.0,136.0" stroke="black" stroke-width="1" fill="none" />
<polyline points="344.0,134.0,400.0,134.0" stroke="black" stroke-width="1" fill="none" />
<polyline points="376.0,96.0,344.0,128.0" stroke="black" stroke-width="1" fill="none" />
<polyline points="344.0,126.0,400.0,126.0" stroke="black" stroke-width="1" fill="none" />
<polyline points="368.0,96.0,336.0,128.0" stroke="black" stroke-width="1" fill="none" />
<polyline points="336.0,130.0,496.0,130.0" stroke="black" stroke-width="1" fill="none" />
<polyline points="456.0,158.0,360.0,158.0" stroke="black" stroke-width="1" fill="none" />
<polyline points="352.0,150.0,424.0,150.0" stroke="black" stroke-width="1" fill="none" />
<polyline points="408.0,142.0,352.0,142.0" stroke="black" stroke-width="1" fill="none" />
<polyline points="336.0,120.0,360.0,96.0" stroke="black" stroke-width="1" fill="none" />
<polyline points="352.0,96.0,336.0,112.0" stroke="black" stroke-width="1" fill="none" />
<polyline points="336.0,110.0,392.0,110.0" stroke="black" stroke-width="1" fill="none" />
<polyline points="344.0,96.0,328.0,112.0" stroke="black" stroke-width="1" fill="none" />
<polyline points="328.0,104.0,336.0,96.0" stroke="black" stroke-width="1" fill="none" />
<polyline points="328.0,96.0,320.0,104.0" stroke="black" stroke-width="1" fill="none" />
<polyline points="312.0,106.0,496.0,106.0" stroke="black" stroke-width="1" fill="none" />
<polyline points="392.0,118.0,336.0,118.0" stroke="black" stroke-width="1" fill="none" />
<polyline points="304.0,104.0,280.0,128.0" stroke="black" stroke-width="1" fill="none" />
<polyline points="272.0,128.0,304.0,96.0" stroke="black" stroke-width="1" fill="none" />
<polyline points="296.0,96.0,264.0,128.0" stroke="black" stroke-width="1" fill="none" />
<polyline points="264.0,120.0,288.0,96.0" stroke="black" stroke-width="1" fill="none" />
<polyline points="280.0,96.0,256.0,120.0" stroke="black" stroke-width="1" fill="none" />
<polyline points="248.0,120.0,272.0,96.0" stroke="black" stroke-width="1" fill="none" />
<polyline points="264.0,96.0,240.0,120.0" stroke="black" stroke-width="1" fill="none" />
<polyline points="240.0,118.0,288.0,118.0" stroke="black" stroke-width="1" fill="none" />
<polyline points="280.0,126.0,272.0,126.0" stroke="black" stroke-width="1" fill="none" />
<polyline points="272.0,130.0,328.0,130.0" stroke="black" stroke-width="1" fill="none" />
<polyline points="336.0,154.0,296.0,154.0" stroke="black" stroke-width="1" fill="none" />
<polyline points="288.0,146.0,336.0,146.0" stroke="black" stroke-width="1" fill="none" />
<polyline points="304.0,162.0,496.0,162.0" stroke="black" stroke-width="1" fill="none" />
<polyline points="496.0,250.0,320.0,250.0" stroke="black" stroke-width="1" fill="none" />
<polyline points="320.0,242.0,496.0,242.0" stroke="black" stroke-width="1" fill="none" />
<polyline points="496.0,234.0,320.0,234.0" stroke="black" stroke-width="1" fill="none" />
<polyline points="320.0,218.0,496.0,218.0" stroke="black" stroke-width="1" fill="none" />
<polyline points="496.0,210.0,320.0,210.0" stroke="black" stroke-width="1" fill="none" />
<polyline points="312.0,202.0,496.0,202.0" stroke="black" stroke-width="1" fill="none" />
<polyline points="304.0,200.0,296.0,208.0" stroke="black" stroke-width="1" fill="none" />
<polyline points="296.0,210.0,304.0,210.0" stroke="black" stroke-width="1" fill="none" />
<polyline points="304.0,218.0,296.0,218.0" stroke="black" stroke-width="1" fill="none" />
<polyline points="296.0,226.0,304.0,226.0" stroke="black" stroke-width="1" fill="none" />
<polyline points="296.0,200.0,304.0,192.0" stroke="black" stroke-width="1" fill="none" />
<polyline points="304.0,184.0,296.0,192.0" stroke="black" stroke-width="1" fill="none" />
<polyline points="304.0,202.0,280.0,202.0" stroke="black" stroke-width="1" fill="none" />
<polyline points="280.0,194.0,384.0,194.0" stroke="black" stroke-width="1" fill="none" />
<polyline points="304.0,170.0,496.0,170.0" stroke="black" stroke-width="1" fill="none" />
<polyline points="376.0,266.0,296.0,266.0" stroke="black" stroke-width="1" fill="none" />
<polyline points="288.0,274.0,376.0,274.0" stroke="black" stroke-width="1" fill="none" />
<polyline points="296.0,280.0,280.0,296.0" stroke="black" stroke-width="1" fill="none" />
<polyline points="280.0,290.0,384.0,290.0" stroke="black" stroke-width="1" fill="none" />
<polyline points="304.0,286.0,296.0,286.0" stroke="black" stroke-width="1" fill="none" />
<polyline points="288.0,294.0,304.0,294.0" stroke="black" stroke-width="1" fill="none" />
<polyline points="280.0,282.0,376.0,282.0" stroke="black" stroke-width="1" fill="none" />
<polyline points="344.0,298.0,272.0,298.0" stroke="black" stroke-width="1" fill="none" />
<polyline points="248.0,306.0,336.0,306.0" stroke="black" stroke-width="1" fill="none" />
<polyline points="304.0,338.0,264.0,338.0" stroke="black" stroke-width="1" fill="none" />
<polyline points="248.0,346.0,328.0,346.0" stroke="black" stroke-width="1" fill="none" />
<polyline points="304.0,406.0,264.0,406.0" stroke="black" stroke-width="1" fill="none" />
<polyline points="208.0,406.0,192.0,406.0" stroke="black" stroke-width="1" fill="none" />
<polyline points="184.0,398.0,200.0,398.0" stroke="black" stroke-width="1" fill="none" />
<polyline points="192.0,390.0,176.0,390.0" stroke="black" stroke-width="1" fill="none" />
<polyline points="192.0,374.0,216.0,374.0" stroke="black" stroke-width="1" fill="none" />
<polyline points="224.0,322.0,248.0,322.0" stroke="black" stroke-width="1" fill="none" />
<polyline points="216.0,312.0,264.0,264.0" stroke="black" stroke-width="1" fill="none" />
<polyline points="256.0,250.0,288.0,250.0" stroke="black" stroke-width="1" fill="none" />
<polyline points="264.0,224.0,256.0,232.0" stroke="black" stroke-width="1" fill="none" />
<polyline points="256.0,224.0,264.0,216.0" stroke="black" stroke-width="1" fill="none" />
<polyline points="264.0,208.0,248.0,224.0" stroke="black" stroke-width="1" fill="none" />
<polyline points="248.0,216.0,256.0,208.0" stroke="black" stroke-width="1" fill="none" />
<polyline points="256.0,200.0,240.0,216.0" stroke="black" stroke-width="1" fill="none" />
<polyline points="232.0,216.0,256.0,192.0" stroke="black" stroke-width="1" fill="none" />
<polyline points="248.0,192.0,200.0,240.0" stroke="black" stroke-width="1" fill="none" />
<polyline points="192.0,240.0,184.0,248.0" stroke="black" stroke-width="1" fill="none" />
<polyline points="184.0,246.0,192.0,246.0" stroke="black" stroke-width="1" fill="none" />
<polyline points="192.0,248.0,184.0,256.0" stroke="black" stroke-width="1" fill="none" />
<polyline points="192.0,264.0,200.0,256.0" stroke="black" stroke-width="1" fill="none" />
<polyline points="200.0,248.0,192.0,256.0" stroke="black" stroke-width="1" fill="none" />
<polyline points="200.0,264.0,208.0,256.0" stroke="black" stroke-width="1" fill="none" />
<polyline points="208.0,248.0,216.0,240.0" stroke="black" stroke-width="1" fill="none" />
<polyline points="216.0,232.0,208.0,240.0" stroke="black" stroke-width="1" fill="none" />
<polyline points="208.0,230.0,216.0,230.0" stroke="black" stroke-width="1" fill="none" />
<polyline points="216.0,222.0,208.0,222.0" stroke="black" stroke-width="1" fill="none" />
<polyline points="208.0,216.0,216.0,208.0" stroke="black" stroke-width="1" fill="none" />
<polyline points="216.0,216.0,200.0,232.0" stroke="black" stroke-width="1" fill="none" />
<polyline points="200.0,226.0,288.0,226.0" stroke="black" stroke-width="1" fill="none" />
<polyline points="272.0,178.0,496.0,178.0" stroke="black" stroke-width="1" fill="none" />
<polyline points="496.0,138.0,288.0,138.0" stroke="black" stroke-width="1" fill="none" />
<polyline points="296.0,170.0,264.0,170.0" stroke="black" stroke-width="1" fill="none" />
<polyline points="256.0,162.0,288.0,162.0" stroke="black" stroke-width="1" fill="none" />
<polyline points="264.0,178.0,248.0,178.0" stroke="black" stroke-width="1" fill="none" />
<polyline points="248.0,170.0,240.0,170.0" stroke="black" stroke-width="1" fill="none" />
<polyline points="248.0,154.0,280.0,154.0" stroke="black" stroke-width="1" fill="none" />
<polyline points="272.0,146.0,232.0,146.0" stroke="black" stroke-width="1" fill="none" />
<polyline points="224.0,146.0,216.0,146.0" stroke="black" stroke-width="1" fill="none" />
<polyline points="208.0,128.0,240.0,96.0" stroke="black" stroke-width="1" fill="none" />
<polyline points="232.0,96.0,200.0,128.0" stroke="black" stroke-width="1" fill="none" />
<polyline points="192.0,128.0,224.0,96.0" stroke="black" stroke-width="1" fill="none" />
<polyline points="216.0,96.0,16.0,296.0" stroke="black" stroke-width="1" fill="none" />
<polyline points="16.0,298.0,176.0,298.0" stroke="black" stroke-width="1" fill="none" />
<polyline points="176.0,290.0,184.0,290.0" stroke="black" stroke-width="1" fill="none" />
<polyline points="184.0,282.0,256.0,282.0" stroke="black" stroke-width="1" fill="none" />
<polyline points="248.0,288.0,240.0,296.0" stroke="black" stroke-width="1" fill="none" />
<polyline points="240.0,280.0,224.0,296.0" stroke="black" stroke-width="1" fill="none" />
<polyline points="216.0,296.0,232.0,280.0" stroke="black" stroke-width="1" fill="none" />
<polyline points="224.0,280.0,208.0,296.0" stroke="black" stroke-width="1" fill="none" />
<polyline points="208.0,288.0,216.0,280.0" stroke="black" stroke-width="1" fill="none" />
<polyline points="216.0,272.0,200.0,288.0" stroke="black" stroke-width="1" fill="none" />
<polyline points="200.0,286.0,224.0,286.0" stroke="black" stroke-width="1" fill="none" />
<polyline points="216.0,294.0,240.0,294.0" stroke="black" stroke-width="1" fill="none" />
<polyline points="216.0,304.0,208.0,312.0" stroke="black" stroke-width="1" fill="none" />
<polyline points="192.0,314.0,328.0,314.0" stroke="black" stroke-width="1" fill="none" />
<polyline points="272.0,258.0,248.0,258.0" stroke="black" stroke-width="1" fill="none" />
<polyline points="232.0,248.0,224.0,256.0" stroke="black" stroke-width="1" fill="none" />
<polyline points="224.0,248.0,232.0,240.0" stroke="black" stroke-width="1" fill="none" />
<polyline points="232.0,232.0,224.0,240.0" stroke="black" stroke-width="1" fill="none" />
<polyline points="224.0,266.0,272.0,266.0" stroke="black" stroke-width="1" fill="none" />
<polyline points="208.0,272.0,200.0,280.0" stroke="black" stroke-width="1" fill="none" />
<polyline points="200.0,278.0,208.0,278.0" stroke="black" stroke-width="1" fill="none" />
<polyline points="200.0,272.0,192.0,280.0" stroke="black" stroke-width="1" fill="none" />
<polyline points="192.0,290.0,248.0,290.0" stroke="black" stroke-width="1" fill="none" />
<polyline points="232.0,306.0,184.0,306.0" stroke="black" stroke-width="1" fill="none" />
<polyline points="184.0,298.0,248.0,298.0" stroke="black" stroke-width="1" fill="none" />
<polyline points="264.0,274.0,176.0,274.0" stroke="black" stroke-width="1" fill="none" />
<polyline points="176.0,266.0,216.0,266.0" stroke="black" stroke-width="1" fill="none" />
<polyline points="184.0,240.0,192.0,232.0" stroke="black" stroke-width="1" fill="none" />
<polyline points="200.0,218.0,288.0,218.0" stroke="black" stroke-width="1" fill="none" />
<polyline points="248.0,198.0,240.0,198.0" stroke="black" stroke-width="1" fill="none" />
<polyline points="240.0,192.0,224.0,208.0" stroke="black" stroke-width="1" fill="none" />
<polyline points="232.0,206.0,256.0,206.0" stroke="black" stroke-width="1" fill="none" />
<polyline points="240.0,214.0,232.0,214.0" stroke="black" stroke-width="1" fill="none" />
<polyline points="224.0,186.0,496.0,186.0" stroke="black" stroke-width="1" fill="none" />
<polyline points="256.0,96.0,232.0,120.0" stroke="black" stroke-width="1" fill="none" />
<polyline points="224.0,120.0,248.0,96.0" stroke="black" stroke-width="1" fill="none" />
<polyline points="208.0,96.0,16.0,288.0" stroke="black" stroke-width="1" fill="none" />
<polyline points="16.0,290.0,144.0,290.0" stroke="black" stroke-width="1" fill="none" />
<polyline points="152.0,282.0,168.0,282.0" stroke="black" stroke-width="1" fill="none" />
<polyline points="168.0,290.0,160.0,290.0" stroke="black" stroke-width="1" fill="none" />
<polyline points="168.0,274.0,136.0,274.0" stroke="black" stroke-width="1" fill="none" />
<polyline points="136.0,266.0,168.0,266.0" stroke="black" stroke-width="1" fill="none" />
<polyline points="168.0,258.0,240.0,258.0" stroke="black" stroke-width="1" fill="none" />
<polyline points="200.0,210.0,288.0,210.0" stroke="black" stroke-width="1" fill="none" />
<polyline points="272.0,194.0,208.0,194.0" stroke="black" stroke-width="1" fill="none" />
<polyline points="200.0,202.0,272.0,202.0" stroke="black" stroke-width="1" fill="none" />
<polyline points="224.0,154.0,192.0,154.0" stroke="black" stroke-width="1" fill="none" />
<polyline points="192.0,146.0,208.0,146.0" stroke="black" stroke-width="1" fill="none" />
<polyline points="208.0,138.0,192.0,138.0" stroke="black" stroke-width="1" fill="none" />
<polyline points="184.0,162.0,224.0,162.0" stroke="black" stroke-width="1" fill="none" />
<polyline points="184.0,178.0,176.0,178.0" stroke="black" stroke-width="1" fill="none" />
<polyline points="176.0,170.0,208.0,170.0" stroke="black" stroke-width="1" fill="none" />
<polyline points="192.0,202.0,176.0,202.0" stroke="black" stroke-width="1" fill="none" />
<polyline points="176.0,210.0,192.0,210.0" stroke="black" stroke-width="1" fill="none" />
<polyline points="192.0,226.0,168.0,226.0" stroke="black" stroke-width="1" fill="none" />
<polyline points="168.0,218.0,192.0,218.0" stroke="black" stroke-width="1" fill="none" />
<polyline points="168.0,234.0,280.0,234.0" stroke="black" stroke-width="1" fill="none" />
<polyline points="248.0,250.0,168.0,250.0" stroke="black" stroke-width="1" fill="none" />
<polyline points="168.0,242.0,280.0,242.0" stroke="black" stroke-width="1" fill="none" />
<polyline points="184.0,194.0,168.0,194.0" stroke="black" stroke-width="1" fill="none" />
<polyline points="168.0,186.0,184.0,186.0" stroke="black" stroke-width="1" fill="none" />
<polyline points="152.0,192.0,120.0,224.0" stroke="black" stroke-width="1" fill="none" />
<polyline points="128.0,224.0,152.0,200.0" stroke="black" stroke-width="1" fill="none" />
<polyline points="152.0,208.0,144.0,216.0" stroke="black" stroke-width="1" fill="none" />
<polyline points="144.0,192.0,16.0,320.0" stroke="black" stroke-width="1" fill="none" />
<polyline points="16.0,322.0,184.0,322.0" stroke="black" stroke-width="1" fill="none" />
<polyline points="168.0,366.0,136.0,366.0" stroke="black" stroke-width="1" fill="none" />
<polyline points="136.0,358.0,168.0,358.0" stroke="black" stroke-width="1" fill="none" />
<polyline points="168.0,350.0,128.0,350.0" stroke="black" stroke-width="1" fill="none" />
<polyline points="120.0,342.0,160.0,342.0" stroke="black" stroke-width="1" fill="none" />
<polyline points="112.0,304.0,16.0,400.0" stroke="black" stroke-width="1" fill="none" />
<polyline points="16.0,402.0,496.0,402.0" stroke="black" stroke-width="1" fill="none" />
<polyline points="160.0,398.0,128.0,398.0" stroke="black" stroke-width="1" fill="none" />
<polyline points="120.0,390.0,160.0,390.0" stroke="black" stroke-width="1" fill="none" />
<polyline points="152.0,406.0,120.0,406.0" stroke="black" stroke-width="1" fill="none" />
<polyline points="104.0,400.0,88.0,416.0" stroke="black" stroke-width="1" fill="none" />
<polyline points="80.0,416.0,96.0,400.0" stroke="black" stroke-width="1" fill="none" />
<polyline points="96.0,390.0,88.0,390.0" stroke="black" stroke-width="1" fill="none" />
<polyline points="88.0,374.0,80.0,374.0" stroke="black" stroke-width="1" fill="none" />
<polyline points="88.0,366.0,96.0,366.0" stroke="black" stroke-width="1" fill="none" />
<polyline points="96.0,358.0,88.0,358.0" stroke="black" stroke-width="1" fill="none" />
<polyline points="72.0,382.0,56.0,382.0" stroke="black" stroke-width="1" fill="none" />
<polyline points="48.0,374.0,64.0,374.0" stroke="black" stroke-width="1" fill="none" />
<polyline points="56.0,366.0,48.0,366.0" stroke="black" stroke-width="1" fill="none" />
<polyline points="48.0,390.0,40.0,390.0" stroke="black" stroke-width="1" fill="none" />
<polyline points="40.0,398.0,48.0,398.0" stroke="black" stroke-width="1" fill="none" />
<polyline points="40.0,406.0,64.0,406.0" stroke="black" stroke-width="1" fill="none" />
<polyline points="32.0,382.0,24.0,382.0" stroke="black" stroke-width="1" fill="none" />
<polyline points="24.0,374.0,32.0,374.0" stroke="black" stroke-width="1" fill="none" />
<polyline points="16.0,376.0,120.0,272.0" stroke="black" stroke-width="1" fill="none" />
<polyline points="112.0,272.0,16.0,368.0" stroke="black" stroke-width="1" fill="none" />
<polyline points="16.0,370.0,496.0,370.0" stroke="black" stroke-width="1" fill="none" />
<polyline points="112.0,296.0,16.0,392.0" stroke="black" stroke-width="1" fill="none" />
<polyline points="16.0,394.0,496.0,394.0" stroke="black" stroke-width="1" fill="none" />
<polyline points="112.0,288.0,16.0,384.0" stroke="black" stroke-width="1" fill="none" />
<polyline points="16.0,386.0,496.0,386.0" stroke="black" stroke-width="1" fill="none" />
<polyline points="112.0,264.0,16.0,360.0" stroke="black" stroke-width="1" fill="none" />
<polyline points="16.0,362.0,496.0,362.0" stroke="black" stroke-width="1" fill="none" />
<polyline points="152.0,176.0,16.0,312.0" stroke="black" stroke-width="1" fill="none" />
<polyline points="16.0,314.0,176.0,314.0" stroke="black" stroke-width="1" fill="none" />
<polyline points="104.0,318.0,96.0,318.0" stroke="black" stroke-width="1" fill="none" />
<polyline points="88.0,310.0,104.0,310.0" stroke="black" stroke-width="1" fill="none" />
<polyline points="96.0,278.0,88.0,278.0" stroke="black" stroke-width="1" fill="none" />
<polyline points="88.0,270.0,104.0,270.0" stroke="black" stroke-width="1" fill="none" />
<polyline points="104.0,256.0,16.0,344.0" stroke="black" stroke-width="1" fill="none" />
<polyline points="16.0,346.0,208.0,346.0" stroke="black" stroke-width="1" fill="none" />
<polyline points="112.0,256.0,16.0,352.0" stroke="black" stroke-width="1" fill="none" />
<polyline points="16.0,354.0,496.0,354.0" stroke="black" stroke-width="1" fill="none" />
<polyline points="160.0,160.0,16.0,304.0" stroke="black" stroke-width="1" fill="none" />
<polyline points="16.0,306.0,176.0,306.0" stroke="black" stroke-width="1" fill="none" />
<polyline points="144.0,234.0,120.0,234.0" stroke="black" stroke-width="1" fill="none" />
<polyline points="104.0,240.0,16.0,328.0" stroke="black" stroke-width="1" fill="none" />
<polyline points="16.0,330.0,192.0,330.0" stroke="black" stroke-width="1" fill="none" />
<polyline points="104.0,248.0,16.0,336.0" stroke="black" stroke-width="1" fill="none" />
<polyline points="16.0,338.0,192.0,338.0" stroke="black" stroke-width="1" fill="none" />
<polyline points="104.0,254.0,96.0,254.0" stroke="black" stroke-width="1" fill="none" />
<polyline points="96.0,246.0,104.0,246.0" stroke="black" stroke-width="1" fill="none" />
<polyline points="104.0,230.0,96.0,230.0" stroke="black" stroke-width="1" fill="none" />
<polyline points="88.0,222.0,128.0,222.0" stroke="black" stroke-width="1" fill="none" />
<polyline points="152.0,214.0,88.0,214.0" stroke="black" stroke-width="1" fill="none" />
<polyline points="88.0,206.0,152.0,206.0" stroke="black" stroke-width="1" fill="none" />
<polyline points="152.0,142.0,168.0,142.0" stroke="black" stroke-width="1" fill="none" />
<polyline points="168.0,96.0,16.0,248.0" stroke="black" stroke-width="1" fill="none" />
<polyline points="16.0,250.0,144.0,250.0" stroke="black" stroke-width="1" fill="none" />
<polyline points="104.0,262.0,88.0,262.0" stroke="black" stroke-width="1" fill="none" />
<polyline points="96.0,286.0,72.0,286.0" stroke="black" stroke-width="1" fill="none" />
<polyline points="64.0,294.0,88.0,294.0" stroke="black" stroke-width="1" fill="none" />
<polyline points="40.0,334.0,24.0,334.0" stroke="black" stroke-width="1" fill="none" />
<polyline points="24.0,326.0,32.0,326.0" stroke="black" stroke-width="1" fill="none" />
<polyline points="32.0,318.0,24.0,318.0" stroke="black" stroke-width="1" fill="none" />
<polyline points="24.0,310.0,32.0,310.0" stroke="black" stroke-width="1" fill="none" />
<polyline points="32.0,294.0,24.0,294.0" stroke="black" stroke-width="1" fill="none" />
<polyline points="24.0,286.0,32.0,286.0" stroke="black" stroke-width="1" fill="none" />
<polyline points="16.0,282.0,136.0,282.0" stroke="black" stroke-width="1" fill="none" />
<polyline points="120.0,198.0,88.0,198.0" stroke="black" stroke-width="1" fill="none" />
<polyline points="88.0,190.0,120.0,190.0" stroke="black" stroke-width="1" fill="none" />
<polyline points="112.0,182.0,88.0,182.0" stroke="black" stroke-width="1" fill="none" />
<polyline points="80.0,174.0,112.0,174.0" stroke="black" stroke-width="1" fill="none" />
<polyline points="112.0,166.0,72.0,166.0" stroke="black" stroke-width="1" fill="none" />
<polyline points="56.0,158.0,120.0,158.0" stroke="black" stroke-width="1" fill="none" />
<polyline points="120.0,96.0,16.0,200.0" stroke="black" stroke-width="1" fill="none" />
<polyline points="16.0,202.0,160.0,202.0" stroke="black" stroke-width="1" fill="none" />
<polyline points="160.0,96.0,16.0,240.0" stroke="black" stroke-width="1" fill="none" />
<polyline points="16.0,242.0,144.0,242.0" stroke="black" stroke-width="1" fill="none" />
<polyline points="48.0,230.0,24.0,230.0" stroke="black" stroke-width="1" fill="none" />
<polyline points="24.0,222.0,48.0,222.0" stroke="black" stroke-width="1" fill="none" />
<polyline points="40.0,214.0,24.0,214.0" stroke="black" stroke-width="1" fill="none" />
<polyline points="24.0,206.0,40.0,206.0" stroke="black" stroke-width="1" fill="none" />
<polyline points="40.0,198.0,24.0,198.0" stroke="black" stroke-width="1" fill="none" />
<polyline points="24.0,190.0,40.0,190.0" stroke="black" stroke-width="1" fill="none" />
<polyline points="40.0,182.0,24.0,182.0" stroke="black" stroke-width="1" fill="none" />
<polyline points="24.0,174.0,32.0,174.0" stroke="black" stroke-width="1" fill="none" />
<polyline points="16.0,176.0,96.0,96.0" stroke="black" stroke-width="1" fill="none" />
<polyline points="88.0,96.0,16.0,168.0" stroke="black" stroke-width="1" fill="none" />
<polyline points="16.0,170.0,160.0,170.0" stroke="black" stroke-width="1" fill="none" />
<polyline points="152.0,96.0,16.0,232.0" stroke="black" stroke-width="1" fill="none" />
<polyline points="16.0,234.0,112.0,234.0" stroke="black" stroke-width="1" fill="none" />
<polyline points="128.0,150.0,24.0,150.0" stroke="black" stroke-width="1" fill="none" />
<polyline points="24.0,142.0,128.0,142.0" stroke="black" stroke-width="1" fill="none" />
<polyline points="128.0,96.0,16.0,208.0" stroke="black" stroke-width="1" fill="none" />
<polyline points="16.0,210.0,160.0,210.0" stroke="black" stroke-width="1" fill="none" />
<polyline points="144.0,96.0,16.0,224.0" stroke="black" stroke-width="1" fill="none" />
<polyline points="16.0,226.0,152.0,226.0" stroke="black" stroke-width="1" fill="none" />
<polyline points="136.0,96.0,16.0,216.0" stroke="black" stroke-width="1" fill="none" />
<polyline points="16.0,218.0,160.0,218.0" stroke="black" stroke-width="1" fill="none" />
<polyline points="176.0,96.0,16.0,256.0" stroke="black" stroke-width="1" fill="none" />
<polyline points="16.0,258.0,152.0,258.0" stroke="black" stroke-width="1" fill="none" />
<polyline points="16.0,264.0,184.0,96.0" stroke="black" stroke-width="1" fill="none" />
<polyline points="192.0,96.0,16.0,272.0" stroke="black" stroke-width="1" fill="none" />
<polyline points="16.0,274.0,128.0,274.0" stroke="black" stroke-width="1" fill="none" />
<polyline points="16.0,280.0,200.0,96.0" stroke="black" stroke-width="1" fill="none" />
<polyline points="112.0,96.0,16.0,192.0" stroke="black" stroke-width="1" fill="none" />
<polyline points="16.0,194.0,160.0,194.0" stroke="black" stroke-width="1" fill="none" />
<polyline points="104.0,96.0,16.0,184.0" stroke="black" stroke-width="1" fill="none" />
<polyline points="16.0,186.0,152.0,186.0" stroke="black" stroke-width="1" fill="none" />
<polyline points="80.0,96.0,16.0,160.0" stroke="black" stroke-width="1" fill="none" />
<polyline points="16.0,162.0,168.0,162.0" stroke="black" stroke-width="1" fill="none" />
<polyline points="72.0,96.0,16.0,152.0" stroke="black" stroke-width="1" fill="none" />
<polyline points="16.0,154.0,168.0,154.0" stroke="black" stroke-width="1" fill="none" />
<polyline points="64.0,96.0,16.0,144.0" stroke="black" stroke-width="1" fill="none" />
<polyline points="16.0,146.0,176.0,146.0" stroke="black" stroke-width="1" fill="none" />
<polyline points="56.0,96.0,16.0,136.0" stroke="black" stroke-width="1" fill="none" />
<polyline points="16.0,138.0,184.0,138.0" stroke="black" stroke-width="1" fill="none" />
<polyline points="48.0,96.0,16.0,128.0" stroke="black" stroke-width="1" fill="none" />
<polyline points="16.0,130.0,208.0,130.0" stroke="black" stroke-width="1" fill="none" />
<polyline points="40.0,96.0,16.0,120.0" stroke="black" stroke-width="1" fill="none" />
<polyline points="16.0,122.0,496.0,122.0" stroke="black" stroke-width="1" fill="none" />
<polyline points="32.0,96.0,16.0,112.0" stroke="black" stroke-width="1" fill="none" />
<polyline points="16.0,114.0,496.0,114.0" stroke="black" stroke-width="1" fill="none" />
<polyline points="32.0,158.0,24.0,158.0" stroke="black" stroke-width="1" fill="none" />
<polyline points="16.0,178.0,152.0,178.0" stroke="black" stroke-width="1" fill="none" />
<polyline points="176.0,134.0,24.0,134.0" stroke="black" stroke-width="1" fill="none" />
<polyline points="24.0,126.0,200.0,126.0" stroke="black" stroke-width="1" fill="none" />
<polyline points="232.0,118.0,24.0,118.0" stroke="black" stroke-width="1" fill="none" />
<polyline points="24.0,110.0,296.0,110.0" stroke="black" stroke-width="1" fill="none" />
<polyline points="24.0,96.0,16.0,104.0" stroke="black" stroke-width="1" fill="none" />
<polyline points="16.0,106.0,304.0,106.0" stroke="black" stroke-width="1" fill="none" />
<polyline points="128.0,266.0,16.0,266.0" stroke="black" stroke-width="1" fill="none" />
<polyline points="24.0,342.0,32.0,342.0" stroke="black" stroke-width="1" fill="none" />
<polyline points="32.0,350.0,24.0,350.0" stroke="black" stroke-width="1" fill="none" />
<polyline points="24.0,358.0,32.0,358.0" stroke="black" stroke-width="1" fill="none" />
<polyline points="16.0,378.0,496.0,378.0" stroke="black" stroke-width="1" fill="none" />
</svg>